<svg viewBox="0,0,975,720" width="975" height="720" style="background: rgb(255, 255, 255); width: 100%; height: auto;" xmlns="http://www.w3.org/2000/svg" xmlns:xlink="http://www.w3.org/1999/xlink"><g><rect x="1" y="5" height="709.9999999999999" width="13" fill="rgb(185, 185, 185)"><title>NECAP
100</title></rect><rect x="961" y="5" height="31.950000000000017" width="13" fill="rgb(185, 185, 185)"><title>Home
4.5</title></rect><rect x="961" y="46.95000000000002" height="10.650000000000091" width="13" fill="rgb(185, 185, 185)"><title>Spotlight
1.5</title></rect><rect x="321" y="47.59999999999992" height="667.4000000000001" width="13" fill="rgb(185, 185, 185)"><title>Grants
94</title></rect><rect x="961" y="67.60000000000011" height="163.29999999999993" width="13" fill="rgb(213, 138, 0)"><title>Guide
23</title></rect><rect x="961" y="240.90000000000003" height="56.80000000000001" width="13" fill="rgb(213, 138, 0)"><title>FAQ
8</title></rect><rect x="961" y="307.70000000000005" height="85.19999999999993" width="13" fill="rgb(213, 138, 0)"><title>Deadlines
12</title></rect><rect x="641" y="368.47775862578277" height="298.1999999999999" width="13" fill="rgb(145, 181, 192)"><title>Explore and Create
42</title></rect><rect x="961" y="402.9" height="56.80000000000007" width="13" fill="rgb(145, 181, 192)"><title>Concept to Realization
8</title></rect><rect x="961" y="469.70000000000005" height="92.3000000000003" width="13" fill="rgb(145, 181, 192)"><title>Research and Creation
13</title></rect><rect x="961" y="572.0000000000003" height="78.09999999999991" width="13" fill="rgb(145, 181, 192)"><title>Professional Development
11</title></rect></g><g fill="none"><g stroke="rgb(221, 221, 221)" style="mix-blend-mode: multiply;"><path d="M15,20.975C487.5,20.975,487.5,20.975,960,20.975" stroke-width="31.95"/><title>NECAP → Home
4.5</title></g><g stroke="rgb(221, 221, 221)" style="mix-blend-mode: multiply;"><path d="M15,42.275000000000006C487.5,42.275000000000006,487.5,52.27500000000002,960,52.27500000000002" stroke-width="10.649999999999999"/><title>NECAP → Spotlight
1.5</title></g><g stroke="rgb(221, 221, 221)" style="mix-blend-mode: multiply;"><path d="M15,381.3C167.5,381.3,167.5,381.2999999999999,320,381.2999999999999" stroke-width="667.4"/><title>NECAP → Grants
94</title></g><g stroke="rgb(255, 165, 0)" style="mix-blend-mode: multiply;"><path d="M335,129.24999999999991C647.5,129.24999999999991,647.5,149.2500000000001,960,149.2500000000001" stroke-width="163.29999999999998"/><title>Grants → Guide
23</title></g><g stroke="rgb(255, 165, 0)" style="mix-blend-mode: multiply;"><path d="M335,239.29999999999993C647.5,239.29999999999993,647.5,269.3,960,269.3" stroke-width="56.8"/><title>Grants → FAQ
8</title></g><g stroke="rgb(255, 165, 0)" style="mix-blend-mode: multiply;"><path d="M335,310.29999999999995C647.5,310.29999999999995,647.5,350.30000000000007,960,350.30000000000007" stroke-width="85.19999999999999"/><title>Grants → Deadlines
12</title></g><g stroke="rgb(173, 216, 230)" style="mix-blend-mode: multiply;"><path d="M335,501.9999999999999C487.5,501.9999999999999,487.5,517.5777586257827,640,517.5777586257827" stroke-width="298.2"/><title>Grants → Explore and Create
42</title></g><g stroke="rgb(173, 216, 230)" style="mix-blend-mode: multiply;"><path d="M655,396.87775862578275C807.5,396.87775862578275,807.5,431.29999999999995,960,431.29999999999995" stroke-width="56.8"/><title>Explore and Create → Concept to Realization
8</title></g><g stroke="rgb(173, 216, 230)" style="mix-blend-mode: multiply;"><path d="M655,471.42775862578276C807.5,471.42775862578276,807.5,515.85,960,515.85" stroke-width="92.3"/><title>Explore and Create → Research and Creation
13</title></g><g stroke="rgb(173, 216, 230)" style="mix-blend-mode: multiply;"><path d="M655,556.6277586257827C807.5,556.6277586257827,807.5,611.0500000000003,960,611.0500000000003" stroke-width="78.1"/><title>Explore and Create → Professional Development
11</title></g></g><g style="font: 10px sans-serif;"><text x="21" y="359.99999999999994" dy="0.35em" text-anchor="start">NECAP<tspan fill-opacity="0.7"> 100</tspan></text><text x="954" y="20.97500000000001" dy="0.35em" text-anchor="end">Home<tspan fill-opacity="0.7"> 4.5</tspan></text><text x="954" y="52.27500000000006" dy="0.35em" text-anchor="end">Spotlight<tspan fill-opacity="0.7"> 1.5</tspan></text><text x="341" y="381.29999999999995" dy="0.35em" text-anchor="start">Grants<tspan fill-opacity="0.7"> 94</tspan></text><text x="954" y="149.25000000000006" dy="0.35em" text-anchor="end">Guide<tspan fill-opacity="0.7"> 23</tspan></text><text x="954" y="269.30000000000007" dy="0.35em" text-anchor="end">FAQ<tspan fill-opacity="0.7"> 8</tspan></text><text x="954" y="350.3" dy="0.35em" text-anchor="end">Deadlines<tspan fill-opacity="0.7"> 12</tspan></text><text x="634" y="517.5777586257827" dy="0.35em" text-anchor="end">Explore and Create<tspan fill-opacity="0.7"> 42</tspan></text><text x="954" y="431.3" dy="0.35em" text-anchor="end">Concept to Realization<tspan fill-opacity="0.7"> 8</tspan></text><text x="954" y="515.8500000000001" dy="0.35em" text-anchor="end">Research and Creation<tspan fill-opacity="0.7"> 13</tspan></text><text x="954" y="611.0500000000003" dy="0.35em" text-anchor="end">Professional Development<tspan fill-opacity="0.7"> 11</tspan></text></g></svg>