<svg viewBox="0,0,975,600" width="975" height="600" style="background: rgb(255, 255, 255); width: 100%; height: auto;" xmlns="http://www.w3.org/2000/svg" xmlns:xlink="http://www.w3.org/1999/xlink"><g><rect x="1" y="24.624775442609355" height="570.0000000000002" width="13" fill="rgb(185, 185, 185)"><title>NECAP
100</title></rect><rect x="321" y="4.999999999999616" height="25.650000000000006" width="13" fill="rgb(185, 185, 185)"><title>Home
4.5</title></rect><rect x="321" y="40.64999999999962" height="8.550000000000182" width="13" fill="rgb(185, 185, 185)"><title>Spotlight
1.5</title></rect><rect x="321" y="59.199999999999804" height="535.8000000000002" width="13" fill="rgb(185, 185, 185)"><title>Grants
94</title></rect><rect x="641" y="44.79406616398012" height="131.09999999999994" width="13" fill="rgb(213, 138, 0)"><title>Guide
23</title></rect><rect x="641" y="185.8940661639801" height="45.59999999999991" width="13" fill="rgb(213, 138, 0)"><title>FAQ
8</title></rect><rect x="641" y="241.49406616398008" height="68.39999999999995" width="13" fill="rgb(213, 138, 0)"><title>Deadlines
12</title></rect><rect x="641" y="319.99645386338364" height="239.4000000000001" width="13" fill="rgb(145, 181, 192)"><title>Explore and Create
42</title></rect><rect x="961" y="310.7406386994987" height="74.10000000000002" width="13" fill="rgb(145, 181, 192)"><title>Research and Creation
13</title></rect><rect x="961" y="394.8406386994987" height="62.700000000000045" width="13" fill="rgb(145, 181, 192)"><title>Professional Development
11</title></rect><rect x="961" y="467.54063869949874" height="45.60000000000008" width="13" fill="rgb(145, 181, 192)"><title>Concept to Realization
8</title></rect></g><g fill="none"><g stroke="rgb(221, 221, 221)" style="mix-blend-mode: multiply;"><path d="M15,37.44977544260936C167.5,37.44977544260936,167.5,17.82499999999962,320,17.82499999999962" stroke-width="25.650000000000002"/><title>NECAP → Home
4.5</title></g><g stroke="rgb(221, 221, 221)" style="mix-blend-mode: multiply;"><path d="M15,54.54977544260935C167.5,54.54977544260935,167.5,44.92499999999962,320,44.92499999999962" stroke-width="8.55"/><title>NECAP → Spotlight
1.5</title></g><g stroke="rgb(221, 221, 221)" style="mix-blend-mode: multiply;"><path d="M15,326.72477544260937C167.5,326.72477544260937,167.5,327.09999999999985,320,327.09999999999985" stroke-width="535.8000000000001"/><title>NECAP → Grants
94</title></g><g stroke="rgb(255, 165, 0)" style="mix-blend-mode: multiply;"><path d="M335,124.7499999999998C487.5,124.7499999999998,487.5,110.34406616398012,640,110.34406616398012" stroke-width="131.1"/><title>Grants → Guide
23</title></g><g stroke="rgb(255, 165, 0)" style="mix-blend-mode: multiply;"><path d="M335,213.0999999999998C487.5,213.0999999999998,487.5,208.69406616398012,640,208.69406616398012" stroke-width="45.6"/><title>Grants → FAQ
8</title></g><g stroke="rgb(255, 165, 0)" style="mix-blend-mode: multiply;"><path d="M335,270.0999999999998C487.5,270.0999999999998,487.5,275.6940661639801,640,275.6940661639801" stroke-width="68.4"/><title>Grants → Deadlines
12</title></g><g stroke="rgb(173, 216, 230)" style="mix-blend-mode: multiply;"><path d="M335,423.9999999999998C487.5,423.9999999999998,487.5,439.6964538633836,640,439.6964538633836" stroke-width="239.4"/><title>Grants → Explore and Create
42</title></g><g stroke="rgb(173, 216, 230)" style="mix-blend-mode: multiply;"><path d="M655,357.04645386338365C807.5,357.04645386338365,807.5,347.7906386994987,960,347.7906386994987" stroke-width="74.10000000000001"/><title>Explore and Create → Research and Creation
13</title></g><g stroke="rgb(173, 216, 230)" style="mix-blend-mode: multiply;"><path d="M655,425.4464538633837C807.5,425.4464538633837,807.5,426.1906386994987,960,426.1906386994987" stroke-width="62.7"/><title>Explore and Create → Professional Development
11</title></g><g stroke="rgb(173, 216, 230)" style="mix-blend-mode: multiply;"><path d="M655,479.59645386338366C807.5,479.59645386338366,807.5,490.34063869949875,960,490.34063869949875" stroke-width="45.6"/><title>Explore and Create → Concept to Realization
8</title></g></g><g style="font: 10px sans-serif;"><text x="21" y="309.62477544260946" dy="0.35em" text-anchor="start">NECAP<tspan fill-opacity="0.7"> 100</tspan></text><text x="341" y="17.82499999999962" dy="0.35em" text-anchor="start">Home<tspan fill-opacity="0.7"> 4.5</tspan></text><text x="341" y="44.92499999999971" dy="0.35em" text-anchor="start">Spotlight<tspan fill-opacity="0.7"> 1.5</tspan></text><text x="341" y="327.0999999999999" dy="0.35em" text-anchor="start">Grants<tspan fill-opacity="0.7"> 94</tspan></text><text x="634" y="110.34406616398009" dy="0.35em" text-anchor="end">Guide<tspan fill-opacity="0.7"> 23</tspan></text><text x="634" y="208.69406616398007" dy="0.35em" text-anchor="end">FAQ<tspan fill-opacity="0.7"> 8</tspan></text><text x="634" y="275.69406616398004" dy="0.35em" text-anchor="end">Deadlines<tspan fill-opacity="0.7"> 12</tspan></text><text x="634" y="439.6964538633837" dy="0.35em" text-anchor="end">Explore and Create<tspan fill-opacity="0.7"> 42</tspan></text><text x="954" y="347.7906386994987" dy="0.35em" text-anchor="end">Research and Creation<tspan fill-opacity="0.7"> 13</tspan></text><text x="954" y="426.1906386994987" dy="0.35em" text-anchor="end">Professional Development<tspan fill-opacity="0.7"> 11</tspan></text><text x="954" y="490.34063869949875" dy="0.35em" text-anchor="end">Concept to Realization<tspan fill-opacity="0.7"> 8</tspan></text></g></svg>