<svg viewBox="0,0,975,724" width="975" height="724" style="background: rgb(255, 255, 255); width: 100%; height: auto;" xmlns="http://www.w3.org/2000/svg" xmlns:xlink="http://www.w3.org/1999/xlink"><g><rect x="1" y="5.000000000000028" height="1.9009900990099027" width="13" fill="rgb(0, 0, 213)"><title>Circus Arts
4</title></rect><rect x="241" y="73.69144914847072" height="624.0000000000001" width="13" fill="rgb(213, 138, 0)"><title>Created
1,313</title></rect><rect x="1" y="16.90099009900993" height="16.15841584158413" width="13" fill="rgb(0, 0, 213)"><title>Dance
34</title></rect><rect x="1" y="43.05940594059406" height="5.227722772277247" width="13" fill="rgb(0, 0, 213)"><title>Deaf and Disability Arts
11</title></rect><rect x="1" y="58.28712871287131" height="18.059405940594033" width="13" fill="rgb(0, 0, 213)"><title>Digital Arts
38</title></rect><rect x="1" y="86.34653465346534" height="13.306930693069319" width="13" fill="rgb(0, 0, 213)"><title>Inter-Arts
28</title></rect><rect x="1" y="109.65346534653466" height="119.76237623762367" width="13" fill="rgb(0, 0, 213)"><title>Literature
252</title></rect><rect x="1" y="239.41584158415833" height="118.33663366336646" width="13" fill="rgb(0, 0, 213)"><title>Media Arts
249</title></rect><rect x="1" y="367.7524752475248" height="76.99009900990109" width="13" fill="rgb(0, 0, 213)"><title>Music and Sound
162</title></rect><rect x="1" y="454.7425742574259" height="52.27722772277218" width="13" fill="rgb(0, 0, 213)"><title>Theatre
110</title></rect><rect x="1" y="517.019801980198" height="201.98019801980195" width="13" fill="rgb(0, 0, 213)"><title>Visual Arts
425</title></rect><rect x="481" y="74.74106346973232" height="330.7722772277227" width="13" fill="rgb(185, 185, 185)"><title>Submitted
696</title></rect><rect x="721" y="69.82706165448636" height="116.9108910891089" width="13" fill="rgb(213, 0, 0)"><title>Ineligible
246</title></rect><rect x="961" y="35.86230430965556" height="15.207920792079207" width="13" fill="rgb(213, 0, 0)"><title> Insufficent Experience
32</title></rect><rect x="961" y="61.07022509992094" height="9.02970297029703" width="13" fill="rgb(213, 0, 0)"><title> Professional
19</title></rect><rect x="961" y="80.09992806824603" height="9.029702970297052" width="13" fill="rgb(213, 0, 0)"><title> Existing Profile
19</title></rect><rect x="961" y="99.12963144751745" height="5.702970297029708" width="13" fill="rgb(213, 0, 0)"><title> Artistic CV
12</title></rect><rect x="961" y="114.83260174454715" height="2.3762376237623926" width="13" fill="rgb(213, 0, 0)"><title> Student
5</title></rect><rect x="961" y="127.20883936830953" height="0.47524752475246146" width="13" fill="rgb(213, 0, 0)"><title> Group
1</title></rect><rect x="961" y="137.684086893062" height="0.47524752475243304" width="13" fill="rgb(213, 0, 0)"><title> Not permanent resident
1</title></rect><rect x="961" y="148.15933441781448" height="0.4752475247524899" width="13" fill="rgb(213, 0, 0)"><title> minor
1</title></rect><rect x="961" y="197.71768231180027" height="213.86138613861402" width="13" fill="rgb(0, 107, 0)"><title>Validated
450</title></rect></g><g fill="none"><g stroke="rgb(0, 0, 255)" style="mix-blend-mode: multiply;"><path d="M15,5.950495049504979C127.5,5.950495049504979,127.5,90.80036003955983,240,90.80036003955983" stroke-width="1.900990099009901"/><title>Circus Arts → Created
4</title></g><g stroke="rgb(0, 0, 255)" style="mix-blend-mode: multiply;"><path d="M15,24.98019801980201C127.5,24.98019801980201,127.5,81.7706570692628,240,81.7706570692628" stroke-width="16.15841584158416"/><title>Dance → Created
34</title></g><g stroke="rgb(0, 0, 255)" style="mix-blend-mode: multiply;"><path d="M15,45.67326732673268C127.5,45.67326732673268,127.5,94.3647164752034,240,94.3647164752034" stroke-width="5.227722772277227"/><title>Deaf and Disability Arts → Created
11</title></g><g stroke="rgb(0, 0, 255)" style="mix-blend-mode: multiply;"><path d="M15,67.31683168316833C127.5,67.31683168316833,127.5,106.00828083163904,240,106.00828083163904" stroke-width="18.059405940594058"/><title>Digital Arts → Created
38</title></g><g stroke="rgb(0, 0, 255)" style="mix-blend-mode: multiply;"><path d="M15,93C127.5,93,127.5,121.69144914847074,240,121.69144914847074" stroke-width="13.306930693069306"/><title>Inter-Arts → Created
28</title></g><g stroke="rgb(0, 0, 255)" style="mix-blend-mode: multiply;"><path d="M15,169.53465346534654C127.5,169.53465346534654,127.5,188.22610261381726,240,188.22610261381726" stroke-width="119.76237623762376"/><title>Literature → Created
252</title></g><g stroke="rgb(0, 0, 255)" style="mix-blend-mode: multiply;"><path d="M15,298.5841584158415C127.5,298.5841584158415,127.5,307.2756075643123,240,307.2756075643123" stroke-width="118.33663366336633"/><title>Media Arts → Created
249</title></g><g stroke="rgb(0, 0, 255)" style="mix-blend-mode: multiply;"><path d="M15,406.2475247524753C127.5,406.2475247524753,127.5,404.93897390094594,240,404.93897390094594" stroke-width="76.99009900990099"/><title>Music and Sound → Created
162</title></g><g stroke="rgb(0, 0, 255)" style="mix-blend-mode: multiply;"><path d="M15,480.881188118812C127.5,480.881188118812,127.5,469.5726372672826,240,469.5726372672826" stroke-width="52.277227722772274"/><title>Theatre → Created
110</title></g><g stroke="rgb(0, 0, 255)" style="mix-blend-mode: multiply;"><path d="M15,618.009900990099C127.5,618.009900990099,127.5,596.7013501385698,240,596.7013501385698" stroke-width="201.98019801980197"/><title>Visual Arts → Created
425</title></g><g stroke="rgb(255, 165, 0)" style="mix-blend-mode: multiply;"><path d="M255,115.27560756431231C367.5,115.27560756431231,367.5,116.32522188557391,480,116.32522188557391" stroke-width="83.16831683168317"/><title>Created → Submitted
175</title></g><g stroke="rgb(255, 0, 0)" style="mix-blend-mode: multiply;"><path d="M495,133.1965090142868C607.5,133.1965090142868,607.5,128.28250719904082,720,128.28250719904082" stroke-width="116.9108910891089"/><title>Submitted → Ineligible
246</title></g><g stroke="rgb(255, 0, 0)" style="mix-blend-mode: multiply;"><path d="M735,77.43102205052597C847.5,77.43102205052597,847.5,43.46626470569517,960,43.46626470569517" stroke-width="15.207920792079207"/><title>Ineligible →  Insufficent Experience
32</title></g><g stroke="rgb(255, 0, 0)" style="mix-blend-mode: multiply;"><path d="M735,89.54983393171408C847.5,89.54983393171408,847.5,65.58507658506946,960,65.58507658506946" stroke-width="9.029702970297029"/><title>Ineligible →  Professional
19</title></g><g stroke="rgb(255, 0, 0)" style="mix-blend-mode: multiply;"><path d="M735,98.5795369020111C847.5,98.5795369020111,847.5,84.61477955339454,960,84.61477955339454" stroke-width="9.029702970297029"/><title>Ineligible →  Existing Profile
19</title></g><g stroke="rgb(255, 0, 0)" style="mix-blend-mode: multiply;"><path d="M735,105.94587353567447C847.5,105.94587353567447,847.5,101.98111659603231,960,101.98111659603231" stroke-width="5.702970297029703"/><title>Ineligible →  Artistic CV
12</title></g><g stroke="rgb(255, 0, 0)" style="mix-blend-mode: multiply;"><path d="M735,109.9854774960705C847.5,109.9854774960705,847.5,116.02072055642833,960,116.02072055642833" stroke-width="2.376237623762376"/><title>Ineligible →  Student
5</title></g><g stroke="rgb(255, 0, 0)" style="mix-blend-mode: multiply;"><path d="M735,111.41122007032793C847.5,111.41122007032793,847.5,127.44646313068576,960,127.44646313068576" stroke-width="1"/><title>Ineligible →  Group
1</title></g><g stroke="rgb(255, 0, 0)" style="mix-blend-mode: multiply;"><path d="M735,111.8864675950804C847.5,111.8864675950804,847.5,137.92171065543823,960,137.92171065543823" stroke-width="1"/><title>Ineligible →  Not permanent resident
1</title></g><g stroke="rgb(255, 0, 0)" style="mix-blend-mode: multiply;"><path d="M735,112.36171511983288C847.5,112.36171511983288,847.5,148.39695818019072,960,148.39695818019072" stroke-width="1"/><title>Ineligible →  minor
1</title></g><g stroke="rgb(0, 128, 0)" style="mix-blend-mode: multiply;"><path d="M495,298.58264762814815C727.5,298.58264762814815,727.5,304.6483753811072,960,304.6483753811072" stroke-width="213.86138613861385"/><title>Submitted → Validated
450</title></g></g><g style="font: 10px sans-serif;"><text x="21" y="5.95049504950498" dy="0.35em" text-anchor="start">Circus Arts<tspan fill-opacity="0.7"> 4</tspan></text><text x="261" y="385.6914491484708" dy="0.35em" text-anchor="start">Created<tspan fill-opacity="0.7"> 1,313</tspan></text><text x="21" y="24.980198019801996" dy="0.35em" text-anchor="start">Dance<tspan fill-opacity="0.7"> 34</tspan></text><text x="21" y="45.673267326732685" dy="0.35em" text-anchor="start">Deaf and Disability Arts<tspan fill-opacity="0.7"> 11</tspan></text><text x="21" y="67.31683168316832" dy="0.35em" text-anchor="start">Digital Arts<tspan fill-opacity="0.7"> 38</tspan></text><text x="21" y="93" dy="0.35em" text-anchor="start">Inter-Arts<tspan fill-opacity="0.7"> 28</tspan></text><text x="21" y="169.53465346534648" dy="0.35em" text-anchor="start">Literature<tspan fill-opacity="0.7"> 252</tspan></text><text x="21" y="298.58415841584156" dy="0.35em" text-anchor="start">Media Arts<tspan fill-opacity="0.7"> 249</tspan></text><text x="21" y="406.24752475247533" dy="0.35em" text-anchor="start">Music and Sound<tspan fill-opacity="0.7"> 162</tspan></text><text x="21" y="480.88118811881196" dy="0.35em" text-anchor="start">Theatre<tspan fill-opacity="0.7"> 110</tspan></text><text x="21" y="618.009900990099" dy="0.35em" text-anchor="start">Visual Arts<tspan fill-opacity="0.7"> 425</tspan></text><text x="501" y="240.12720208359366" dy="0.35em" text-anchor="start">Submitted<tspan fill-opacity="0.7"> 696</tspan></text><text x="714" y="128.28250719904082" dy="0.35em" text-anchor="end">Ineligible<tspan fill-opacity="0.7"> 246</tspan></text><text x="954" y="43.46626470569517" dy="0.35em" text-anchor="end"> Insufficent Experience<tspan fill-opacity="0.7"> 32</tspan></text><text x="954" y="65.58507658506946" dy="0.35em" text-anchor="end"> Professional<tspan fill-opacity="0.7"> 19</tspan></text><text x="954" y="84.61477955339456" dy="0.35em" text-anchor="end"> Existing Profile<tspan fill-opacity="0.7"> 19</tspan></text><text x="954" y="101.98111659603231" dy="0.35em" text-anchor="end"> Artistic CV<tspan fill-opacity="0.7"> 12</tspan></text><text x="954" y="116.02072055642834" dy="0.35em" text-anchor="end"> Student<tspan fill-opacity="0.7"> 5</tspan></text><text x="954" y="127.44646313068576" dy="0.35em" text-anchor="end"> Group<tspan fill-opacity="0.7"> 1</tspan></text><text x="954" y="137.9217106554382" dy="0.35em" text-anchor="end"> Not permanent resident<tspan fill-opacity="0.7"> 1</tspan></text><text x="954" y="148.39695818019072" dy="0.35em" text-anchor="end"> minor<tspan fill-opacity="0.7"> 1</tspan></text><text x="954" y="304.64837538110726" dy="0.35em" text-anchor="end">Validated<tspan fill-opacity="0.7"> 450</tspan></text></g></svg>