<svg width="201" height="221" viewBox="0 0 201 221" fill="none" xmlns="http://www.w3.org/2000/svg">
<path d="M194.981 176.105C184.552 165.884 154.308 157.124 123.23 155.247C120.936 156.915 119.476 158.793 118.642 160.67C144.714 161.921 169.952 169.222 179.129 177.565C187.472 184.239 186.221 193.416 176.417 199.674C162.234 209.685 132.825 214.274 100.913 214.066C69.0003 214.274 39.591 209.685 25.4078 199.674C15.6047 193.416 14.3532 184.239 22.9049 177.565C32.2908 169.222 57.32 161.713 83.3921 160.67C82.5578 158.793 80.8892 157.124 78.8035 155.247C47.7255 157.124 17.6904 165.884 7.05303 176.105C-7.1302 189.036 4.13295 203.637 35.2109 212.814C52.5228 218.029 76.9262 220.949 100.913 220.949C124.899 220.949 149.302 218.029 166.614 212.814C197.692 203.637 209.164 189.036 194.981 176.105Z" fill="#009ADD" fill-opacity="0.4"/>
<path d="M178.295 70.5646C177.669 62.013 170.786 55.3386 162.443 52.2099C165.78 47.4126 166.406 42.1982 163.903 36.3581C159.94 27.1807 149.302 24.2606 142.837 24.6777C133.868 25.3035 128.445 29.0579 118.85 36.3581C116.556 34.6894 112.176 31.3523 110.09 29.6836C110.09 29.6836 116.556 24.2606 123.439 20.7148C129.905 17.169 134.285 16.7518 134.285 16.7518C134.285 16.7518 122.813 1.10857 100.704 0.899994C78.5949 1.10857 67.1231 16.7518 67.1231 16.7518C67.1231 16.7518 71.5032 17.169 77.9691 20.7148C84.8521 24.2606 91.318 29.6836 91.318 29.6836C89.4409 31.1437 84.8522 34.4809 82.5578 36.3581C72.9633 29.0579 67.5403 25.3035 58.5715 24.6777C52.1056 24.2606 41.4682 27.1807 37.5052 36.3581C35.0023 42.1982 35.628 47.4126 38.9652 52.2099C30.6222 55.3386 23.7391 62.013 23.1134 70.5646C22.4877 79.1163 27.4935 87.0422 36.4623 90.7966C33.9594 93.9253 32.7079 97.6796 32.7079 100.808C32.7079 109.151 40.2167 120.415 56.0685 119.997C67.9574 119.58 72.5461 116.034 81.9321 108.734C82.5578 109.569 89.6494 121.04 89.6494 140.855C89.6494 140.855 90.6923 156.081 83.1835 193.208C83.1835 195.294 90.9009 196.754 100.495 196.754C110.09 196.754 117.807 195.085 117.807 193.208C110.299 156.081 111.341 140.855 111.341 140.855C111.341 120.832 118.642 109.569 119.059 108.734C128.445 116.034 133.033 119.58 144.922 119.997C160.774 120.415 168.283 109.151 168.283 100.808C168.283 97.6796 167.031 94.1339 164.529 90.7966C173.914 87.0422 178.92 79.1163 178.295 70.5646ZM142.628 36.5666C150.971 36.1495 154.1 41.1553 153.474 44.4925C152.64 48.6641 147.425 51.7928 142.628 51.167C137.831 50.7499 134.285 48.2469 128.653 43.6582C132.408 40.7382 137.205 36.9838 142.628 36.5666ZM119.267 50.9584C121.979 53.0442 124.482 54.9214 126.568 56.3814C127.61 57.2158 128.653 58.0501 129.696 58.6758C128.236 59.7187 127.193 60.553 125.525 61.8045C124.273 62.6388 122.605 64.0988 120.727 65.3502C117.807 63.2645 114.47 60.553 110.507 57.6329C113.219 55.5472 115.93 53.2528 119.267 50.9584ZM109.673 43.6582C106.961 45.744 104.458 47.6212 101.121 50.3327C97.7839 47.8298 95.281 45.744 92.5695 43.6582C94.6553 41.9896 97.3668 39.9039 100.913 37.1924L101.121 36.9838L101.33 37.1924C104.876 39.9039 107.378 41.9896 109.673 43.6582ZM89.0237 14.6661C89.0237 14.6661 91.9438 11.3288 100.704 11.3288C109.464 11.3288 112.384 14.6661 112.384 14.6661C112.384 14.6661 110.09 15.9176 106.961 18.2119C102.79 21.132 100.913 22.8006 100.704 22.8006C100.495 22.592 98.6182 20.9234 94.4467 18.2119C91.318 15.9176 89.0237 14.6661 89.0237 14.6661ZM100.495 65.1417L100.913 64.7245L101.33 65.1417C104.458 67.6446 107.796 69.9389 111.341 72.6504C109.256 74.1105 107.587 75.362 106.127 76.6134C104.667 77.6563 102.998 78.9077 101.33 80.1592L101.121 80.3678L100.913 80.1592C99.2439 78.9077 97.5754 77.6563 96.1153 76.6134C94.6553 75.5705 92.9867 74.1105 90.9009 72.6504C94.0296 69.9389 97.3668 67.6446 100.495 65.1417ZM82.5578 50.9584C85.6865 53.2528 88.6065 55.5472 91.318 57.6329C87.3551 60.7616 83.8093 63.2645 80.8892 65.3502C79.2206 64.0988 77.3434 62.6388 76.0919 61.8045C74.4233 60.553 73.3804 59.7187 71.9204 58.6758C72.9633 58.0501 74.0062 57.2158 75.049 56.3814C77.3434 54.9214 80.0549 52.8356 82.5578 50.9584ZM59.1972 36.5666C64.6202 36.7752 69.4175 40.7382 73.1719 43.6582C67.3317 48.2469 63.7859 50.7499 59.1972 51.167C54.3999 51.7928 49.1855 48.6641 48.3512 44.4925C47.7255 41.1553 50.8541 36.1495 59.1972 36.5666ZM35.0023 72.859C34.7937 68.4789 37.9224 62.2216 49.6027 61.5959C57.5286 61.1787 62.9516 65.7674 71.7118 72.2333C64.8288 77.4477 59.4058 82.0364 49.3941 82.6621C41.4682 83.2879 35.2109 77.4477 35.0023 72.859ZM57.32 108.943C48.9769 109.36 43.9711 105.188 44.3883 100.6C44.5968 97.054 52.5228 88.7109 69.0003 96.011C71.2947 97.0539 73.1719 98.3054 75.049 99.7654C66.9145 106.023 63.7859 108.734 57.32 108.943ZM84.0179 93.091C80.8892 90.1709 77.552 87.668 73.1719 85.5822C75.8834 83.9136 78.3863 81.8278 81.0978 79.7421C81.3063 79.5335 81.3064 79.5335 81.3064 79.5335C85.0607 82.245 88.6065 84.9565 91.7352 87.2508C89.0237 89.3366 86.5208 91.2138 84.0179 93.091ZM101.121 124.378L100.913 125.42L100.704 124.378C98.6182 115.826 96.1153 108.317 92.3609 102.686C95.281 100.391 97.9925 98.3054 100.913 96.2196C103.624 98.3054 106.336 100.391 109.464 102.686C105.918 108.317 103.207 115.826 101.121 124.378ZM117.807 93.091C115.304 91.2138 112.801 89.3366 110.09 87.2508C113.219 84.9565 116.764 82.245 120.31 79.5335C120.519 79.5335 120.519 79.5335 120.519 79.7421C123.23 82.0364 125.733 83.9136 128.445 85.5822C124.273 87.668 120.936 90.1709 117.807 93.091ZM144.505 108.943C138.039 108.734 135.119 106.023 126.776 99.974C128.653 98.3054 130.53 97.2625 132.825 96.2196C149.302 88.7109 157.228 97.0539 157.437 100.808C157.854 105.188 152.848 109.36 144.505 108.943ZM152.431 82.8707C142.419 82.245 137.205 77.6563 130.113 72.4419C138.665 65.976 144.297 61.3873 152.222 61.8045C163.903 62.4302 167.031 68.6875 166.823 73.0676C166.614 77.4477 160.357 83.2879 152.431 82.8707Z" fill="#009ADD" fill-opacity="0.4"/>
</svg>
