<svg width="813" height="600" viewBox="0 0 813 600" fill="none" xmlns="http://www.w3.org/2000/svg">
<path d="M11.6667 20.6353H0.833344V595.637H11.6667V20.6353Z" fill="#B9B9B9"/>
<path d="M278.334 4.16669H267.501V30.0676H278.334V4.16669Z" fill="#B9B9B9"/>
<path d="M278.334 38.4008H267.501V46.459H278.334V38.4008Z" fill="#B9B9B9"/>
<path d="M278.334 54.7923H267.501V595.833H278.334V54.7923Z" fill="#B9B9B9"/>
<path d="M545.001 42.8653H534.168V175.248H545.001V42.8653Z" fill="#B9B9B9"/>
<path d="M545.001 183.581H534.168V229.627H545.001V183.581Z" fill="#B9B9B9"/>
<path d="M545.001 237.961H534.168V307.029H545.001V237.961Z" fill="#B9B9B9"/>
<path d="M545.001 315.485H534.168V557.226H545.001V315.485Z" fill="#B9B9B9"/>
<path d="M811.669 307.882H800.835V382.707H811.669V307.882Z" fill="#B9B9B9"/>
<path d="M811.669 391.04H800.835V454.354H811.669V391.04Z" fill="#B9B9B9"/>
<path d="M811.669 462.688H800.835V508.733H811.669V462.688Z" fill="#B9B9B9"/>
<g style="mix-blend-mode:multiply">
<g style="mix-blend-mode:multiply">
<path d="M12.5 33.5856C139.583 33.5856 139.583 17.1171 266.667 17.1171" stroke="#DDDDDD" stroke-width="26.08"/>
</g>
</g>
<g style="mix-blend-mode:multiply">
<g style="mix-blend-mode:multiply">
<path d="M12.5 50.5652C139.583 50.5652 139.583 42.4299 266.667 42.4299" stroke="#DDDDDD" stroke-width="7.67"/>
</g>
</g>
<g style="mix-blend-mode:multiply">
<g style="mix-blend-mode:multiply">
<path d="M12.5 325.114C139.583 325.114 139.583 325.313 266.667 325.313" stroke="#009ADD" stroke-width="541.25"/>
</g>
</g>
<g style="mix-blend-mode:multiply">
<g style="mix-blend-mode:multiply">
<path d="M279.167 120.983C406.251 120.983 406.251 109.056 533.334 109.056" stroke="#F55861" stroke-width="131.86"/>
</g>
</g>
<g style="mix-blend-mode:multiply">
<g style="mix-blend-mode:multiply">
<path d="M279.167 210.198C406.251 210.198 406.251 206.604 533.334 206.604" stroke="#F55861" stroke-width="46.26"/>
</g>
</g>
<g style="mix-blend-mode:multiply">
<g style="mix-blend-mode:multiply">
<path d="M279.167 267.755C406.251 267.755 406.251 272.495 533.334 272.495" stroke="#F55861" stroke-width="68.88"/>
</g>
</g>
<g style="mix-blend-mode:multiply">
<g style="mix-blend-mode:multiply">
<path d="M279.167 423.161C406.251 423.161 406.251 436.355 533.334 436.355" stroke="#090809" stroke-width="242.09"/>
</g>
</g>
<g style="mix-blend-mode:multiply">
<g style="mix-blend-mode:multiply">
<path d="M545.835 352.897C672.918 352.897 672.918 345.294 800.002 345.294" stroke="#F40000" stroke-width="74.79"/>
</g>
</g>
<g style="mix-blend-mode:multiply">
<g style="mix-blend-mode:multiply">
<path d="M545.835 421.966C672.918 421.966 672.918 422.697 800.002 422.697" stroke="#F40000" stroke-width="62.98"/>
</g>
</g>
<g style="mix-blend-mode:multiply">
<g style="mix-blend-mode:multiply">
<path d="M545.835 476.646C672.918 476.646 672.918 485.709 800.002 485.709" stroke="#F40000" stroke-width="46.26"/>
</g>
</g>
<path d="M18.6401 312.135H20.3501V304.92L25.1051 312.135H26.5751V301.635H24.8801V308.64L20.2601 301.635H18.6401V312.135ZM28.85 312.135H35.54V310.56H30.575V307.635H34.91V306.06H30.575V303.21H35.465V301.635H28.85V312.135ZM41.5465 312.285C43.0015 312.285 44.0665 311.745 44.9815 310.8L43.9615 309.57C43.3015 310.2 42.6415 310.665 41.6365 310.665C39.9865 310.665 38.7415 309.18 38.7415 306.9V306.84C38.7415 304.605 39.9865 303.105 41.6365 303.105C42.5815 303.105 43.2715 303.555 43.8865 304.125L44.9365 302.79C44.0815 302.01 43.1065 301.485 41.6365 301.485C38.9215 301.485 36.9415 303.66 36.9415 306.84V306.945C36.9415 310.155 38.8615 312.285 41.5465 312.285ZM45.8093 312.135H47.5643L48.4343 309.66H52.5143L53.3843 312.135H55.1993L51.3443 301.575H49.6643L45.8093 312.135ZM48.9743 308.115L50.4743 303.9L51.9743 308.115H48.9743ZM56.6967 312.135H58.4367V308.73H59.9517C62.1267 308.7 63.8367 307.485 63.8367 305.16V305.13C63.8367 302.955 62.3517 301.635 60.0567 301.635H56.6967V312.135ZM58.4367 307.155V303.225H59.9517C61.2867 303.225 62.0667 303.915 62.0667 305.175V305.19C62.0667 306.36 61.2867 307.155 59.9517 307.155H58.4367Z" fill="white"/>
<path d="M285.307 21.1171H287.047V16.6471H291.172V21.1171H292.912V10.6171H291.172V15.0271H287.047V10.6171H285.307V21.1171ZM298.285 21.2821C300.4 21.2821 301.96 19.5571 301.96 17.2171V17.0821C301.96 14.7271 300.415 13.0171 298.315 13.0171C296.2 13.0171 294.64 14.7571 294.64 17.0971V17.2321C294.64 19.5871 296.185 21.2821 298.285 21.2821ZM298.315 19.7971C297.16 19.7971 296.335 18.6721 296.335 17.1871V17.0971C296.335 15.6121 297.1 14.5171 298.285 14.5171C299.44 14.5171 300.265 15.6271 300.265 17.1121V17.2021C300.265 18.6871 299.5 19.7971 298.315 19.7971ZM303.526 21.1171H305.221V16.3171C305.221 15.2221 305.806 14.5471 306.661 14.5471C307.501 14.5471 307.996 15.1471 307.996 16.2721V21.1171H309.691V16.3021C309.691 15.1771 310.291 14.5471 311.116 14.5471C311.986 14.5471 312.466 15.1471 312.466 16.2871V21.1171H314.161V15.7921C314.161 13.9921 313.201 13.0171 311.731 13.0171C310.666 13.0171 309.946 13.5721 309.406 14.2921C309.031 13.5121 308.326 13.0171 307.351 13.0171C306.301 13.0171 305.686 13.6171 305.221 14.3221V13.1671H303.526V21.1171ZM319.305 21.2821C320.49 21.2821 321.375 20.8171 322.095 20.0521L321.21 19.0021C320.685 19.5121 320.13 19.8421 319.38 19.8421C318.345 19.8421 317.52 19.1221 317.37 17.7871H322.35C322.365 17.5471 322.365 17.3071 322.365 17.2021C322.365 14.8171 321.225 13.0171 319.065 13.0171C317.115 13.0171 315.675 14.7271 315.675 17.1121V17.2321C315.675 19.7221 317.265 21.2821 319.305 21.2821ZM317.355 16.6171C317.475 15.2671 318.135 14.4421 319.065 14.4421C320.055 14.4421 320.625 15.3571 320.715 16.6171H317.355Z" fill="white"/>
<path d="M288.352 46.565C290.317 46.565 291.757 45.38 291.757 43.535V43.505C291.757 41.975 290.857 41.165 288.907 40.415C287.122 39.725 286.732 39.335 286.732 38.6V38.585C286.732 37.895 287.317 37.37 288.262 37.37C289.102 37.37 289.897 37.775 290.617 38.36L291.607 37.025C290.647 36.185 289.522 35.795 288.307 35.795C286.357 35.795 284.977 37.01 284.977 38.735V38.765C284.977 40.445 286.012 41.18 288.007 41.93C289.672 42.545 290.017 42.98 290.017 43.64V43.655C290.017 44.435 289.372 44.99 288.367 44.99C287.257 44.99 286.387 44.45 285.607 43.745L284.557 45.05C285.697 46.1 287.002 46.565 288.352 46.565ZM293.36 48.695H295.055V45.23C295.535 45.935 296.225 46.58 297.38 46.58C298.985 46.58 300.47 45.23 300.47 42.56V42.35C300.47 39.665 298.97 38.33 297.38 38.33C296.24 38.33 295.55 38.99 295.055 39.755V38.48H293.36V48.695ZM296.915 45.08C295.895 45.08 295.025 44.09 295.025 42.53V42.38C295.025 40.82 295.895 39.83 296.915 39.83C297.935 39.83 298.76 40.805 298.76 42.395V42.53C298.76 44.12 297.95 45.08 296.915 45.08ZM305.346 46.595C307.461 46.595 309.021 44.87 309.021 42.53V42.395C309.021 40.04 307.476 38.33 305.376 38.33C303.261 38.33 301.701 40.07 301.701 42.41V42.545C301.701 44.9 303.246 46.595 305.346 46.595ZM305.376 45.11C304.221 45.11 303.396 43.985 303.396 42.5V42.41C303.396 40.925 304.161 39.83 305.346 39.83C306.501 39.83 307.326 40.94 307.326 42.425V42.515C307.326 44 306.561 45.11 305.376 45.11ZM312.971 46.55C313.541 46.55 313.991 46.415 314.381 46.205V44.81C314.096 44.96 313.796 45.035 313.466 45.035C312.926 45.035 312.611 44.78 312.611 44.165V39.935H314.396V38.48H312.611V36.335H310.916V38.48H310.046V39.935H310.916V44.51C310.916 46.055 311.801 46.55 312.971 46.55ZM316.023 46.43H317.718V35.6H316.023V46.43ZM319.757 37.325H321.557V35.66H319.757V37.325ZM319.817 46.43H321.512V38.48H319.817V46.43ZM326.536 48.725C327.796 48.725 328.771 48.425 329.401 47.78C329.986 47.195 330.301 46.325 330.301 45.14V38.48H328.606V39.665C328.096 38.96 327.391 38.33 326.221 38.33C324.646 38.33 323.191 39.605 323.191 42.065V42.125C323.191 44.57 324.631 45.845 326.221 45.845C327.376 45.845 328.066 45.23 328.621 44.45V45.215C328.621 46.625 327.856 47.315 326.461 47.315C325.606 47.315 324.766 47.06 324.076 46.64L323.521 47.975C324.436 48.47 325.441 48.725 326.536 48.725ZM326.731 44.375C325.711 44.375 324.901 43.505 324.901 42.095V42.08C324.901 40.67 325.696 39.815 326.731 39.815C327.751 39.815 328.636 40.685 328.636 42.08V42.11C328.636 43.49 327.751 44.375 326.731 44.375ZM332.222 46.43H333.917V41.615C333.917 40.52 334.532 39.86 335.417 39.86C336.317 39.86 336.842 40.475 336.842 41.585V46.43H338.537V41.105C338.537 39.41 337.622 38.33 336.092 38.33C335.012 38.33 334.367 38.945 333.917 39.65V35.6H332.222V46.43ZM342.737 46.55C343.307 46.55 343.757 46.415 344.147 46.205V44.81C343.862 44.96 343.562 45.035 343.232 45.035C342.692 45.035 342.377 44.78 342.377 44.165V39.935H344.162V38.48H342.377V36.335H340.682V38.48H339.812V39.935H340.682V44.51C340.682 46.055 341.567 46.55 342.737 46.55Z" fill="white" fill-opacity="0.7"/>
<path d="M289.717 329.463C291.202 329.463 292.417 328.893 293.302 328.188V323.478H289.447V325.008H291.652V327.318C291.187 327.648 290.527 327.873 289.792 327.873C288.007 327.873 286.717 326.463 286.717 324.093V324.003C286.717 321.828 287.992 320.283 289.702 320.283C290.767 320.283 291.427 320.688 292.027 321.228L293.062 319.848C292.132 319.068 291.157 318.663 289.732 318.663C286.912 318.663 284.917 320.928 284.917 324.018V324.138C284.917 327.363 286.867 329.463 289.717 329.463ZM295.176 329.313H296.871V325.803C296.871 323.988 297.801 323.088 299.181 323.088H299.256V321.243C298.056 321.183 297.291 321.888 296.871 322.923V321.363H295.176V329.313ZM302.239 329.463C303.274 329.463 303.979 329.013 304.444 328.338V329.313H306.109V324.378C306.109 323.388 305.839 322.608 305.314 322.083C304.804 321.558 304.009 321.273 302.974 321.273C301.909 321.273 301.114 321.528 300.349 321.903L300.829 323.253C301.354 323.013 301.984 322.773 302.749 322.773C303.829 322.773 304.459 323.328 304.459 324.393V324.723C303.919 324.543 303.379 324.408 302.629 324.408C300.949 324.408 299.809 325.248 299.809 326.958V327.033C299.809 328.578 300.919 329.463 302.239 329.463ZM302.749 328.188C302.014 328.173 301.459 327.723 301.459 326.928V326.898C301.459 326.058 302.029 325.563 303.004 325.563C303.574 325.563 304.084 325.683 304.474 325.848V326.643C304.474 327.543 303.724 328.203 302.749 328.188ZM307.935 329.313H309.63V324.498C309.63 323.403 310.245 322.743 311.13 322.743C312.03 322.743 312.555 323.358 312.555 324.468V329.313H314.25V323.988C314.25 322.293 313.335 321.213 311.805 321.213C310.725 321.213 310.08 321.828 309.63 322.533V321.363H307.935V329.313ZM318.45 329.433C319.02 329.433 319.47 329.298 319.86 329.088V327.693C319.575 327.843 319.275 327.918 318.945 327.918C318.405 327.918 318.09 327.663 318.09 327.048V322.818H319.875V321.363H318.09V319.218H316.395V321.363H315.525V322.818H316.395V327.393C316.395 328.938 317.28 329.433 318.45 329.433ZM323.706 329.463C325.236 329.463 326.421 328.608 326.421 327.048V327.033C326.421 325.788 325.491 325.218 324.261 324.663C323.331 324.243 322.701 323.973 322.701 323.448V323.418C322.701 322.983 323.076 322.638 323.706 322.638C324.336 322.638 324.996 322.938 325.596 323.343L326.316 322.098C325.566 321.558 324.621 321.243 323.736 321.243C322.251 321.243 321.111 322.143 321.111 323.568V323.598C321.111 324.903 322.101 325.443 323.286 325.953C324.231 326.358 324.846 326.613 324.846 327.183V327.198C324.846 327.693 324.441 328.068 323.736 328.068C323.031 328.068 322.266 327.723 321.546 327.138L320.751 328.353C321.666 329.118 322.761 329.463 323.706 329.463Z" fill="white"/>
<path d="M495.315 113.207C496.8 113.207 498.015 112.637 498.9 111.932V107.222H495.045V108.752H497.25V111.062C496.785 111.392 496.125 111.617 495.39 111.617C493.605 111.617 492.315 110.207 492.315 107.837V107.747C492.315 105.572 493.59 104.027 495.3 104.027C496.365 104.027 497.025 104.432 497.625 104.972L498.66 103.592C497.73 102.812 496.755 102.407 495.33 102.407C492.51 102.407 490.515 104.672 490.515 107.762V107.882C490.515 111.107 492.465 113.207 495.315 113.207ZM503.144 113.207C504.224 113.207 504.854 112.607 505.304 111.902V113.057H507.014V105.107H505.304V109.922C505.304 111.017 504.689 111.677 503.804 111.677C502.919 111.677 502.394 111.062 502.394 109.952V105.107H500.699V110.432C500.699 112.142 501.599 113.207 503.144 113.207ZM508.963 103.952H510.763V102.287H508.963V103.952ZM509.023 113.057H510.718V105.107H509.023V113.057ZM515.487 113.207C516.627 113.207 517.317 112.547 517.812 111.782V113.057H519.507V102.227H517.812V106.307C517.332 105.617 516.642 104.957 515.487 104.957C513.882 104.957 512.397 106.307 512.397 108.992V109.187C512.397 111.872 513.897 113.207 515.487 113.207ZM515.952 111.707C514.932 111.707 514.107 110.732 514.107 109.142V109.022C514.107 107.417 514.917 106.457 515.952 106.457C516.972 106.457 517.842 107.447 517.842 109.007V109.157C517.842 110.717 516.972 111.707 515.952 111.707ZM524.699 113.222C525.884 113.222 526.769 112.757 527.489 111.992L526.604 110.942C526.079 111.452 525.524 111.782 524.774 111.782C523.739 111.782 522.914 111.062 522.764 109.727H527.744C527.759 109.487 527.759 109.247 527.759 109.142C527.759 106.757 526.619 104.957 524.459 104.957C522.509 104.957 521.069 106.667 521.069 109.052V109.172C521.069 111.662 522.659 113.222 524.699 113.222ZM522.749 108.557C522.869 107.207 523.529 106.382 524.459 106.382C525.449 106.382 526.019 107.297 526.109 108.557H522.749Z" fill="white"/>
<path d="M501.745 210.604H503.485V206.254H507.775V204.664H503.485V201.709H508.33V200.104H501.745V210.604ZM508.29 210.604H510.045L510.915 208.129H514.995L515.865 210.604H517.68L513.825 200.044H512.145L508.29 210.604ZM511.455 206.584L512.955 202.369L514.455 206.584H511.455ZM527.755 209.734L526.615 208.744C527.215 207.844 527.56 206.704 527.56 205.414V205.264C527.56 202.159 525.655 199.939 522.925 199.939C520.18 199.939 518.26 202.174 518.26 205.294V205.444C518.26 208.549 520.165 210.769 522.91 210.769C523.915 210.769 524.83 210.439 525.58 209.869L526.69 210.904L527.755 209.734ZM522.955 209.179C521.275 209.179 520.06 207.724 520.06 205.414V205.279C520.06 203.014 521.245 201.544 522.895 201.544C524.56 201.544 525.76 203.044 525.76 205.294V205.429C525.76 206.284 525.61 207.004 525.34 207.589L523.885 206.194L522.82 207.364L524.38 208.759C523.975 209.044 523.495 209.179 522.955 209.179Z" fill="white"/>
<path d="M465.037 276.495H468.247C471.247 276.495 473.227 274.365 473.227 271.29V271.17C473.227 268.095 471.247 265.995 468.247 265.995H465.037V276.495ZM468.232 267.57C470.152 267.57 471.427 268.95 471.427 271.215V271.305C471.427 273.555 470.152 274.92 468.232 274.92H466.777V267.57H468.232ZM478.205 276.66C479.39 276.66 480.275 276.195 480.995 275.43L480.11 274.38C479.585 274.89 479.03 275.22 478.28 275.22C477.245 275.22 476.42 274.5 476.27 273.165H481.25C481.265 272.925 481.265 272.685 481.265 272.58C481.265 270.195 480.125 268.395 477.965 268.395C476.015 268.395 474.575 270.105 474.575 272.49V272.61C474.575 275.1 476.165 276.66 478.205 276.66ZM476.255 271.995C476.375 270.645 477.035 269.82 477.965 269.82C478.955 269.82 479.525 270.735 479.615 271.995H476.255ZM484.781 276.645C485.816 276.645 486.521 276.195 486.986 275.52V276.495H488.651V271.56C488.651 270.57 488.381 269.79 487.856 269.265C487.346 268.74 486.551 268.455 485.516 268.455C484.451 268.455 483.656 268.71 482.891 269.085L483.371 270.435C483.896 270.195 484.526 269.955 485.291 269.955C486.371 269.955 487.001 270.51 487.001 271.575V271.905C486.461 271.725 485.921 271.59 485.171 271.59C483.491 271.59 482.351 272.43 482.351 274.14V274.215C482.351 275.76 483.461 276.645 484.781 276.645ZM485.291 275.37C484.556 275.355 484.001 274.905 484.001 274.11V274.08C484.001 273.24 484.571 272.745 485.546 272.745C486.116 272.745 486.626 272.865 487.016 273.03V273.825C487.016 274.725 486.266 275.385 485.291 275.37ZM493.237 276.645C494.377 276.645 495.067 275.985 495.562 275.22V276.495H497.257V265.665H495.562V269.745C495.082 269.055 494.392 268.395 493.237 268.395C491.632 268.395 490.147 269.745 490.147 272.43V272.625C490.147 275.31 491.647 276.645 493.237 276.645ZM493.702 275.145C492.682 275.145 491.857 274.17 491.857 272.58V272.46C491.857 270.855 492.667 269.895 493.702 269.895C494.722 269.895 495.592 270.885 495.592 272.445V272.595C495.592 274.155 494.722 275.145 493.702 275.145ZM499.268 276.495H500.963V265.665H499.268V276.495ZM503.002 267.39H504.802V265.725H503.002V267.39ZM503.062 276.495H504.757V268.545H503.062V276.495ZM506.766 276.495H508.461V271.68C508.461 270.585 509.076 269.925 509.961 269.925C510.861 269.925 511.386 270.54 511.386 271.65V276.495H513.081V271.17C513.081 269.475 512.166 268.395 510.636 268.395C509.556 268.395 508.911 269.01 508.461 269.715V268.545H506.766V276.495ZM518.195 276.66C519.38 276.66 520.265 276.195 520.985 275.43L520.1 274.38C519.575 274.89 519.02 275.22 518.27 275.22C517.235 275.22 516.41 274.5 516.26 273.165H521.24C521.255 272.925 521.255 272.685 521.255 272.58C521.255 270.195 520.115 268.395 517.955 268.395C516.005 268.395 514.565 270.105 514.565 272.49V272.61C514.565 275.1 516.155 276.66 518.195 276.66ZM516.245 271.995C516.365 270.645 517.025 269.82 517.955 269.82C518.945 269.82 519.515 270.735 519.605 271.995H516.245ZM525.086 276.645C526.616 276.645 527.801 275.79 527.801 274.23V274.215C527.801 272.97 526.871 272.4 525.641 271.845C524.711 271.425 524.081 271.155 524.081 270.63V270.6C524.081 270.165 524.456 269.82 525.086 269.82C525.716 269.82 526.376 270.12 526.976 270.525L527.696 269.28C526.946 268.74 526.001 268.425 525.116 268.425C523.631 268.425 522.491 269.325 522.491 270.75V270.78C522.491 272.085 523.481 272.625 524.666 273.135C525.611 273.54 526.226 273.795 526.226 274.365V274.38C526.226 274.875 525.821 275.25 525.116 275.25C524.411 275.25 523.646 274.905 522.926 274.32L522.131 275.535C523.046 276.3 524.141 276.645 525.086 276.645Z" fill="white"/>
<path d="M404.143 440.355H410.833V438.78H405.868V435.855H410.203V434.28H405.868V431.43H410.758V429.855H404.143V440.355ZM413.823 432.405H411.993L414.363 436.29L411.903 440.355H413.688L415.323 437.52L416.943 440.355H418.773L416.283 436.29L418.668 432.405H416.883L415.338 435.075L413.823 432.405ZM420.106 442.62H421.801V439.155C422.281 439.86 422.971 440.505 424.126 440.505C425.731 440.505 427.216 439.155 427.216 436.485V436.275C427.216 433.59 425.716 432.255 424.126 432.255C422.986 432.255 422.296 432.915 421.801 433.68V432.405H420.106V442.62ZM423.661 439.005C422.641 439.005 421.771 438.015 421.771 436.455V436.305C421.771 434.745 422.641 433.755 423.661 433.755C424.681 433.755 425.506 434.73 425.506 436.32V436.455C425.506 438.045 424.696 439.005 423.661 439.005ZM428.897 440.355H430.592V429.525H428.897V440.355ZM435.886 440.52C438.001 440.52 439.561 438.795 439.561 436.455V436.32C439.561 433.965 438.016 432.255 435.916 432.255C433.801 432.255 432.241 433.995 432.241 436.335V436.47C432.241 438.825 433.786 440.52 435.886 440.52ZM435.916 439.035C434.761 439.035 433.936 437.91 433.936 436.425V436.335C433.936 434.85 434.701 433.755 435.886 433.755C437.041 433.755 437.866 434.865 437.866 436.35V436.44C437.866 437.925 437.101 439.035 435.916 439.035ZM441.126 440.355H442.821V436.845C442.821 435.03 443.751 434.13 445.131 434.13H445.206V432.285C444.006 432.225 443.241 432.93 442.821 433.965V432.405H441.126V440.355ZM449.552 440.52C450.737 440.52 451.622 440.055 452.342 439.29L451.457 438.24C450.932 438.75 450.377 439.08 449.627 439.08C448.592 439.08 447.767 438.36 447.617 437.025H452.597C452.612 436.785 452.612 436.545 452.612 436.44C452.612 434.055 451.472 432.255 449.312 432.255C447.362 432.255 445.922 433.965 445.922 436.35V436.47C445.922 438.96 447.512 440.52 449.552 440.52ZM447.602 435.855C447.722 434.505 448.382 433.68 449.312 433.68C450.302 433.68 450.872 434.595 450.962 435.855H447.602ZM459.996 440.505C461.031 440.505 461.736 440.055 462.201 439.38V440.355H463.866V435.42C463.866 434.43 463.596 433.65 463.071 433.125C462.561 432.6 461.766 432.315 460.731 432.315C459.666 432.315 458.871 432.57 458.106 432.945L458.586 434.295C459.111 434.055 459.741 433.815 460.506 433.815C461.586 433.815 462.216 434.37 462.216 435.435V435.765C461.676 435.585 461.136 435.45 460.386 435.45C458.706 435.45 457.566 436.29 457.566 438V438.075C457.566 439.62 458.676 440.505 459.996 440.505ZM460.506 439.23C459.771 439.215 459.216 438.765 459.216 437.97V437.94C459.216 437.1 459.786 436.605 460.761 436.605C461.331 436.605 461.841 436.725 462.231 436.89V437.685C462.231 438.585 461.481 439.245 460.506 439.23ZM465.692 440.355H467.387V435.54C467.387 434.445 468.002 433.785 468.887 433.785C469.787 433.785 470.312 434.4 470.312 435.51V440.355H472.007V435.03C472.007 433.335 471.092 432.255 469.562 432.255C468.482 432.255 467.837 432.87 467.387 433.575V432.405H465.692V440.355ZM476.611 440.505C477.751 440.505 478.441 439.845 478.936 439.08V440.355H480.631V429.525H478.936V433.605C478.456 432.915 477.766 432.255 476.611 432.255C475.006 432.255 473.521 433.605 473.521 436.29V436.485C473.521 439.17 475.021 440.505 476.611 440.505ZM477.076 439.005C476.056 439.005 475.231 438.03 475.231 436.44V436.32C475.231 434.715 476.041 433.755 477.076 433.755C478.096 433.755 478.966 434.745 478.966 436.305V436.455C478.966 438.015 478.096 439.005 477.076 439.005ZM490.814 440.505C492.269 440.505 493.334 439.965 494.249 439.02L493.229 437.79C492.569 438.42 491.909 438.885 490.904 438.885C489.254 438.885 488.009 437.4 488.009 435.12V435.06C488.009 432.825 489.254 431.325 490.904 431.325C491.849 431.325 492.539 431.775 493.154 432.345L494.204 431.01C493.349 430.23 492.374 429.705 490.904 429.705C488.189 429.705 486.209 431.88 486.209 435.06V435.165C486.209 438.375 488.129 440.505 490.814 440.505ZM495.648 440.355H497.343V436.845C497.343 435.03 498.273 434.13 499.653 434.13H499.728V432.285C498.528 432.225 497.763 432.93 497.343 433.965V432.405H495.648V440.355ZM504.074 440.52C505.259 440.52 506.144 440.055 506.864 439.29L505.979 438.24C505.454 438.75 504.899 439.08 504.149 439.08C503.114 439.08 502.289 438.36 502.139 437.025H507.119C507.134 436.785 507.134 436.545 507.134 436.44C507.134 434.055 505.994 432.255 503.834 432.255C501.884 432.255 500.444 433.965 500.444 436.35V436.47C500.444 438.96 502.034 440.52 504.074 440.52ZM502.124 435.855C502.244 434.505 502.904 433.68 503.834 433.68C504.824 433.68 505.394 434.595 505.484 435.855H502.124ZM510.65 440.505C511.685 440.505 512.39 440.055 512.855 439.38V440.355H514.52V435.42C514.52 434.43 514.25 433.65 513.725 433.125C513.215 432.6 512.42 432.315 511.385 432.315C510.32 432.315 509.525 432.57 508.76 432.945L509.24 434.295C509.765 434.055 510.395 433.815 511.16 433.815C512.24 433.815 512.87 434.37 512.87 435.435V435.765C512.33 435.585 511.79 435.45 511.04 435.45C509.36 435.45 508.22 436.29 508.22 438V438.075C508.22 439.62 509.33 440.505 510.65 440.505ZM511.16 439.23C510.425 439.215 509.87 438.765 509.87 437.97V437.94C509.87 437.1 510.44 436.605 511.415 436.605C511.985 436.605 512.495 436.725 512.885 436.89V437.685C512.885 438.585 512.135 439.245 511.16 439.23ZM518.658 440.475C519.228 440.475 519.678 440.34 520.068 440.13V438.735C519.783 438.885 519.483 438.96 519.153 438.96C518.613 438.96 518.298 438.705 518.298 438.09V433.86H520.083V432.405H518.298V430.26H516.603V432.405H515.733V433.86H516.603V438.435C516.603 439.98 517.488 440.475 518.658 440.475ZM524.699 440.52C525.884 440.52 526.769 440.055 527.489 439.29L526.604 438.24C526.079 438.75 525.524 439.08 524.774 439.08C523.739 439.08 522.914 438.36 522.764 437.025H527.744C527.759 436.785 527.759 436.545 527.759 436.44C527.759 434.055 526.619 432.255 524.459 432.255C522.509 432.255 521.069 433.965 521.069 436.35V436.47C521.069 438.96 522.659 440.52 524.699 440.52ZM522.749 435.855C522.869 434.505 523.529 433.68 524.459 433.68C525.449 433.68 526.019 434.595 526.109 435.855H522.749Z" fill="white"/>
<path d="M648.53 349.294H650.27V345.589H651.95C651.98 345.589 652.025 345.589 652.055 345.574L654.29 349.294H656.3L653.825 345.229C655.1 344.779 656 343.774 656 342.154V342.094C656 341.134 655.685 340.339 655.13 339.784C654.5 339.154 653.525 338.794 652.325 338.794H648.53V349.294ZM650.27 344.029V340.384H652.175C653.48 340.384 654.245 340.999 654.245 342.184V342.214C654.245 343.309 653.495 344.029 652.145 344.029H650.27ZM660.834 349.459C662.019 349.459 662.904 348.994 663.624 348.229L662.739 347.179C662.214 347.689 661.659 348.019 660.909 348.019C659.874 348.019 659.049 347.299 658.899 345.964H663.879C663.894 345.724 663.894 345.484 663.894 345.379C663.894 342.994 662.754 341.194 660.594 341.194C658.644 341.194 657.204 342.904 657.204 345.289V345.409C657.204 347.899 658.794 349.459 660.834 349.459ZM658.884 344.794C659.004 343.444 659.664 342.619 660.594 342.619C661.584 342.619 662.154 343.534 662.244 344.794H658.884ZM667.725 349.444C669.255 349.444 670.44 348.589 670.44 347.029V347.014C670.44 345.769 669.51 345.199 668.28 344.644C667.35 344.224 666.72 343.954 666.72 343.429V343.399C666.72 342.964 667.095 342.619 667.725 342.619C668.355 342.619 669.015 342.919 669.615 343.324L670.335 342.079C669.585 341.539 668.64 341.224 667.755 341.224C666.27 341.224 665.13 342.124 665.13 343.549V343.579C665.13 344.884 666.12 345.424 667.305 345.934C668.25 346.339 668.865 346.594 668.865 347.164V347.179C668.865 347.674 668.46 348.049 667.755 348.049C667.05 348.049 666.285 347.704 665.565 347.119L664.77 348.334C665.685 349.099 666.78 349.444 667.725 349.444ZM675.204 349.459C676.389 349.459 677.274 348.994 677.994 348.229L677.109 347.179C676.584 347.689 676.029 348.019 675.279 348.019C674.244 348.019 673.419 347.299 673.269 345.964H678.249C678.264 345.724 678.264 345.484 678.264 345.379C678.264 342.994 677.124 341.194 674.964 341.194C673.014 341.194 671.574 342.904 671.574 345.289V345.409C671.574 347.899 673.164 349.459 675.204 349.459ZM673.254 344.794C673.374 343.444 674.034 342.619 674.964 342.619C675.954 342.619 676.524 343.534 676.614 344.794H673.254ZM681.78 349.444C682.815 349.444 683.52 348.994 683.985 348.319V349.294H685.65V344.359C685.65 343.369 685.38 342.589 684.855 342.064C684.345 341.539 683.55 341.254 682.515 341.254C681.45 341.254 680.655 341.509 679.89 341.884L680.37 343.234C680.895 342.994 681.525 342.754 682.29 342.754C683.37 342.754 684 343.309 684 344.374V344.704C683.46 344.524 682.92 344.389 682.17 344.389C680.49 344.389 679.35 345.229 679.35 346.939V347.014C679.35 348.559 680.46 349.444 681.78 349.444ZM682.29 348.169C681.555 348.154 681 347.704 681 346.909V346.879C681 346.039 681.57 345.544 682.545 345.544C683.115 345.544 683.625 345.664 684.015 345.829V346.624C684.015 347.524 683.265 348.184 682.29 348.169ZM687.476 349.294H689.171V345.784C689.171 343.969 690.101 343.069 691.481 343.069H691.556V341.224C690.356 341.164 689.591 341.869 689.171 342.904V341.344H687.476V349.294ZM695.842 349.459C697.057 349.459 697.852 348.964 698.482 348.259L697.567 347.134C697.102 347.599 696.637 347.944 695.947 347.944C694.792 347.944 693.982 346.909 693.982 345.364V345.289C693.982 343.789 694.792 342.724 695.902 342.724C696.622 342.724 697.087 343.084 697.507 343.519L698.452 342.274C697.792 341.614 697.042 341.194 695.902 341.194C693.817 341.194 692.272 342.904 692.272 345.274V345.424C692.272 347.794 693.772 349.459 695.842 349.459ZM699.854 349.294H701.549V344.479C701.549 343.384 702.164 342.724 703.049 342.724C703.949 342.724 704.474 343.339 704.474 344.449V349.294H706.169V343.969C706.169 342.274 705.254 341.194 703.724 341.194C702.644 341.194 701.999 341.809 701.549 342.514V338.464H699.854V349.294ZM713.86 349.444C714.895 349.444 715.6 348.994 716.065 348.319V349.294H717.73V344.359C717.73 343.369 717.46 342.589 716.935 342.064C716.425 341.539 715.63 341.254 714.595 341.254C713.53 341.254 712.735 341.509 711.97 341.884L712.45 343.234C712.975 342.994 713.605 342.754 714.37 342.754C715.45 342.754 716.08 343.309 716.08 344.374V344.704C715.54 344.524 715 344.389 714.25 344.389C712.57 344.389 711.43 345.229 711.43 346.939V347.014C711.43 348.559 712.54 349.444 713.86 349.444ZM714.37 348.169C713.635 348.154 713.08 347.704 713.08 346.909V346.879C713.08 346.039 713.65 345.544 714.625 345.544C715.195 345.544 715.705 345.664 716.095 345.829V346.624C716.095 347.524 715.345 348.184 714.37 348.169ZM719.556 349.294H721.251V344.479C721.251 343.384 721.866 342.724 722.751 342.724C723.651 342.724 724.176 343.339 724.176 344.449V349.294H725.871V343.969C725.871 342.274 724.956 341.194 723.426 341.194C722.346 341.194 721.701 341.809 721.251 342.514V341.344H719.556V349.294ZM730.475 349.444C731.615 349.444 732.305 348.784 732.8 348.019V349.294H734.495V338.464H732.8V342.544C732.32 341.854 731.63 341.194 730.475 341.194C728.87 341.194 727.385 342.544 727.385 345.229V345.424C727.385 348.109 728.885 349.444 730.475 349.444ZM730.94 347.944C729.92 347.944 729.095 346.969 729.095 345.379V345.259C729.095 343.654 729.905 342.694 730.94 342.694C731.96 342.694 732.83 343.684 732.83 345.244V345.394C732.83 346.954 731.96 347.944 730.94 347.944ZM744.678 349.444C746.133 349.444 747.198 348.904 748.113 347.959L747.093 346.729C746.433 347.359 745.773 347.824 744.768 347.824C743.118 347.824 741.873 346.339 741.873 344.059V343.999C741.873 341.764 743.118 340.264 744.768 340.264C745.713 340.264 746.403 340.714 747.018 341.284L748.068 339.949C747.213 339.169 746.238 338.644 744.768 338.644C742.053 338.644 740.073 340.819 740.073 343.999V344.104C740.073 347.314 741.993 349.444 744.678 349.444ZM749.512 349.294H751.207V345.784C751.207 343.969 752.137 343.069 753.517 343.069H753.592V341.224C752.392 341.164 751.627 341.869 751.207 342.904V341.344H749.512V349.294ZM757.938 349.459C759.123 349.459 760.008 348.994 760.728 348.229L759.843 347.179C759.318 347.689 758.763 348.019 758.013 348.019C756.978 348.019 756.153 347.299 756.003 345.964H760.983C760.998 345.724 760.998 345.484 760.998 345.379C760.998 342.994 759.858 341.194 757.698 341.194C755.748 341.194 754.308 342.904 754.308 345.289V345.409C754.308 347.899 755.898 349.459 757.938 349.459ZM755.988 344.794C756.108 343.444 756.768 342.619 757.698 342.619C758.688 342.619 759.258 343.534 759.348 344.794H755.988ZM764.514 349.444C765.549 349.444 766.254 348.994 766.719 348.319V349.294H768.384V344.359C768.384 343.369 768.114 342.589 767.589 342.064C767.079 341.539 766.284 341.254 765.249 341.254C764.184 341.254 763.389 341.509 762.624 341.884L763.104 343.234C763.629 342.994 764.259 342.754 765.024 342.754C766.104 342.754 766.734 343.309 766.734 344.374V344.704C766.194 344.524 765.654 344.389 764.904 344.389C763.224 344.389 762.084 345.229 762.084 346.939V347.014C762.084 348.559 763.194 349.444 764.514 349.444ZM765.024 348.169C764.289 348.154 763.734 347.704 763.734 346.909V346.879C763.734 346.039 764.304 345.544 765.279 345.544C765.849 345.544 766.359 345.664 766.749 345.829V346.624C766.749 347.524 765.999 348.184 765.024 348.169ZM772.522 349.414C773.092 349.414 773.542 349.279 773.932 349.069V347.674C773.647 347.824 773.347 347.899 773.017 347.899C772.477 347.899 772.162 347.644 772.162 347.029V342.799H773.947V341.344H772.162V339.199H770.467V341.344H769.597V342.799H770.467V347.374C770.467 348.919 771.352 349.414 772.522 349.414ZM775.514 340.189H777.314V338.524H775.514V340.189ZM775.574 349.294H777.269V341.344H775.574V349.294ZM782.563 349.459C784.678 349.459 786.238 347.734 786.238 345.394V345.259C786.238 342.904 784.693 341.194 782.593 341.194C780.478 341.194 778.918 342.934 778.918 345.274V345.409C778.918 347.764 780.463 349.459 782.563 349.459ZM782.593 347.974C781.438 347.974 780.613 346.849 780.613 345.364V345.274C780.613 343.789 781.378 342.694 782.563 342.694C783.718 342.694 784.543 343.804 784.543 345.289V345.379C784.543 346.864 783.778 347.974 782.593 347.974ZM787.803 349.294H789.498V344.479C789.498 343.384 790.113 342.724 790.998 342.724C791.898 342.724 792.423 343.339 792.423 344.449V349.294H794.118V343.969C794.118 342.274 793.203 341.194 791.673 341.194C790.593 341.194 789.948 341.809 789.498 342.514V341.344H787.803V349.294Z" fill="white"/>
<path d="M624.609 426.696H626.349V423.291H627.864C630.039 423.261 631.749 422.046 631.749 419.721V419.691C631.749 417.516 630.264 416.196 627.969 416.196H624.609V426.696ZM626.349 421.716V417.786H627.864C629.199 417.786 629.979 418.476 629.979 419.736V419.751C629.979 420.921 629.199 421.716 627.864 421.716H626.349ZM633.159 426.696H634.854V423.186C634.854 421.371 635.784 420.471 637.164 420.471H637.239V418.626C636.039 418.566 635.274 419.271 634.854 420.306V418.746H633.159V426.696ZM641.601 426.861C643.716 426.861 645.276 425.136 645.276 422.796V422.661C645.276 420.306 643.731 418.596 641.631 418.596C639.516 418.596 637.956 420.336 637.956 422.676V422.811C637.956 425.166 639.501 426.861 641.601 426.861ZM641.631 425.376C640.476 425.376 639.651 424.251 639.651 422.766V422.676C639.651 421.191 640.416 420.096 641.601 420.096C642.756 420.096 643.581 421.206 643.581 422.691V422.781C643.581 424.266 642.816 425.376 641.631 425.376ZM647.201 426.696H648.896V420.201H650.636V418.791H648.881V418.341C648.881 417.591 649.211 417.246 649.826 417.246C650.126 417.246 650.381 417.306 650.651 417.381V415.956C650.321 415.851 649.961 415.791 649.451 415.791C648.731 415.791 648.176 415.986 647.786 416.361C647.396 416.751 647.201 417.366 647.201 418.176V418.791H646.316V420.201H647.201V426.696ZM654.901 426.861C656.086 426.861 656.971 426.396 657.691 425.631L656.806 424.581C656.281 425.091 655.726 425.421 654.976 425.421C653.941 425.421 653.116 424.701 652.966 423.366H657.946C657.961 423.126 657.961 422.886 657.961 422.781C657.961 420.396 656.821 418.596 654.661 418.596C652.711 418.596 651.271 420.306 651.271 422.691V422.811C651.271 425.301 652.861 426.861 654.901 426.861ZM652.951 422.196C653.071 420.846 653.731 420.021 654.661 420.021C655.651 420.021 656.221 420.936 656.311 422.196H652.951ZM661.792 426.846C663.322 426.846 664.507 425.991 664.507 424.431V424.416C664.507 423.171 663.577 422.601 662.347 422.046C661.417 421.626 660.787 421.356 660.787 420.831V420.801C660.787 420.366 661.162 420.021 661.792 420.021C662.422 420.021 663.082 420.321 663.682 420.726L664.402 419.481C663.652 418.941 662.707 418.626 661.822 418.626C660.337 418.626 659.197 419.526 659.197 420.951V420.981C659.197 422.286 660.187 422.826 661.372 423.336C662.317 423.741 662.932 423.996 662.932 424.566V424.581C662.932 425.076 662.527 425.451 661.822 425.451C661.117 425.451 660.352 425.106 659.632 424.521L658.837 425.736C659.752 426.501 660.847 426.846 661.792 426.846ZM668.194 426.846C669.724 426.846 670.909 425.991 670.909 424.431V424.416C670.909 423.171 669.979 422.601 668.749 422.046C667.819 421.626 667.189 421.356 667.189 420.831V420.801C667.189 420.366 667.564 420.021 668.194 420.021C668.824 420.021 669.484 420.321 670.084 420.726L670.804 419.481C670.054 418.941 669.109 418.626 668.224 418.626C666.739 418.626 665.599 419.526 665.599 420.951V420.981C665.599 422.286 666.589 422.826 667.774 423.336C668.719 423.741 669.334 423.996 669.334 424.566V424.581C669.334 425.076 668.929 425.451 668.224 425.451C667.519 425.451 666.754 425.106 666.034 424.521L665.239 425.736C666.154 426.501 667.249 426.846 668.194 426.846ZM672.432 417.591H674.232V415.926H672.432V417.591ZM672.492 426.696H674.187V418.746H672.492V426.696ZM679.481 426.861C681.596 426.861 683.156 425.136 683.156 422.796V422.661C683.156 420.306 681.611 418.596 679.511 418.596C677.396 418.596 675.836 420.336 675.836 422.676V422.811C675.836 425.166 677.381 426.861 679.481 426.861ZM679.511 425.376C678.356 425.376 677.531 424.251 677.531 422.766V422.676C677.531 421.191 678.296 420.096 679.481 420.096C680.636 420.096 681.461 421.206 681.461 422.691V422.781C681.461 424.266 680.696 425.376 679.511 425.376ZM684.722 426.696H686.417V421.881C686.417 420.786 687.032 420.126 687.917 420.126C688.817 420.126 689.342 420.741 689.342 421.851V426.696H691.037V421.371C691.037 419.676 690.122 418.596 688.592 418.596C687.512 418.596 686.867 419.211 686.417 419.916V418.746H684.722V426.696ZM694.861 426.846C695.896 426.846 696.601 426.396 697.066 425.721V426.696H698.731V421.761C698.731 420.771 698.461 419.991 697.936 419.466C697.426 418.941 696.631 418.656 695.596 418.656C694.531 418.656 693.736 418.911 692.971 419.286L693.451 420.636C693.976 420.396 694.606 420.156 695.371 420.156C696.451 420.156 697.081 420.711 697.081 421.776V422.106C696.541 421.926 696.001 421.791 695.251 421.791C693.571 421.791 692.431 422.631 692.431 424.341V424.416C692.431 425.961 693.541 426.846 694.861 426.846ZM695.371 425.571C694.636 425.556 694.081 425.106 694.081 424.311V424.281C694.081 423.441 694.651 422.946 695.626 422.946C696.196 422.946 696.706 423.066 697.096 423.231V424.026C697.096 424.926 696.346 425.586 695.371 425.571ZM700.647 426.696H702.342V415.866H700.647V426.696ZM708.398 426.696H711.608C714.608 426.696 716.588 424.566 716.588 421.491V421.371C716.588 418.296 714.608 416.196 711.608 416.196H708.398V426.696ZM711.593 417.771C713.513 417.771 714.788 419.151 714.788 421.416V421.506C714.788 423.756 713.513 425.121 711.593 425.121H710.138V417.771H711.593ZM721.566 426.861C722.751 426.861 723.636 426.396 724.356 425.631L723.471 424.581C722.946 425.091 722.391 425.421 721.641 425.421C720.606 425.421 719.781 424.701 719.631 423.366H724.611C724.626 423.126 724.626 422.886 724.626 422.781C724.626 420.396 723.486 418.596 721.326 418.596C719.376 418.596 717.936 420.306 717.936 422.691V422.811C717.936 425.301 719.526 426.861 721.566 426.861ZM719.616 422.196C719.736 420.846 720.396 420.021 721.326 420.021C722.316 420.021 722.886 420.936 722.976 422.196H719.616ZM728 426.756H729.575L732.35 418.746H730.595L728.795 424.536L727.01 418.746H725.225L728 426.756ZM736.493 426.861C737.678 426.861 738.563 426.396 739.283 425.631L738.398 424.581C737.873 425.091 737.318 425.421 736.568 425.421C735.533 425.421 734.708 424.701 734.558 423.366H739.538C739.553 423.126 739.553 422.886 739.553 422.781C739.553 420.396 738.413 418.596 736.253 418.596C734.303 418.596 732.863 420.306 732.863 422.691V422.811C732.863 425.301 734.453 426.861 736.493 426.861ZM734.543 422.196C734.663 420.846 735.323 420.021 736.253 420.021C737.243 420.021 737.813 420.936 737.903 422.196H734.543ZM741.179 426.696H742.874V415.866H741.179V426.696ZM748.168 426.861C750.283 426.861 751.843 425.136 751.843 422.796V422.661C751.843 420.306 750.298 418.596 748.198 418.596C746.083 418.596 744.523 420.336 744.523 422.676V422.811C744.523 425.166 746.068 426.861 748.168 426.861ZM748.198 425.376C747.043 425.376 746.218 424.251 746.218 422.766V422.676C746.218 421.191 746.983 420.096 748.168 420.096C749.323 420.096 750.148 421.206 750.148 422.691V422.781C750.148 424.266 749.383 425.376 748.198 425.376ZM753.408 428.961H755.103V425.496C755.583 426.201 756.273 426.846 757.428 426.846C759.033 426.846 760.518 425.496 760.518 422.826V422.616C760.518 419.931 759.018 418.596 757.428 418.596C756.288 418.596 755.598 419.256 755.103 420.021V418.746H753.408V428.961ZM756.963 425.346C755.943 425.346 755.073 424.356 755.073 422.796V422.646C755.073 421.086 755.943 420.096 756.963 420.096C757.983 420.096 758.808 421.071 758.808 422.661V422.796C758.808 424.386 757.998 425.346 756.963 425.346ZM762.109 426.696H763.804V421.896C763.804 420.801 764.389 420.126 765.244 420.126C766.084 420.126 766.579 420.726 766.579 421.851V426.696H768.274V421.881C768.274 420.756 768.874 420.126 769.699 420.126C770.569 420.126 771.049 420.726 771.049 421.866V426.696H772.744V421.371C772.744 419.571 771.784 418.596 770.314 418.596C769.249 418.596 768.529 419.151 767.989 419.871C767.614 419.091 766.909 418.596 765.934 418.596C764.884 418.596 764.269 419.196 763.804 419.901V418.746H762.109V426.696ZM777.889 426.861C779.074 426.861 779.959 426.396 780.679 425.631L779.794 424.581C779.269 425.091 778.714 425.421 777.964 425.421C776.929 425.421 776.104 424.701 775.954 423.366H780.934C780.949 423.126 780.949 422.886 780.949 422.781C780.949 420.396 779.809 418.596 777.649 418.596C775.699 418.596 774.259 420.306 774.259 422.691V422.811C774.259 425.301 775.849 426.861 777.889 426.861ZM775.939 422.196C776.059 420.846 776.719 420.021 777.649 420.021C778.639 420.021 779.209 420.936 779.299 422.196H775.939ZM782.485 426.696H784.18V421.881C784.18 420.786 784.795 420.126 785.68 420.126C786.58 420.126 787.105 420.741 787.105 421.851V426.696H788.8V421.371C788.8 419.676 787.885 418.596 786.355 418.596C785.275 418.596 784.63 419.211 784.18 419.916V418.746H782.485V426.696ZM793 426.816C793.57 426.816 794.02 426.681 794.41 426.471V425.076C794.125 425.226 793.825 425.301 793.495 425.301C792.955 425.301 792.64 425.046 792.64 424.431V420.201H794.425V418.746H792.64V416.601H790.945V418.746H790.075V420.201H790.945V424.776C790.945 426.321 791.83 426.816 793 426.816Z" fill="white"/>
<path d="M651.339 489.86C652.794 489.86 653.859 489.32 654.774 488.375L653.754 487.145C653.094 487.775 652.434 488.24 651.429 488.24C649.779 488.24 648.534 486.755 648.534 484.475V484.415C648.534 482.18 649.779 480.68 651.429 480.68C652.374 480.68 653.064 481.13 653.679 481.7L654.729 480.365C653.874 479.585 652.899 479.06 651.429 479.06C648.714 479.06 646.734 481.235 646.734 484.415V484.52C646.734 487.73 648.654 489.86 651.339 489.86ZM659.296 489.875C661.411 489.875 662.971 488.15 662.971 485.81V485.675C662.971 483.32 661.426 481.61 659.326 481.61C657.211 481.61 655.651 483.35 655.651 485.69V485.825C655.651 488.18 657.196 489.875 659.296 489.875ZM659.326 488.39C658.171 488.39 657.346 487.265 657.346 485.78V485.69C657.346 484.205 658.111 483.11 659.296 483.11C660.451 483.11 661.276 484.22 661.276 485.705V485.795C661.276 487.28 660.511 488.39 659.326 488.39ZM664.536 489.71H666.231V484.895C666.231 483.8 666.846 483.14 667.731 483.14C668.631 483.14 669.156 483.755 669.156 484.865V489.71H670.851V484.385C670.851 482.69 669.936 481.61 668.406 481.61C667.326 481.61 666.681 482.225 666.231 482.93V481.76H664.536V489.71ZM675.906 489.875C677.121 489.875 677.916 489.38 678.546 488.675L677.631 487.55C677.166 488.015 676.701 488.36 676.011 488.36C674.856 488.36 674.046 487.325 674.046 485.78V485.705C674.046 484.205 674.856 483.14 675.966 483.14C676.686 483.14 677.151 483.5 677.571 483.935L678.516 482.69C677.856 482.03 677.106 481.61 675.966 481.61C673.881 481.61 672.336 483.32 672.336 485.69V485.84C672.336 488.21 673.836 489.875 675.906 489.875ZM682.997 489.875C684.182 489.875 685.067 489.41 685.787 488.645L684.902 487.595C684.377 488.105 683.822 488.435 683.072 488.435C682.037 488.435 681.212 487.715 681.062 486.38H686.042C686.057 486.14 686.057 485.9 686.057 485.795C686.057 483.41 684.917 481.61 682.757 481.61C680.807 481.61 679.367 483.32 679.367 485.705V485.825C679.367 488.315 680.957 489.875 682.997 489.875ZM681.047 485.21C681.167 483.86 681.827 483.035 682.757 483.035C683.747 483.035 684.317 483.95 684.407 485.21H681.047ZM687.593 491.975H689.288V488.51C689.768 489.215 690.458 489.86 691.613 489.86C693.218 489.86 694.703 488.51 694.703 485.84V485.63C694.703 482.945 693.203 481.61 691.613 481.61C690.473 481.61 689.783 482.27 689.288 483.035V481.76H687.593V491.975ZM691.148 488.36C690.128 488.36 689.258 487.37 689.258 485.81V485.66C689.258 484.1 690.128 483.11 691.148 483.11C692.168 483.11 692.993 484.085 692.993 485.675V485.81C692.993 487.4 692.183 488.36 691.148 488.36ZM698.679 489.83C699.249 489.83 699.699 489.695 700.089 489.485V488.09C699.804 488.24 699.504 488.315 699.174 488.315C698.634 488.315 698.319 488.06 698.319 487.445V483.215H700.104V481.76H698.319V479.615H696.624V481.76H695.754V483.215H696.624V487.79C696.624 489.335 697.509 489.83 698.679 489.83ZM707.893 489.83C708.463 489.83 708.913 489.695 709.303 489.485V488.09C709.018 488.24 708.718 488.315 708.388 488.315C707.848 488.315 707.533 488.06 707.533 487.445V483.215H709.318V481.76H707.533V479.615H705.838V481.76H704.968V483.215H705.838V487.79C705.838 489.335 706.723 489.83 707.893 489.83ZM713.949 489.875C716.064 489.875 717.624 488.15 717.624 485.81V485.675C717.624 483.32 716.079 481.61 713.979 481.61C711.864 481.61 710.304 483.35 710.304 485.69V485.825C710.304 488.18 711.849 489.875 713.949 489.875ZM713.979 488.39C712.824 488.39 711.999 487.265 711.999 485.78V485.69C711.999 484.205 712.764 483.11 713.949 483.11C715.104 483.11 715.929 484.22 715.929 485.705V485.795C715.929 487.28 715.164 488.39 713.979 488.39ZM723.237 489.71H724.977V486.005H726.657C726.687 486.005 726.732 486.005 726.762 485.99L728.997 489.71H731.007L728.532 485.645C729.807 485.195 730.707 484.19 730.707 482.57V482.51C730.707 481.55 730.392 480.755 729.837 480.2C729.207 479.57 728.232 479.21 727.032 479.21H723.237V489.71ZM724.977 484.445V480.8H726.882C728.187 480.8 728.952 481.415 728.952 482.6V482.63C728.952 483.725 728.202 484.445 726.852 484.445H724.977ZM735.541 489.875C736.726 489.875 737.611 489.41 738.331 488.645L737.446 487.595C736.921 488.105 736.366 488.435 735.616 488.435C734.581 488.435 733.756 487.715 733.606 486.38H738.586C738.601 486.14 738.601 485.9 738.601 485.795C738.601 483.41 737.461 481.61 735.301 481.61C733.351 481.61 731.911 483.32 731.911 485.705V485.825C731.911 488.315 733.501 489.875 735.541 489.875ZM733.591 485.21C733.711 483.86 734.371 483.035 735.301 483.035C736.291 483.035 736.861 483.95 736.951 485.21H733.591ZM742.117 489.86C743.152 489.86 743.857 489.41 744.322 488.735V489.71H745.987V484.775C745.987 483.785 745.717 483.005 745.192 482.48C744.682 481.955 743.887 481.67 742.852 481.67C741.787 481.67 740.992 481.925 740.227 482.3L740.707 483.65C741.232 483.41 741.862 483.17 742.627 483.17C743.707 483.17 744.337 483.725 744.337 484.79V485.12C743.797 484.94 743.257 484.805 742.507 484.805C740.827 484.805 739.687 485.645 739.687 487.355V487.43C739.687 488.975 740.797 489.86 742.117 489.86ZM742.627 488.585C741.892 488.57 741.337 488.12 741.337 487.325V487.295C741.337 486.455 741.907 485.96 742.882 485.96C743.452 485.96 743.962 486.08 744.352 486.245V487.04C744.352 487.94 743.602 488.6 742.627 488.585ZM747.903 489.71H749.598V478.88H747.903V489.71ZM751.637 480.605H753.437V478.94H751.637V480.605ZM751.697 489.71H753.392V481.76H751.697V489.71ZM755.056 489.71H760.981V488.3H757.126L760.996 482.93V481.76H755.191V483.17H758.926L755.056 488.54V489.71ZM764.514 489.86C765.549 489.86 766.254 489.41 766.719 488.735V489.71H768.384V484.775C768.384 483.785 768.114 483.005 767.589 482.48C767.079 481.955 766.284 481.67 765.249 481.67C764.184 481.67 763.389 481.925 762.624 482.3L763.104 483.65C763.629 483.41 764.259 483.17 765.024 483.17C766.104 483.17 766.734 483.725 766.734 484.79V485.12C766.194 484.94 765.654 484.805 764.904 484.805C763.224 484.805 762.084 485.645 762.084 487.355V487.43C762.084 488.975 763.194 489.86 764.514 489.86ZM765.024 488.585C764.289 488.57 763.734 488.12 763.734 487.325V487.295C763.734 486.455 764.304 485.96 765.279 485.96C765.849 485.96 766.359 486.08 766.749 486.245V487.04C766.749 487.94 765.999 488.6 765.024 488.585ZM772.522 489.83C773.092 489.83 773.542 489.695 773.932 489.485V488.09C773.647 488.24 773.347 488.315 773.017 488.315C772.477 488.315 772.162 488.06 772.162 487.445V483.215H773.947V481.76H772.162V479.615H770.467V481.76H769.597V483.215H770.467V487.79C770.467 489.335 771.352 489.83 772.522 489.83ZM775.514 480.605H777.314V478.94H775.514V480.605ZM775.574 489.71H777.269V481.76H775.574V489.71ZM782.563 489.875C784.678 489.875 786.238 488.15 786.238 485.81V485.675C786.238 483.32 784.693 481.61 782.593 481.61C780.478 481.61 778.918 483.35 778.918 485.69V485.825C778.918 488.18 780.463 489.875 782.563 489.875ZM782.593 488.39C781.438 488.39 780.613 487.265 780.613 485.78V485.69C780.613 484.205 781.378 483.11 782.563 483.11C783.718 483.11 784.543 484.22 784.543 485.705V485.795C784.543 487.28 783.778 488.39 782.593 488.39ZM787.803 489.71H789.498V484.895C789.498 483.8 790.113 483.14 790.998 483.14C791.898 483.14 792.423 483.755 792.423 484.865V489.71H794.118V484.385C794.118 482.69 793.203 481.61 791.673 481.61C790.593 481.61 789.948 482.225 789.498 482.93V481.76H787.803V489.71Z" fill="white"/>
</svg>
