<svg width="975" height="720" viewBox="0 0 975 720" fill="none" xmlns="http://www.w3.org/2000/svg">
<path d="M14 24.7623H1V714.762H14V24.7623Z" fill="#B9B9B9"/>
<path d="M334 5H321V36.0811H334V5Z" fill="#B9B9B9"/>
<path d="M334 46.0811H321V55.7508H334V46.0811Z" fill="#B9B9B9"/>
<path d="M334 65.7507H321V715H334V65.7507Z" fill="#B9B9B9"/>
<path d="M654 51.4384H641V210.297H654V51.4384Z" fill="#B9B9B9"/>
<path d="M654 220.297H641V275.553H654V220.297Z" fill="#B9B9B9"/>
<path d="M654 285.552H641V368.435H654V285.552Z" fill="#B9B9B9"/>
<path d="M654 378.581H641V668.672H654V378.581Z" fill="#B9B9B9"/>
<path d="M974 369.458H961V459.248H974V369.458Z" fill="#B9B9B9"/>
<path d="M974 469.248H961V545.224H974V469.248Z" fill="#B9B9B9"/>
<path d="M974 555.224H961V610.479H974V555.224Z" fill="#B9B9B9"/>
<g style="mix-blend-mode:multiply">
<g style="mix-blend-mode:multiply">
<path d="M15 40.3028C167.5 40.3028 167.5 20.5405 320 20.5405" stroke="#DDDDDD" stroke-width="31.0811"/>
</g>
</g>
<g style="mix-blend-mode:multiply">
<g style="mix-blend-mode:multiply">
<path d="M15 60.6781C167.5 60.6781 167.5 50.9159 320 50.9159" stroke="#DDDDDD" stroke-width="9.66967"/>
</g>
</g>
<g style="mix-blend-mode:multiply">
<g style="mix-blend-mode:multiply">
<path d="M15 390.138C167.5 390.138 167.5 390.375 320 390.375" stroke="#009ADD" stroke-width="649.249"/>
</g>
</g>
<g style="mix-blend-mode:multiply">
<g style="mix-blend-mode:multiply">
<path d="M335 145.18C487.5 145.18 487.5 130.868 640 130.868" stroke="#F55861" stroke-width="158.859"/>
</g>
</g>
<g style="mix-blend-mode:multiply">
<g style="mix-blend-mode:multiply">
<path d="M335 252.237C487.5 252.237 487.5 247.925 640 247.925" stroke="#F55861" stroke-width="55.2553"/>
</g>
</g>
<g style="mix-blend-mode:multiply">
<g style="mix-blend-mode:multiply">
<path d="M335 321.306C487.5 321.306 487.5 326.994 640 326.994" stroke="#F55861" stroke-width="82.8829"/>
</g>
</g>
<g style="mix-blend-mode:multiply">
<g style="mix-blend-mode:multiply">
<path d="M335 507.793C487.5 507.793 487.5 523.626 640 523.626" stroke="#090809" stroke-width="290.09"/>
</g>
</g>
<g style="mix-blend-mode:multiply">
<g style="mix-blend-mode:multiply">
<path d="M655 423.476C807.5 423.476 807.5 414.353 960 414.353" stroke="#F40000" stroke-width="89.7898"/>
</g>
</g>
<g style="mix-blend-mode:multiply">
<g style="mix-blend-mode:multiply">
<path d="M655 506.359C807.5 506.359 807.5 507.236 960 507.236" stroke="#F40000" stroke-width="75.976"/>
</g>
</g>
<g style="mix-blend-mode:multiply">
<g style="mix-blend-mode:multiply">
<path d="M655 571.975C807.5 571.975 807.5 582.852 960 582.852" stroke="#F40000" stroke-width="55.2553"/>
</g>
</g>
<path d="M22.368 373.762H24.42V365.104L30.126 373.762H31.89V361.162H29.856V369.568L24.312 361.162H22.368V373.762ZM34.62 373.762H42.648V371.872H36.69V368.362H41.892V366.472H36.69V363.052H42.558V361.162H34.62V373.762ZM49.8557 373.942C51.6017 373.942 52.8797 373.294 53.9777 372.16L52.7537 370.684C51.9617 371.44 51.1697 371.998 49.9637 371.998C47.9837 371.998 46.4897 370.216 46.4897 367.48V367.408C46.4897 364.726 47.9837 362.926 49.9637 362.926C51.0977 362.926 51.9257 363.466 52.6637 364.15L53.9237 362.548C52.8977 361.612 51.7277 360.982 49.9637 360.982C46.7057 360.982 44.3297 363.592 44.3297 367.408V367.534C44.3297 371.386 46.6337 373.942 49.8557 373.942ZM54.9711 373.762H57.0771L58.1211 370.792H63.0171L64.0611 373.762H66.2391L61.6131 361.09H59.5971L54.9711 373.762ZM58.7691 368.938L60.5691 363.88L62.3691 368.938H58.7691ZM68.036 373.762H70.124V369.676H71.942C74.552 369.64 76.604 368.182 76.604 365.392V365.356C76.604 362.746 74.822 361.162 72.068 361.162H68.036V373.762ZM70.124 367.786V363.07H71.942C73.544 363.07 74.48 363.898 74.48 365.41V365.428C74.48 366.832 73.544 367.786 71.942 367.786H70.124Z" fill="white"/>
<path d="M342.368 24.5405H344.456V19.1765H349.406V24.5405H351.494V11.9405H349.406V17.2325H344.456V11.9405H342.368V24.5405ZM357.942 24.7385C360.48 24.7385 362.352 22.6685 362.352 19.8605V19.6985C362.352 16.8725 360.498 14.8205 357.978 14.8205C355.44 14.8205 353.568 16.9085 353.568 19.7165V19.8785C353.568 22.7045 355.422 24.7385 357.942 24.7385ZM357.978 22.9565C356.592 22.9565 355.602 21.6065 355.602 19.8245V19.7165C355.602 17.9345 356.52 16.6205 357.942 16.6205C359.328 16.6205 360.318 17.9525 360.318 19.7345V19.8425C360.318 21.6245 359.4 22.9565 357.978 22.9565ZM364.23 24.5405H366.264V18.7805C366.264 17.4665 366.966 16.6565 367.992 16.6565C369 16.6565 369.594 17.3765 369.594 18.7265V24.5405H371.628V18.7625C371.628 17.4125 372.348 16.6565 373.338 16.6565C374.382 16.6565 374.958 17.3765 374.958 18.7445V24.5405H376.992V18.1505C376.992 15.9905 375.84 14.8205 374.076 14.8205C372.798 14.8205 371.934 15.4865 371.286 16.3505C370.836 15.4145 369.99 14.8205 368.82 14.8205C367.56 14.8205 366.822 15.5405 366.264 16.3865V15.0005H364.23V24.5405ZM383.166 24.7385C384.588 24.7385 385.65 24.1805 386.514 23.2625L385.452 22.0025C384.822 22.6145 384.156 23.0105 383.256 23.0105C382.014 23.0105 381.024 22.1465 380.844 20.5445H386.82C386.838 20.2565 386.838 19.9685 386.838 19.8425C386.838 16.9805 385.47 14.8205 382.878 14.8205C380.538 14.8205 378.81 16.8725 378.81 19.7345V19.8785C378.81 22.8665 380.718 24.7385 383.166 24.7385ZM380.826 19.1405C380.97 17.5205 381.762 16.5305 382.878 16.5305C384.066 16.5305 384.75 17.6285 384.858 19.1405H380.826Z" fill="white"/>
<path d="M346.022 55.0779C348.38 55.0779 350.108 53.6559 350.108 51.4419V51.4059C350.108 49.5699 349.028 48.5979 346.688 47.6979C344.546 46.8699 344.078 46.4019 344.078 45.5199V45.5019C344.078 44.6739 344.78 44.0439 345.914 44.0439C346.922 44.0439 347.876 44.5299 348.74 45.2319L349.928 43.6299C348.776 42.6219 347.426 42.1539 345.968 42.1539C343.628 42.1539 341.972 43.6119 341.972 45.6819V45.7179C341.972 47.7339 343.214 48.6159 345.608 49.5159C347.606 50.2539 348.02 50.7759 348.02 51.5679V51.5859C348.02 52.5219 347.246 53.1879 346.04 53.1879C344.708 53.1879 343.664 52.5399 342.728 51.6939L341.468 53.2599C342.836 54.5199 344.402 55.0779 346.022 55.0779ZM352.031 57.6339H354.065V53.4759C354.641 54.3219 355.469 55.0959 356.855 55.0959C358.781 55.0959 360.563 53.4759 360.563 50.2719V50.0199C360.563 46.7979 358.763 45.1959 356.855 45.1959C355.487 45.1959 354.659 45.9879 354.065 46.9059V45.3759H352.031V57.6339ZM356.297 53.2959C355.073 53.2959 354.029 52.1079 354.029 50.2359V50.0559C354.029 48.1839 355.073 46.9959 356.297 46.9959C357.521 46.9959 358.511 48.1659 358.511 50.0739V50.2359C358.511 52.1439 357.539 53.2959 356.297 53.2959ZM366.414 55.1139C368.952 55.1139 370.824 53.0439 370.824 50.2359V50.0739C370.824 47.2479 368.97 45.1959 366.45 45.1959C363.912 45.1959 362.04 47.2839 362.04 50.0919V50.2539C362.04 53.0799 363.894 55.1139 366.414 55.1139ZM366.45 53.3319C365.064 53.3319 364.074 51.9819 364.074 50.1999V50.0919C364.074 48.3099 364.992 46.9959 366.414 46.9959C367.8 46.9959 368.79 48.3279 368.79 50.1099V50.2179C368.79 51.9999 367.872 53.3319 366.45 53.3319ZM375.565 55.0599C376.249 55.0599 376.789 54.8979 377.257 54.6459V52.9719C376.915 53.1519 376.555 53.2419 376.159 53.2419C375.511 53.2419 375.133 52.9359 375.133 52.1979V47.1219H377.275V45.3759H375.133V42.8019H373.099V45.3759H372.055V47.1219H373.099V52.6119C373.099 54.4659 374.161 55.0599 375.565 55.0599ZM379.227 54.9159H381.261V41.9199H379.227V54.9159ZM383.708 43.9899H385.868V41.9919H383.708V43.9899ZM383.78 54.9159H385.814V45.3759H383.78V54.9159ZM391.842 57.6699C393.354 57.6699 394.524 57.3099 395.28 56.5359C395.982 55.8339 396.36 54.7899 396.36 53.3679V45.3759H394.326V46.7979C393.714 45.9519 392.868 45.1959 391.464 45.1959C389.574 45.1959 387.828 46.7259 387.828 49.6779V49.7499C387.828 52.6839 389.556 54.2139 391.464 54.2139C392.85 54.2139 393.678 53.4759 394.344 52.5399V53.4579C394.344 55.1499 393.426 55.9779 391.752 55.9779C390.726 55.9779 389.718 55.6719 388.89 55.1679L388.224 56.7699C389.322 57.3639 390.528 57.6699 391.842 57.6699ZM392.076 52.4499C390.852 52.4499 389.88 51.4059 389.88 49.7139V49.6959C389.88 48.0039 390.834 46.9779 392.076 46.9779C393.3 46.9779 394.362 48.0219 394.362 49.6959V49.7319C394.362 51.3879 393.3 52.4499 392.076 52.4499ZM398.666 54.9159H400.7V49.1379C400.7 47.8239 401.438 47.0319 402.5 47.0319C403.58 47.0319 404.21 47.7699 404.21 49.1019V54.9159H406.244V48.5259C406.244 46.4919 405.146 45.1959 403.31 45.1959C402.014 45.1959 401.24 45.9339 400.7 46.7799V41.9199H398.666V54.9159ZM411.284 55.0599C411.968 55.0599 412.508 54.8979 412.976 54.6459V52.9719C412.634 53.1519 412.274 53.2419 411.878 53.2419C411.23 53.2419 410.852 52.9359 410.852 52.1979V47.1219H412.994V45.3759H410.852V42.8019H408.818V45.3759H407.774V47.1219H408.818V52.6119C408.818 54.4659 409.88 55.0599 411.284 55.0599Z" fill="white" fill-opacity="0.7"/>
<path d="M347.66 394.555C349.442 394.555 350.9 393.871 351.962 393.025V387.373H347.336V389.209H349.982V391.981C349.424 392.377 348.632 392.647 347.75 392.647C345.608 392.647 344.06 390.955 344.06 388.111V388.003C344.06 385.393 345.59 383.539 347.642 383.539C348.92 383.539 349.712 384.025 350.432 384.673L351.674 383.017C350.558 382.081 349.388 381.595 347.678 381.595C344.294 381.595 341.9 384.313 341.9 388.021V388.165C341.9 392.035 344.24 394.555 347.66 394.555ZM354.211 394.375H356.245V390.163C356.245 387.985 357.361 386.905 359.017 386.905H359.107V384.691C357.667 384.619 356.749 385.465 356.245 386.707V384.835H354.211V394.375ZM362.686 394.555C363.928 394.555 364.774 394.015 365.332 393.205V394.375H367.33V388.453C367.33 387.265 367.006 386.329 366.376 385.699C365.764 385.069 364.81 384.727 363.568 384.727C362.29 384.727 361.336 385.033 360.418 385.483L360.994 387.103C361.624 386.815 362.38 386.527 363.298 386.527C364.594 386.527 365.35 387.193 365.35 388.471V388.867C364.702 388.651 364.054 388.489 363.154 388.489C361.138 388.489 359.77 389.497 359.77 391.549V391.639C359.77 393.493 361.102 394.555 362.686 394.555ZM363.298 393.025C362.416 393.007 361.75 392.467 361.75 391.513V391.477C361.75 390.469 362.434 389.875 363.604 389.875C364.288 389.875 364.9 390.019 365.368 390.217V391.171C365.368 392.251 364.468 393.043 363.298 393.025ZM369.521 394.375H371.555V388.597C371.555 387.283 372.293 386.491 373.355 386.491C374.435 386.491 375.065 387.229 375.065 388.561V394.375H377.099V387.985C377.099 385.951 376.001 384.655 374.165 384.655C372.869 384.655 372.095 385.393 371.555 386.239V384.835H369.521V394.375ZM382.139 394.519C382.823 394.519 383.363 394.357 383.831 394.105V392.431C383.489 392.611 383.129 392.701 382.733 392.701C382.085 392.701 381.707 392.395 381.707 391.657V386.581H383.849V384.835H381.707V382.261H379.673V384.835H378.629V386.581H379.673V392.071C379.673 393.925 380.735 394.519 382.139 394.519ZM388.447 394.555C390.283 394.555 391.705 393.529 391.705 391.657V391.639C391.705 390.145 390.589 389.461 389.113 388.795C387.997 388.291 387.241 387.967 387.241 387.337V387.301C387.241 386.779 387.691 386.365 388.447 386.365C389.203 386.365 389.995 386.725 390.715 387.211L391.579 385.717C390.679 385.069 389.545 384.691 388.483 384.691C386.701 384.691 385.333 385.771 385.333 387.481V387.517C385.333 389.083 386.521 389.731 387.943 390.343C389.077 390.829 389.815 391.135 389.815 391.819V391.837C389.815 392.431 389.329 392.881 388.483 392.881C387.637 392.881 386.719 392.467 385.855 391.765L384.901 393.223C385.999 394.141 387.313 394.555 388.447 394.555Z" fill="white"/>
<path d="M594.377 135.048C596.159 135.048 597.617 134.364 598.679 133.518V127.866H594.053V129.702H596.699V132.474C596.141 132.87 595.349 133.14 594.467 133.14C592.325 133.14 590.777 131.448 590.777 128.604V128.496C590.777 125.886 592.307 124.032 594.359 124.032C595.637 124.032 596.429 124.518 597.149 125.166L598.391 123.51C597.275 122.574 596.105 122.088 594.395 122.088C591.011 122.088 588.617 124.806 588.617 128.514V128.658C588.617 132.528 590.957 135.048 594.377 135.048ZM603.771 135.048C605.067 135.048 605.823 134.328 606.363 133.482V134.868H608.415V125.328H606.363V131.106C606.363 132.42 605.625 133.212 604.563 133.212C603.501 133.212 602.871 132.474 602.871 131.142V125.328H600.837V131.718C600.837 133.77 601.917 135.048 603.771 135.048ZM610.754 123.942H612.914V121.944H610.754V123.942ZM610.826 134.868H612.86V125.328H610.826V134.868ZM618.583 135.048C619.951 135.048 620.779 134.256 621.373 133.338V134.868H623.407V121.872H621.373V126.768C620.797 125.94 619.969 125.148 618.583 125.148C616.657 125.148 614.875 126.768 614.875 129.99V130.224C614.875 133.446 616.675 135.048 618.583 135.048ZM619.141 133.248C617.917 133.248 616.927 132.078 616.927 130.17V130.026C616.927 128.1 617.899 126.948 619.141 126.948C620.365 126.948 621.409 128.136 621.409 130.008V130.188C621.409 132.06 620.365 133.248 619.141 133.248ZM629.637 135.066C631.059 135.066 632.121 134.508 632.985 133.59L631.923 132.33C631.293 132.942 630.627 133.338 629.727 133.338C628.485 133.338 627.495 132.474 627.315 130.872H633.291C633.309 130.584 633.309 130.296 633.309 130.17C633.309 127.308 631.941 125.148 629.349 125.148C627.009 125.148 625.281 127.2 625.281 130.062V130.206C625.281 133.194 627.189 135.066 629.637 135.066ZM627.297 129.468C627.441 127.848 628.233 126.858 629.349 126.858C630.537 126.858 631.221 127.956 631.329 129.468H627.297Z" fill="white"/>
<path d="M602.093 251.925H604.181V246.705H609.329V244.797H604.181V241.251H609.995V239.325H602.093V251.925ZM609.946 251.925H612.052L613.096 248.955H617.992L619.036 251.925H621.214L616.588 239.253H614.572L609.946 251.925ZM613.744 247.101L615.544 242.043L617.344 247.101H613.744ZM633.304 250.881L631.936 249.693C632.656 248.613 633.07 247.245 633.07 245.697V245.517C633.07 241.791 630.784 239.127 627.508 239.127C624.214 239.127 621.91 241.809 621.91 245.553V245.733C621.91 249.459 624.196 252.123 627.49 252.123C628.696 252.123 629.794 251.727 630.694 251.043L632.026 252.285L633.304 250.881ZM627.544 250.215C625.528 250.215 624.07 248.469 624.07 245.697V245.535C624.07 242.817 625.492 241.053 627.472 241.053C629.47 241.053 630.91 242.853 630.91 245.553V245.715C630.91 246.741 630.73 247.605 630.406 248.307L628.66 246.633L627.382 248.037L629.254 249.711C628.768 250.053 628.192 250.215 627.544 250.215Z" fill="white"/>
<path d="M558.042 330.994H561.894C565.494 330.994 567.87 328.438 567.87 324.748V324.604C567.87 320.914 565.494 318.394 561.894 318.394H558.042V330.994ZM561.876 320.284C564.18 320.284 565.71 321.94 565.71 324.658V324.766C565.71 327.466 564.18 329.104 561.876 329.104H560.13V320.284H561.876ZM573.844 331.192C575.266 331.192 576.328 330.634 577.192 329.716L576.13 328.456C575.5 329.068 574.834 329.464 573.934 329.464C572.692 329.464 571.702 328.6 571.522 326.998H577.498C577.516 326.71 577.516 326.422 577.516 326.296C577.516 323.434 576.148 321.274 573.556 321.274C571.216 321.274 569.488 323.326 569.488 326.188V326.332C569.488 329.32 571.396 331.192 573.844 331.192ZM571.504 325.594C571.648 323.974 572.44 322.984 573.556 322.984C574.744 322.984 575.428 324.082 575.536 325.594H571.504ZM581.735 331.174C582.977 331.174 583.823 330.634 584.381 329.824V330.994H586.379V325.072C586.379 323.884 586.055 322.948 585.425 322.318C584.813 321.688 583.859 321.346 582.617 321.346C581.339 321.346 580.385 321.652 579.467 322.102L580.043 323.722C580.673 323.434 581.429 323.146 582.347 323.146C583.643 323.146 584.399 323.812 584.399 325.09V325.486C583.751 325.27 583.103 325.108 582.203 325.108C580.187 325.108 578.819 326.116 578.819 328.168V328.258C578.819 330.112 580.151 331.174 581.735 331.174ZM582.347 329.644C581.465 329.626 580.799 329.086 580.799 328.132V328.096C580.799 327.088 581.483 326.494 582.653 326.494C583.337 326.494 583.949 326.638 584.417 326.836V327.79C584.417 328.87 583.517 329.662 582.347 329.644ZM591.882 331.174C593.25 331.174 594.078 330.382 594.672 329.464V330.994H596.706V317.998H594.672V322.894C594.096 322.066 593.268 321.274 591.882 321.274C589.956 321.274 588.174 322.894 588.174 326.116V326.35C588.174 329.572 589.974 331.174 591.882 331.174ZM592.44 329.374C591.216 329.374 590.226 328.204 590.226 326.296V326.152C590.226 324.226 591.198 323.074 592.44 323.074C593.664 323.074 594.708 324.262 594.708 326.134V326.314C594.708 328.186 593.664 329.374 592.44 329.374ZM599.119 330.994H601.153V317.998H599.119V330.994ZM603.6 320.068H605.76V318.07H603.6V320.068ZM603.672 330.994H605.706V321.454H603.672V330.994ZM608.117 330.994H610.151V325.216C610.151 323.902 610.889 323.11 611.951 323.11C613.031 323.11 613.661 323.848 613.661 325.18V330.994H615.695V324.604C615.695 322.57 614.597 321.274 612.761 321.274C611.465 321.274 610.691 322.012 610.151 322.858V321.454H608.117V330.994ZM621.832 331.192C623.254 331.192 624.316 330.634 625.18 329.716L624.118 328.456C623.488 329.068 622.822 329.464 621.922 329.464C620.68 329.464 619.69 328.6 619.51 326.998H625.486C625.504 326.71 625.504 326.422 625.504 326.296C625.504 323.434 624.136 321.274 621.544 321.274C619.204 321.274 617.476 323.326 617.476 326.188V326.332C617.476 329.32 619.384 331.192 621.832 331.192ZM619.492 325.594C619.636 323.974 620.428 322.984 621.544 322.984C622.732 322.984 623.416 324.082 623.524 325.594H619.492ZM630.101 331.174C631.937 331.174 633.359 330.148 633.359 328.276V328.258C633.359 326.764 632.243 326.08 630.767 325.414C629.651 324.91 628.895 324.586 628.895 323.956V323.92C628.895 323.398 629.345 322.984 630.101 322.984C630.857 322.984 631.649 323.344 632.369 323.83L633.233 322.336C632.333 321.688 631.199 321.31 630.137 321.31C628.355 321.31 626.987 322.39 626.987 324.1V324.136C626.987 325.702 628.175 326.35 629.597 326.962C630.731 327.448 631.469 327.754 631.469 328.438V328.456C631.469 329.05 630.983 329.5 630.137 329.5C629.291 329.5 628.373 329.086 627.509 328.384L626.555 329.842C627.653 330.76 628.967 331.174 630.101 331.174Z" fill="white"/>
<path d="M484.97 527.626H492.998V525.736H487.04V522.226H492.242V520.336H487.04V516.916H492.908V515.026H484.97V527.626ZM496.586 518.086H494.39L497.234 522.748L494.282 527.626H496.424L498.386 524.224L500.33 527.626H502.526L499.538 522.748L502.4 518.086H500.258L498.404 521.29L496.586 518.086ZM504.125 530.344H506.159V526.186C506.735 527.032 507.563 527.806 508.949 527.806C510.875 527.806 512.657 526.186 512.657 522.982V522.73C512.657 519.508 510.857 517.906 508.949 517.906C507.581 517.906 506.753 518.698 506.159 519.616V518.086H504.125V530.344ZM508.391 526.006C507.167 526.006 506.123 524.818 506.123 522.946V522.766C506.123 520.894 507.167 519.706 508.391 519.706C509.615 519.706 510.605 520.876 510.605 522.784V522.946C510.605 524.854 509.633 526.006 508.391 526.006ZM514.674 527.626H516.708V514.63H514.674V527.626ZM523.061 527.824C525.599 527.824 527.471 525.754 527.471 522.946V522.784C527.471 519.958 525.617 517.906 523.097 517.906C520.559 517.906 518.687 519.994 518.687 522.802V522.964C518.687 525.79 520.541 527.824 523.061 527.824ZM523.097 526.042C521.711 526.042 520.721 524.692 520.721 522.91V522.802C520.721 521.02 521.639 519.706 523.061 519.706C524.447 519.706 525.437 521.038 525.437 522.82V522.928C525.437 524.71 524.519 526.042 523.097 526.042ZM529.349 527.626H531.383V523.414C531.383 521.236 532.499 520.156 534.155 520.156H534.245V517.942C532.805 517.87 531.887 518.716 531.383 519.958V518.086H529.349V527.626ZM539.461 527.824C540.883 527.824 541.945 527.266 542.809 526.348L541.747 525.088C541.117 525.7 540.451 526.096 539.551 526.096C538.309 526.096 537.319 525.232 537.139 523.63H543.115C543.133 523.342 543.133 523.054 543.133 522.928C543.133 520.066 541.765 517.906 539.173 517.906C536.833 517.906 535.105 519.958 535.105 522.82V522.964C535.105 525.952 537.013 527.824 539.461 527.824ZM537.121 522.226C537.265 520.606 538.057 519.616 539.173 519.616C540.361 519.616 541.045 520.714 541.153 522.226H537.121ZM551.993 527.806C553.235 527.806 554.081 527.266 554.639 526.456V527.626H556.637V521.704C556.637 520.516 556.313 519.58 555.683 518.95C555.071 518.32 554.117 517.978 552.875 517.978C551.597 517.978 550.643 518.284 549.725 518.734L550.301 520.354C550.931 520.066 551.687 519.778 552.605 519.778C553.901 519.778 554.657 520.444 554.657 521.722V522.118C554.009 521.902 553.361 521.74 552.461 521.74C550.445 521.74 549.077 522.748 549.077 524.8V524.89C549.077 526.744 550.409 527.806 551.993 527.806ZM552.605 526.276C551.723 526.258 551.057 525.718 551.057 524.764V524.728C551.057 523.72 551.741 523.126 552.911 523.126C553.595 523.126 554.207 523.27 554.675 523.468V524.422C554.675 525.502 553.775 526.294 552.605 526.276ZM558.828 527.626H560.862V521.848C560.862 520.534 561.6 519.742 562.662 519.742C563.742 519.742 564.372 520.48 564.372 521.812V527.626H566.406V521.236C566.406 519.202 565.308 517.906 563.472 517.906C562.176 517.906 561.402 518.644 560.862 519.49V518.086H558.828V527.626ZM571.931 527.806C573.299 527.806 574.127 527.014 574.721 526.096V527.626H576.755V514.63H574.721V519.526C574.145 518.698 573.317 517.906 571.931 517.906C570.005 517.906 568.223 519.526 568.223 522.748V522.982C568.223 526.204 570.023 527.806 571.931 527.806ZM572.489 526.006C571.265 526.006 570.275 524.836 570.275 522.928V522.784C570.275 520.858 571.247 519.706 572.489 519.706C573.713 519.706 574.757 520.894 574.757 522.766V522.946C574.757 524.818 573.713 526.006 572.489 526.006ZM588.975 527.806C590.721 527.806 591.999 527.158 593.097 526.024L591.873 524.548C591.081 525.304 590.289 525.862 589.083 525.862C587.103 525.862 585.609 524.08 585.609 521.344V521.272C585.609 518.59 587.103 516.79 589.083 516.79C590.217 516.79 591.045 517.33 591.783 518.014L593.043 516.412C592.017 515.476 590.847 514.846 589.083 514.846C585.825 514.846 583.449 517.456 583.449 521.272V521.398C583.449 525.25 585.753 527.806 588.975 527.806ZM594.775 527.626H596.809V523.414C596.809 521.236 597.925 520.156 599.581 520.156H599.671V517.942C598.231 517.87 597.313 518.716 596.809 519.958V518.086H594.775V527.626ZM604.887 527.824C606.309 527.824 607.371 527.266 608.235 526.348L607.173 525.088C606.543 525.7 605.877 526.096 604.977 526.096C603.735 526.096 602.745 525.232 602.565 523.63H608.541C608.559 523.342 608.559 523.054 608.559 522.928C608.559 520.066 607.191 517.906 604.599 517.906C602.259 517.906 600.531 519.958 600.531 522.82V522.964C600.531 525.952 602.439 527.824 604.887 527.824ZM602.547 522.226C602.691 520.606 603.483 519.616 604.599 519.616C605.787 519.616 606.471 520.714 606.579 522.226H602.547ZM612.778 527.806C614.02 527.806 614.866 527.266 615.424 526.456V527.626H617.422V521.704C617.422 520.516 617.098 519.58 616.468 518.95C615.856 518.32 614.902 517.978 613.66 517.978C612.382 517.978 611.428 518.284 610.51 518.734L611.086 520.354C611.716 520.066 612.472 519.778 613.39 519.778C614.686 519.778 615.442 520.444 615.442 521.722V522.118C614.794 521.902 614.146 521.74 613.246 521.74C611.23 521.74 609.862 522.748 609.862 524.8V524.89C609.862 526.744 611.194 527.806 612.778 527.806ZM613.39 526.276C612.508 526.258 611.842 525.718 611.842 524.764V524.728C611.842 523.72 612.526 523.126 613.696 523.126C614.38 523.126 614.992 523.27 615.46 523.468V524.422C615.46 525.502 614.56 526.294 613.39 526.276ZM622.387 527.77C623.071 527.77 623.611 527.608 624.079 527.356V525.682C623.737 525.862 623.377 525.952 622.981 525.952C622.333 525.952 621.955 525.646 621.955 524.908V519.832H624.097V518.086H621.955V515.512H619.921V518.086H618.877V519.832H619.921V525.322C619.921 527.176 620.983 527.77 622.387 527.77ZM629.637 527.824C631.059 527.824 632.121 527.266 632.985 526.348L631.923 525.088C631.293 525.7 630.627 526.096 629.727 526.096C628.485 526.096 627.495 525.232 627.315 523.63H633.291C633.309 523.342 633.309 523.054 633.309 522.928C633.309 520.066 631.941 517.906 629.349 517.906C627.009 517.906 625.281 519.958 625.281 522.82V522.964C625.281 525.952 627.189 527.824 629.637 527.824ZM627.297 522.226C627.441 520.606 628.233 519.616 629.349 519.616C630.537 519.616 631.221 520.714 631.329 522.226H627.297Z" fill="white"/>
<path d="M778.233 418.353H780.321V413.907H782.337C782.373 413.907 782.427 413.907 782.463 413.889L785.145 418.353H787.557L784.587 413.475C786.117 412.935 787.197 411.729 787.197 409.785V409.713C787.197 408.561 786.819 407.607 786.153 406.941C785.397 406.185 784.227 405.753 782.787 405.753H778.233V418.353ZM780.321 412.035V407.661H782.607C784.173 407.661 785.091 408.399 785.091 409.821V409.857C785.091 411.171 784.191 412.035 782.571 412.035H780.321ZM792.998 418.551C794.42 418.551 795.482 417.993 796.346 417.075L795.284 415.815C794.654 416.427 793.988 416.823 793.088 416.823C791.846 416.823 790.856 415.959 790.676 414.357H796.652C796.67 414.069 796.67 413.781 796.67 413.655C796.67 410.793 795.302 408.633 792.71 408.633C790.37 408.633 788.642 410.685 788.642 413.547V413.691C788.642 416.679 790.55 418.551 792.998 418.551ZM790.658 412.953C790.802 411.333 791.594 410.343 792.71 410.343C793.898 410.343 794.582 411.441 794.69 412.953H790.658ZM801.267 418.533C803.103 418.533 804.525 417.507 804.525 415.635V415.617C804.525 414.123 803.409 413.439 801.933 412.773C800.817 412.269 800.061 411.945 800.061 411.315V411.279C800.061 410.757 800.511 410.343 801.267 410.343C802.023 410.343 802.815 410.703 803.535 411.189L804.399 409.695C803.499 409.047 802.365 408.669 801.303 408.669C799.521 408.669 798.153 409.749 798.153 411.459V411.495C798.153 413.061 799.341 413.709 800.763 414.321C801.897 414.807 802.635 415.113 802.635 415.797V415.815C802.635 416.409 802.149 416.859 801.303 416.859C800.457 416.859 799.539 416.445 798.675 415.743L797.721 417.201C798.819 418.119 800.133 418.533 801.267 418.533ZM810.242 418.551C811.664 418.551 812.726 417.993 813.59 417.075L812.528 415.815C811.898 416.427 811.232 416.823 810.332 416.823C809.09 416.823 808.1 415.959 807.92 414.357H813.896C813.914 414.069 813.914 413.781 813.914 413.655C813.914 410.793 812.546 408.633 809.954 408.633C807.614 408.633 805.886 410.685 805.886 413.547V413.691C805.886 416.679 807.794 418.551 810.242 418.551ZM807.902 412.953C808.046 411.333 808.838 410.343 809.954 410.343C811.142 410.343 811.826 411.441 811.934 412.953H807.902ZM818.133 418.533C819.375 418.533 820.221 417.993 820.779 417.183V418.353H822.777V412.431C822.777 411.243 822.453 410.307 821.823 409.677C821.211 409.047 820.257 408.705 819.015 408.705C817.737 408.705 816.783 409.011 815.865 409.461L816.441 411.081C817.071 410.793 817.827 410.505 818.745 410.505C820.041 410.505 820.797 411.171 820.797 412.449V412.845C820.149 412.629 819.501 412.467 818.601 412.467C816.585 412.467 815.217 413.475 815.217 415.527V415.617C815.217 417.471 816.549 418.533 818.133 418.533ZM818.745 417.003C817.863 416.985 817.197 416.445 817.197 415.491V415.455C817.197 414.447 817.881 413.853 819.051 413.853C819.735 413.853 820.347 413.997 820.815 414.195V415.149C820.815 416.229 819.915 417.021 818.745 417.003ZM824.968 418.353H827.002V414.141C827.002 411.963 828.118 410.883 829.774 410.883H829.864V408.669C828.424 408.597 827.506 409.443 827.002 410.685V408.813H824.968V418.353ZM835.008 418.551C836.466 418.551 837.42 417.957 838.176 417.111L837.078 415.761C836.52 416.319 835.962 416.733 835.134 416.733C833.748 416.733 832.776 415.491 832.776 413.637V413.547C832.776 411.747 833.748 410.469 835.08 410.469C835.944 410.469 836.502 410.901 837.006 411.423L838.14 409.929C837.348 409.137 836.448 408.633 835.08 408.633C832.578 408.633 830.724 410.685 830.724 413.529V413.709C830.724 416.553 832.524 418.551 835.008 418.551ZM839.822 418.353H841.856V412.575C841.856 411.261 842.594 410.469 843.656 410.469C844.736 410.469 845.366 411.207 845.366 412.539V418.353H847.4V411.963C847.4 409.929 846.302 408.633 844.466 408.633C843.17 408.633 842.396 409.371 841.856 410.217V405.357H839.822V418.353ZM856.63 418.533C857.872 418.533 858.718 417.993 859.276 417.183V418.353H861.274V412.431C861.274 411.243 860.95 410.307 860.32 409.677C859.708 409.047 858.754 408.705 857.512 408.705C856.234 408.705 855.28 409.011 854.362 409.461L854.938 411.081C855.568 410.793 856.324 410.505 857.242 410.505C858.538 410.505 859.294 411.171 859.294 412.449V412.845C858.646 412.629 857.998 412.467 857.098 412.467C855.082 412.467 853.714 413.475 853.714 415.527V415.617C853.714 417.471 855.046 418.533 856.63 418.533ZM857.242 417.003C856.36 416.985 855.694 416.445 855.694 415.491V415.455C855.694 414.447 856.378 413.853 857.548 413.853C858.232 413.853 858.844 413.997 859.312 414.195V415.149C859.312 416.229 858.412 417.021 857.242 417.003ZM863.465 418.353H865.499V412.575C865.499 411.261 866.237 410.469 867.299 410.469C868.379 410.469 869.009 411.207 869.009 412.539V418.353H871.043V411.963C871.043 409.929 869.945 408.633 868.109 408.633C866.812 408.633 866.039 409.371 865.499 410.217V408.813H863.465V418.353ZM876.568 418.533C877.936 418.533 878.764 417.741 879.358 416.823V418.353H881.392V405.357H879.358V410.253C878.782 409.425 877.954 408.633 876.568 408.633C874.642 408.633 872.86 410.253 872.86 413.475V413.709C872.86 416.931 874.66 418.533 876.568 418.533ZM877.126 416.733C875.902 416.733 874.912 415.563 874.912 413.655V413.511C874.912 411.585 875.884 410.433 877.126 410.433C878.35 410.433 879.394 411.621 879.394 413.493V413.673C879.394 415.545 878.35 416.733 877.126 416.733ZM893.612 418.533C895.358 418.533 896.636 417.885 897.734 416.751L896.51 415.275C895.718 416.031 894.926 416.589 893.72 416.589C891.74 416.589 890.246 414.807 890.246 412.071V411.999C890.246 409.317 891.74 407.517 893.72 407.517C894.854 407.517 895.682 408.057 896.42 408.741L897.68 407.139C896.654 406.203 895.484 405.573 893.72 405.573C890.462 405.573 888.086 408.183 888.086 411.999V412.125C888.086 415.977 890.39 418.533 893.612 418.533ZM899.412 418.353H901.446V414.141C901.446 411.963 902.562 410.883 904.218 410.883H904.308V408.669C902.868 408.597 901.95 409.443 901.446 410.685V408.813H899.412V418.353ZM909.523 418.551C910.945 418.551 912.007 417.993 912.871 417.075L911.809 415.815C911.179 416.427 910.513 416.823 909.613 416.823C908.371 416.823 907.381 415.959 907.201 414.357H913.177C913.195 414.069 913.195 413.781 913.195 413.655C913.195 410.793 911.827 408.633 909.235 408.633C906.895 408.633 905.167 410.685 905.167 413.547V413.691C905.167 416.679 907.075 418.551 909.523 418.551ZM907.183 412.953C907.327 411.333 908.119 410.343 909.235 410.343C910.423 410.343 911.107 411.441 911.215 412.953H907.183ZM917.415 418.533C918.657 418.533 919.503 417.993 920.061 417.183V418.353H922.059V412.431C922.059 411.243 921.735 410.307 921.105 409.677C920.493 409.047 919.539 408.705 918.297 408.705C917.019 408.705 916.065 409.011 915.147 409.461L915.723 411.081C916.353 410.793 917.109 410.505 918.027 410.505C919.323 410.505 920.079 411.171 920.079 412.449V412.845C919.431 412.629 918.783 412.467 917.883 412.467C915.867 412.467 914.499 413.475 914.499 415.527V415.617C914.499 417.471 915.831 418.533 917.415 418.533ZM918.027 417.003C917.145 416.985 916.479 416.445 916.479 415.491V415.455C916.479 414.447 917.163 413.853 918.333 413.853C919.017 413.853 919.629 413.997 920.097 414.195V415.149C920.097 416.229 919.197 417.021 918.027 417.003ZM927.024 418.497C927.708 418.497 928.248 418.335 928.716 418.083V416.409C928.374 416.589 928.014 416.679 927.618 416.679C926.97 416.679 926.592 416.373 926.592 415.635V410.559H928.734V408.813H926.592V406.239H924.558V408.813H923.514V410.559H924.558V416.049C924.558 417.903 925.62 418.497 927.024 418.497ZM930.614 407.427H932.774V405.429H930.614V407.427ZM930.686 418.353H932.72V408.813H930.686V418.353ZM939.073 418.551C941.611 418.551 943.483 416.481 943.483 413.673V413.511C943.483 410.685 941.629 408.633 939.109 408.633C936.571 408.633 934.699 410.721 934.699 413.529V413.691C934.699 416.517 936.553 418.551 939.073 418.551ZM939.109 416.769C937.723 416.769 936.733 415.419 936.733 413.637V413.529C936.733 411.747 937.651 410.433 939.073 410.433C940.459 410.433 941.449 411.765 941.449 413.547V413.655C941.449 415.437 940.531 416.769 939.109 416.769ZM945.361 418.353H947.395V412.575C947.395 411.261 948.133 410.469 949.195 410.469C950.275 410.469 950.905 411.207 950.905 412.539V418.353H952.939V411.963C952.939 409.929 951.841 408.633 950.005 408.633C948.709 408.633 947.935 409.371 947.395 410.217V408.813H945.361V418.353Z" fill="white"/>
<path d="M749.528 511.236H751.616V507.15H753.434C756.044 507.114 758.096 505.656 758.096 502.866V502.83C758.096 500.22 756.314 498.636 753.56 498.636H749.528V511.236ZM751.616 505.26V500.544H753.434C755.036 500.544 755.972 501.372 755.972 502.884V502.902C755.972 504.306 755.036 505.26 753.434 505.26H751.616ZM759.789 511.236H761.823V507.024C761.823 504.846 762.939 503.766 764.595 503.766H764.685V501.552C763.245 501.48 762.327 502.326 761.823 503.568V501.696H759.789V511.236ZM769.918 511.434C772.456 511.434 774.328 509.364 774.328 506.556V506.394C774.328 503.568 772.474 501.516 769.954 501.516C767.416 501.516 765.544 503.604 765.544 506.412V506.574C765.544 509.4 767.398 511.434 769.918 511.434ZM769.954 509.652C768.568 509.652 767.578 508.302 767.578 506.52V506.412C767.578 504.63 768.496 503.316 769.918 503.316C771.304 503.316 772.294 504.648 772.294 506.43V506.538C772.294 508.32 771.376 509.652 769.954 509.652ZM776.639 511.236H778.673V503.442H780.761V501.75H778.655V501.21C778.655 500.31 779.051 499.896 779.789 499.896C780.149 499.896 780.455 499.968 780.779 500.058V498.348C780.383 498.222 779.951 498.15 779.339 498.15C778.475 498.15 777.809 498.384 777.341 498.834C776.873 499.302 776.639 500.04 776.639 501.012V501.75H775.577V503.442H776.639V511.236ZM785.879 511.434C787.301 511.434 788.363 510.876 789.227 509.958L788.165 508.698C787.535 509.31 786.869 509.706 785.969 509.706C784.727 509.706 783.737 508.842 783.557 507.24H789.533C789.551 506.952 789.551 506.664 789.551 506.538C789.551 503.676 788.183 501.516 785.591 501.516C783.251 501.516 781.523 503.568 781.523 506.43V506.574C781.523 509.562 783.431 511.434 785.879 511.434ZM783.539 505.836C783.683 504.216 784.475 503.226 785.591 503.226C786.779 503.226 787.463 504.324 787.571 505.836H783.539ZM794.148 511.416C795.984 511.416 797.406 510.39 797.406 508.518V508.5C797.406 507.006 796.29 506.322 794.814 505.656C793.698 505.152 792.942 504.828 792.942 504.198V504.162C792.942 503.64 793.392 503.226 794.148 503.226C794.904 503.226 795.696 503.586 796.416 504.072L797.28 502.578C796.38 501.93 795.246 501.552 794.184 501.552C792.402 501.552 791.034 502.632 791.034 504.342V504.378C791.034 505.944 792.222 506.592 793.644 507.204C794.778 507.69 795.516 507.996 795.516 508.68V508.698C795.516 509.292 795.03 509.742 794.184 509.742C793.338 509.742 792.42 509.328 791.556 508.626L790.602 510.084C791.7 511.002 793.014 511.416 794.148 511.416ZM801.83 511.416C803.666 511.416 805.088 510.39 805.088 508.518V508.5C805.088 507.006 803.972 506.322 802.496 505.656C801.38 505.152 800.624 504.828 800.624 504.198V504.162C800.624 503.64 801.074 503.226 801.83 503.226C802.586 503.226 803.378 503.586 804.098 504.072L804.962 502.578C804.062 501.93 802.928 501.552 801.866 501.552C800.084 501.552 798.716 502.632 798.716 504.342V504.378C798.716 505.944 799.904 506.592 801.326 507.204C802.46 507.69 803.198 507.996 803.198 508.68V508.698C803.198 509.292 802.712 509.742 801.866 509.742C801.02 509.742 800.102 509.328 799.238 508.626L798.284 510.084C799.382 511.002 800.696 511.416 801.83 511.416ZM806.917 500.31H809.077V498.312H806.917V500.31ZM806.989 511.236H809.023V501.696H806.989V511.236ZM815.375 511.434C817.913 511.434 819.785 509.364 819.785 506.556V506.394C819.785 503.568 817.931 501.516 815.411 501.516C812.873 501.516 811.001 503.604 811.001 506.412V506.574C811.001 509.4 812.855 511.434 815.375 511.434ZM815.411 509.652C814.025 509.652 813.035 508.302 813.035 506.52V506.412C813.035 504.63 813.953 503.316 815.375 503.316C816.761 503.316 817.751 504.648 817.751 506.43V506.538C817.751 508.32 816.833 509.652 815.411 509.652ZM821.664 511.236H823.698V505.458C823.698 504.144 824.436 503.352 825.498 503.352C826.578 503.352 827.208 504.09 827.208 505.422V511.236H829.242V504.846C829.242 502.812 828.144 501.516 826.308 501.516C825.012 501.516 824.238 502.254 823.698 503.1V501.696H821.664V511.236ZM833.831 511.416C835.073 511.416 835.919 510.876 836.477 510.066V511.236H838.475V505.314C838.475 504.126 838.151 503.19 837.521 502.56C836.909 501.93 835.955 501.588 834.713 501.588C833.435 501.588 832.481 501.894 831.563 502.344L832.139 503.964C832.769 503.676 833.525 503.388 834.443 503.388C835.739 503.388 836.495 504.054 836.495 505.332V505.728C835.847 505.512 835.199 505.35 834.299 505.35C832.283 505.35 830.915 506.358 830.915 508.41V508.5C830.915 510.354 832.247 511.416 833.831 511.416ZM834.443 509.886C833.561 509.868 832.895 509.328 832.895 508.374V508.338C832.895 507.33 833.579 506.736 834.749 506.736C835.433 506.736 836.045 506.88 836.513 507.078V508.032C836.513 509.112 835.613 509.904 834.443 509.886ZM840.774 511.236H842.808V498.24H840.774V511.236ZM850.075 511.236H853.927C857.527 511.236 859.903 508.68 859.903 504.99V504.846C859.903 501.156 857.527 498.636 853.927 498.636H850.075V511.236ZM853.909 500.526C856.213 500.526 857.743 502.182 857.743 504.9V505.008C857.743 507.708 856.213 509.346 853.909 509.346H852.163V500.526H853.909ZM865.877 511.434C867.299 511.434 868.361 510.876 869.225 509.958L868.163 508.698C867.533 509.31 866.867 509.706 865.967 509.706C864.725 509.706 863.735 508.842 863.555 507.24H869.531C869.549 506.952 869.549 506.664 869.549 506.538C869.549 503.676 868.181 501.516 865.589 501.516C863.249 501.516 861.521 503.568 861.521 506.43V506.574C861.521 509.562 863.429 511.434 865.877 511.434ZM863.537 505.836C863.681 504.216 864.473 503.226 865.589 503.226C866.777 503.226 867.461 504.324 867.569 505.836H863.537ZM873.598 511.308H875.488L878.818 501.696H876.712L874.552 508.644L872.41 501.696H870.268L873.598 511.308ZM883.789 511.434C885.211 511.434 886.273 510.876 887.137 509.958L886.075 508.698C885.445 509.31 884.779 509.706 883.879 509.706C882.637 509.706 881.647 508.842 881.467 507.24H887.443C887.461 506.952 887.461 506.664 887.461 506.538C887.461 503.676 886.093 501.516 883.501 501.516C881.161 501.516 879.433 503.568 879.433 506.43V506.574C879.433 509.562 881.341 511.434 883.789 511.434ZM881.449 505.836C881.593 504.216 882.385 503.226 883.501 503.226C884.689 503.226 885.373 504.324 885.481 505.836H881.449ZM889.412 511.236H891.446V498.24H889.412V511.236ZM897.799 511.434C900.337 511.434 902.209 509.364 902.209 506.556V506.394C902.209 503.568 900.355 501.516 897.835 501.516C895.297 501.516 893.425 503.604 893.425 506.412V506.574C893.425 509.4 895.279 511.434 897.799 511.434ZM897.835 509.652C896.449 509.652 895.459 508.302 895.459 506.52V506.412C895.459 504.63 896.377 503.316 897.799 503.316C899.185 503.316 900.175 504.648 900.175 506.43V506.538C900.175 508.32 899.257 509.652 897.835 509.652ZM904.088 513.954H906.122V509.796C906.698 510.642 907.526 511.416 908.912 511.416C910.838 511.416 912.62 509.796 912.62 506.592V506.34C912.62 503.118 910.82 501.516 908.912 501.516C907.544 501.516 906.716 502.308 906.122 503.226V501.696H904.088V513.954ZM908.354 509.616C907.13 509.616 906.086 508.428 906.086 506.556V506.376C906.086 504.504 907.13 503.316 908.354 503.316C909.578 503.316 910.568 504.486 910.568 506.394V506.556C910.568 508.464 909.596 509.616 908.354 509.616ZM914.529 511.236H916.563V505.476C916.563 504.162 917.265 503.352 918.291 503.352C919.299 503.352 919.893 504.072 919.893 505.422V511.236H921.927V505.458C921.927 504.108 922.647 503.352 923.637 503.352C924.681 503.352 925.257 504.072 925.257 505.44V511.236H927.291V504.846C927.291 502.686 926.139 501.516 924.375 501.516C923.097 501.516 922.233 502.182 921.585 503.046C921.135 502.11 920.289 501.516 919.119 501.516C917.859 501.516 917.121 502.236 916.563 503.082V501.696H914.529V511.236ZM933.465 511.434C934.887 511.434 935.949 510.876 936.813 509.958L935.751 508.698C935.121 509.31 934.455 509.706 933.555 509.706C932.313 509.706 931.323 508.842 931.143 507.24H937.119C937.137 506.952 937.137 506.664 937.137 506.538C937.137 503.676 935.769 501.516 933.177 501.516C930.837 501.516 929.109 503.568 929.109 506.43V506.574C929.109 509.562 931.017 511.434 933.465 511.434ZM931.125 505.836C931.269 504.216 932.061 503.226 933.177 503.226C934.365 503.226 935.049 504.324 935.157 505.836H931.125ZM938.98 511.236H941.014V505.458C941.014 504.144 941.752 503.352 942.814 503.352C943.894 503.352 944.524 504.09 944.524 505.422V511.236H946.558V504.846C946.558 502.812 945.46 501.516 943.624 501.516C942.328 501.516 941.554 502.254 941.014 503.1V501.696H938.98V511.236ZM951.598 511.38C952.282 511.38 952.822 511.218 953.29 510.966V509.292C952.948 509.472 952.588 509.562 952.192 509.562C951.544 509.562 951.166 509.256 951.166 508.518V503.442H953.308V501.696H951.166V499.122H949.132V501.696H948.088V503.442H949.132V508.932C949.132 510.786 950.194 511.38 951.598 511.38Z" fill="white"/>
<path d="M781.604 587.032C783.35 587.032 784.628 586.384 785.726 585.25L784.502 583.774C783.71 584.53 782.918 585.088 781.712 585.088C779.732 585.088 778.238 583.306 778.238 580.57V580.498C778.238 577.816 779.732 576.016 781.712 576.016C782.846 576.016 783.674 576.556 784.412 577.24L785.672 575.638C784.646 574.702 783.476 574.072 781.712 574.072C778.454 574.072 776.078 576.682 776.078 580.498V580.624C776.078 584.476 778.382 587.032 781.604 587.032ZM791.153 587.05C793.691 587.05 795.563 584.98 795.563 582.172V582.01C795.563 579.184 793.709 577.132 791.189 577.132C788.651 577.132 786.779 579.22 786.779 582.028V582.19C786.779 585.016 788.633 587.05 791.153 587.05ZM791.189 585.268C789.803 585.268 788.813 583.918 788.813 582.136V582.028C788.813 580.246 789.731 578.932 791.153 578.932C792.539 578.932 793.529 580.264 793.529 582.046V582.154C793.529 583.936 792.611 585.268 791.189 585.268ZM797.441 586.852H799.475V581.074C799.475 579.76 800.213 578.968 801.275 578.968C802.355 578.968 802.985 579.706 802.985 581.038V586.852H805.019V580.462C805.019 578.428 803.921 577.132 802.085 577.132C800.789 577.132 800.015 577.87 799.475 578.716V577.312H797.441V586.852ZM811.084 587.05C812.542 587.05 813.496 586.456 814.252 585.61L813.154 584.26C812.596 584.818 812.038 585.232 811.21 585.232C809.824 585.232 808.852 583.99 808.852 582.136V582.046C808.852 580.246 809.824 578.968 811.156 578.968C812.02 578.968 812.578 579.4 813.082 579.922L814.216 578.428C813.424 577.636 812.524 577.132 811.156 577.132C808.654 577.132 806.8 579.184 806.8 582.028V582.208C806.8 585.052 808.6 587.05 811.084 587.05ZM819.594 587.05C821.016 587.05 822.078 586.492 822.942 585.574L821.88 584.314C821.25 584.926 820.584 585.322 819.684 585.322C818.442 585.322 817.452 584.458 817.272 582.856H823.248C823.266 582.568 823.266 582.28 823.266 582.154C823.266 579.292 821.898 577.132 819.306 577.132C816.966 577.132 815.238 579.184 815.238 582.046V582.19C815.238 585.178 817.146 587.05 819.594 587.05ZM817.254 581.452C817.398 579.832 818.19 578.842 819.306 578.842C820.494 578.842 821.178 579.94 821.286 581.452H817.254ZM825.109 589.57H827.143V585.412C827.719 586.258 828.547 587.032 829.933 587.032C831.859 587.032 833.641 585.412 833.641 582.208V581.956C833.641 578.734 831.841 577.132 829.933 577.132C828.565 577.132 827.737 577.924 827.143 578.842V577.312H825.109V589.57ZM829.375 585.232C828.151 585.232 827.107 584.044 827.107 582.172V581.992C827.107 580.12 828.151 578.932 829.375 578.932C830.599 578.932 831.589 580.102 831.589 582.01V582.172C831.589 584.08 830.617 585.232 829.375 585.232ZM838.412 586.996C839.096 586.996 839.636 586.834 840.104 586.582V584.908C839.762 585.088 839.402 585.178 839.006 585.178C838.358 585.178 837.98 584.872 837.98 584.134V579.058H840.122V577.312H837.98V574.738H835.946V577.312H834.902V579.058H835.946V584.548C835.946 586.402 837.008 586.996 838.412 586.996ZM849.469 586.996C850.153 586.996 850.693 586.834 851.161 586.582V584.908C850.819 585.088 850.459 585.178 850.063 585.178C849.415 585.178 849.037 584.872 849.037 584.134V579.058H851.179V577.312H849.037V574.738H847.003V577.312H845.959V579.058H847.003V584.548C847.003 586.402 848.065 586.996 849.469 586.996ZM856.737 587.05C859.275 587.05 861.147 584.98 861.147 582.172V582.01C861.147 579.184 859.293 577.132 856.773 577.132C854.235 577.132 852.363 579.22 852.363 582.028V582.19C852.363 585.016 854.217 587.05 856.737 587.05ZM856.773 585.268C855.387 585.268 854.397 583.918 854.397 582.136V582.028C854.397 580.246 855.315 578.932 856.737 578.932C858.123 578.932 859.113 580.264 859.113 582.046V582.154C859.113 583.936 858.195 585.268 856.773 585.268ZM867.882 586.852H869.97V582.406H871.986C872.022 582.406 872.076 582.406 872.112 582.388L874.794 586.852H877.206L874.236 581.974C875.766 581.434 876.846 580.228 876.846 578.284V578.212C876.846 577.06 876.468 576.106 875.802 575.44C875.046 574.684 873.876 574.252 872.436 574.252H867.882V586.852ZM869.97 580.534V576.16H872.256C873.822 576.16 874.74 576.898 874.74 578.32V578.356C874.74 579.67 873.84 580.534 872.22 580.534H869.97ZM882.646 587.05C884.068 587.05 885.13 586.492 885.994 585.574L884.932 584.314C884.302 584.926 883.636 585.322 882.736 585.322C881.494 585.322 880.504 584.458 880.324 582.856H886.3C886.318 582.568 886.318 582.28 886.318 582.154C886.318 579.292 884.95 577.132 882.358 577.132C880.018 577.132 878.29 579.184 878.29 582.046V582.19C878.29 585.178 880.198 587.05 882.646 587.05ZM880.306 581.452C880.45 579.832 881.242 578.842 882.358 578.842C883.546 578.842 884.23 579.94 884.338 581.452H880.306ZM890.538 587.032C891.78 587.032 892.626 586.492 893.184 585.682V586.852H895.182V580.93C895.182 579.742 894.858 578.806 894.228 578.176C893.616 577.546 892.662 577.204 891.42 577.204C890.142 577.204 889.188 577.51 888.27 577.96L888.846 579.58C889.476 579.292 890.232 579.004 891.15 579.004C892.446 579.004 893.202 579.67 893.202 580.948V581.344C892.554 581.128 891.906 580.966 891.006 580.966C888.99 580.966 887.622 581.974 887.622 584.026V584.116C887.622 585.97 888.954 587.032 890.538 587.032ZM891.15 585.502C890.268 585.484 889.602 584.944 889.602 583.99V583.954C889.602 582.946 890.286 582.352 891.456 582.352C892.14 582.352 892.752 582.496 893.22 582.694V583.648C893.22 584.728 892.32 585.52 891.15 585.502ZM897.481 586.852H899.515V573.856H897.481V586.852ZM901.961 575.926H904.121V573.928H901.961V575.926ZM902.033 586.852H904.067V577.312H902.033V586.852ZM906.064 586.852H913.174V585.16H908.548L913.192 578.716V577.312H906.226V579.004H910.708L906.064 585.448V586.852ZM917.415 587.032C918.657 587.032 919.503 586.492 920.061 585.682V586.852H922.059V580.93C922.059 579.742 921.735 578.806 921.105 578.176C920.493 577.546 919.539 577.204 918.297 577.204C917.019 577.204 916.065 577.51 915.147 577.96L915.723 579.58C916.353 579.292 917.109 579.004 918.027 579.004C919.323 579.004 920.079 579.67 920.079 580.948V581.344C919.431 581.128 918.783 580.966 917.883 580.966C915.867 580.966 914.499 581.974 914.499 584.026V584.116C914.499 585.97 915.831 587.032 917.415 587.032ZM918.027 585.502C917.145 585.484 916.479 584.944 916.479 583.99V583.954C916.479 582.946 917.163 582.352 918.333 582.352C919.017 582.352 919.629 582.496 920.097 582.694V583.648C920.097 584.728 919.197 585.52 918.027 585.502ZM927.024 586.996C927.708 586.996 928.248 586.834 928.716 586.582V584.908C928.374 585.088 928.014 585.178 927.618 585.178C926.97 585.178 926.592 584.872 926.592 584.134V579.058H928.734V577.312H926.592V574.738H924.558V577.312H923.514V579.058H924.558V584.548C924.558 586.402 925.62 586.996 927.024 586.996ZM930.614 575.926H932.774V573.928H930.614V575.926ZM930.686 586.852H932.72V577.312H930.686V586.852ZM939.073 587.05C941.611 587.05 943.483 584.98 943.483 582.172V582.01C943.483 579.184 941.629 577.132 939.109 577.132C936.571 577.132 934.699 579.22 934.699 582.028V582.19C934.699 585.016 936.553 587.05 939.073 587.05ZM939.109 585.268C937.723 585.268 936.733 583.918 936.733 582.136V582.028C936.733 580.246 937.651 578.932 939.073 578.932C940.459 578.932 941.449 580.264 941.449 582.046V582.154C941.449 583.936 940.531 585.268 939.109 585.268ZM945.361 586.852H947.395V581.074C947.395 579.76 948.133 578.968 949.195 578.968C950.275 578.968 950.905 579.706 950.905 581.038V586.852H952.939V580.462C952.939 578.428 951.841 577.132 950.005 577.132C948.709 577.132 947.935 577.87 947.395 578.716V577.312H945.361V586.852Z" fill="white"/>
</svg>
