<svg width="813" height="600" viewBox="0 0 813 600" fill="none" xmlns="http://www.w3.org/2000/svg">
<g clip-path="url(#clip0)">
<path d="M11.6667 20.6352H0.833344V595.635H11.6667V20.6352Z" fill="#B9B9B9"/>
<path d="M278.333 4.16669H267.5V30.0676H278.333V4.16669Z" fill="#B9B9B9"/>
<path d="M278.333 38.4009H267.5V46.459H278.333V38.4009Z" fill="#B9B9B9"/>
<path d="M278.333 54.7923H267.5V595.833H278.333V54.7923Z" fill="#B9B9B9"/>
<path d="M545 42.8653H534.167V175.248H545V42.8653Z" fill="#B9B9B9"/>
<path d="M545 183.581H534.167V229.627H545V183.581Z" fill="#B9B9B9"/>
<path d="M545 237.96H534.167V307.029H545V237.96Z" fill="#B9B9B9"/>
<path d="M545 315.485H534.167V557.226H545V315.485Z" fill="#B9B9B9"/>
<path d="M811.667 307.882H800.833V382.707H811.667V307.882Z" fill="#B9B9B9"/>
<path d="M811.667 391.04H800.833V454.353H811.667V391.04Z" fill="#B9B9B9"/>
<path d="M811.667 462.687H800.833V508.733H811.667V462.687Z" fill="#B9B9B9"/>
<g style="mix-blend-mode:multiply">
<g style="mix-blend-mode:multiply">
<path d="M12.5 33.5857C139.583 33.5857 139.583 17.1171 266.667 17.1171" stroke="#DDDDDD" stroke-width="31.0811"/>
</g>
</g>
<g style="mix-blend-mode:multiply">
<g style="mix-blend-mode:multiply">
<path d="M12.5 50.5651C139.583 50.5651 139.583 42.4299 266.667 42.4299" stroke="#DDDDDD" stroke-width="9.66967"/>
</g>
</g>
<g style="mix-blend-mode:multiply">
<g style="mix-blend-mode:multiply">
<path d="M12.5 325.115C139.583 325.115 139.583 325.313 266.667 325.313" stroke="#009ADD" stroke-width="649.249"/>
</g>
</g>
<g style="mix-blend-mode:multiply">
<g style="mix-blend-mode:multiply">
<path d="M279.167 120.983C406.25 120.983 406.25 109.057 533.333 109.057" stroke="#F55861" stroke-width="158.859"/>
</g>
</g>
<g style="mix-blend-mode:multiply">
<g style="mix-blend-mode:multiply">
<path d="M279.167 210.198C406.25 210.198 406.25 206.604 533.333 206.604" stroke="#F55861" stroke-width="55.2553"/>
</g>
</g>
<g style="mix-blend-mode:multiply">
<g style="mix-blend-mode:multiply">
<path d="M279.167 267.755C406.25 267.755 406.25 272.495 533.333 272.495" stroke="#F55861" stroke-width="82.8829"/>
</g>
</g>
<g style="mix-blend-mode:multiply">
<g style="mix-blend-mode:multiply">
<path d="M279.167 423.161C406.25 423.161 406.25 436.355 533.333 436.355" stroke="#090809" stroke-width="290.09"/>
</g>
</g>
<g style="mix-blend-mode:multiply">
<g style="mix-blend-mode:multiply">
<path d="M545.833 352.897C672.917 352.897 672.917 345.294 800 345.294" stroke="#F40000" stroke-width="89.7898"/>
</g>
</g>
<g style="mix-blend-mode:multiply">
<g style="mix-blend-mode:multiply">
<path d="M545.833 421.966C672.917 421.966 672.917 422.697 800 422.697" stroke="#F40000" stroke-width="75.976"/>
</g>
</g>
<g style="mix-blend-mode:multiply">
<g style="mix-blend-mode:multiply">
<path d="M545.833 476.646C672.917 476.646 672.917 485.71 800 485.71" stroke="#F40000" stroke-width="55.2553"/>
</g>
</g>
<path d="M18.64 312.135H20.35V304.92L25.105 312.135H26.575V301.635H24.88V308.64L20.26 301.635H18.64V312.135ZM28.85 312.135H35.54V310.56H30.575V307.635H34.91V306.06H30.575V303.21H35.465V301.635H28.85V312.135ZM41.5464 312.285C43.0014 312.285 44.0664 311.745 44.9814 310.8L43.9614 309.57C43.3014 310.2 42.6414 310.665 41.6364 310.665C39.9864 310.665 38.7414 309.18 38.7414 306.9V306.84C38.7414 304.605 39.9864 303.105 41.6364 303.105C42.5814 303.105 43.2714 303.555 43.8864 304.125L44.9364 302.79C44.0814 302.01 43.1064 301.485 41.6364 301.485C38.9214 301.485 36.9414 303.66 36.9414 306.84V306.945C36.9414 310.155 38.8614 312.285 41.5464 312.285ZM45.8092 312.135H47.5642L48.4342 309.66H52.5142L53.3842 312.135H55.1992L51.3442 301.575H49.6642L45.8092 312.135ZM48.9742 308.115L50.4742 303.9L51.9742 308.115H48.9742ZM56.6966 312.135H58.4366V308.73H59.9516C62.1266 308.7 63.8366 307.485 63.8366 305.16V305.13C63.8366 302.955 62.3516 301.635 60.0566 301.635H56.6966V312.135ZM58.4366 307.155V303.225H59.9516C61.2866 303.225 62.0666 303.915 62.0666 305.175V305.19C62.0666 306.36 61.2866 307.155 59.9516 307.155H58.4366Z" fill="white"/>
<path d="M285.307 21.1171H287.047V16.6471H291.172V21.1171H292.912V10.6171H291.172V15.0271H287.047V10.6171H285.307V21.1171ZM298.285 21.2821C300.4 21.2821 301.96 19.5571 301.96 17.2171V17.0821C301.96 14.7271 300.415 13.0171 298.315 13.0171C296.2 13.0171 294.64 14.7571 294.64 17.0971V17.2321C294.64 19.5871 296.185 21.2821 298.285 21.2821ZM298.315 19.7971C297.16 19.7971 296.335 18.6721 296.335 17.1871V17.0971C296.335 15.6121 297.1 14.5171 298.285 14.5171C299.44 14.5171 300.265 15.6271 300.265 17.1121V17.2021C300.265 18.6871 299.5 19.7971 298.315 19.7971ZM303.525 21.1171H305.22V16.3171C305.22 15.2221 305.805 14.5471 306.66 14.5471C307.5 14.5471 307.995 15.1471 307.995 16.2721V21.1171H309.69V16.3021C309.69 15.1771 310.29 14.5471 311.115 14.5471C311.985 14.5471 312.465 15.1471 312.465 16.2871V21.1171H314.16V15.7921C314.16 13.9921 313.2 13.0171 311.73 13.0171C310.665 13.0171 309.945 13.5721 309.405 14.2921C309.03 13.5121 308.325 13.0171 307.35 13.0171C306.3 13.0171 305.685 13.6171 305.22 14.3221V13.1671H303.525V21.1171ZM319.305 21.2821C320.49 21.2821 321.375 20.8171 322.095 20.0521L321.21 19.0021C320.685 19.5121 320.13 19.8421 319.38 19.8421C318.345 19.8421 317.52 19.1221 317.37 17.7871H322.35C322.365 17.5471 322.365 17.3071 322.365 17.2021C322.365 14.8171 321.225 13.0171 319.065 13.0171C317.115 13.0171 315.675 14.7271 315.675 17.1121V17.2321C315.675 19.7221 317.265 21.2821 319.305 21.2821ZM317.355 16.6171C317.475 15.2671 318.135 14.4421 319.065 14.4421C320.055 14.4421 320.625 15.3571 320.715 16.6171H317.355Z" fill="white"/>
<path d="M288.352 46.5649C290.317 46.5649 291.757 45.3799 291.757 43.5349V43.5049C291.757 41.9749 290.857 41.1649 288.907 40.4149C287.122 39.7249 286.732 39.3349 286.732 38.5999V38.5849C286.732 37.8949 287.317 37.3699 288.262 37.3699C289.102 37.3699 289.897 37.7749 290.617 38.3599L291.607 37.0249C290.647 36.1849 289.522 35.7949 288.307 35.7949C286.357 35.7949 284.977 37.0099 284.977 38.7349V38.7649C284.977 40.4449 286.012 41.1799 288.007 41.9299C289.672 42.5449 290.017 42.9799 290.017 43.6399V43.6549C290.017 44.4349 289.372 44.9899 288.367 44.9899C287.257 44.9899 286.387 44.4499 285.607 43.7449L284.557 45.0499C285.697 46.0999 287.002 46.5649 288.352 46.5649ZM293.359 48.6949H295.054V45.2299C295.534 45.9349 296.224 46.5799 297.379 46.5799C298.984 46.5799 300.469 45.2299 300.469 42.5599V42.3499C300.469 39.6649 298.969 38.3299 297.379 38.3299C296.239 38.3299 295.549 38.9899 295.054 39.7549V38.4799H293.359V48.6949ZM296.914 45.0799C295.894 45.0799 295.024 44.0899 295.024 42.5299V42.3799C295.024 40.8199 295.894 39.8299 296.914 39.8299C297.934 39.8299 298.759 40.8049 298.759 42.3949V42.5299C298.759 44.1199 297.949 45.0799 296.914 45.0799ZM305.345 46.5949C307.46 46.5949 309.02 44.8699 309.02 42.5299V42.3949C309.02 40.0399 307.475 38.3299 305.375 38.3299C303.26 38.3299 301.7 40.0699 301.7 42.4099V42.5449C301.7 44.8999 303.245 46.5949 305.345 46.5949ZM305.375 45.1099C304.22 45.1099 303.395 43.9849 303.395 42.4999V42.4099C303.395 40.9249 304.16 39.8299 305.345 39.8299C306.5 39.8299 307.325 40.9399 307.325 42.4249V42.5149C307.325 43.9999 306.56 45.1099 305.375 45.1099ZM312.971 46.5499C313.541 46.5499 313.991 46.4149 314.381 46.2049V44.8099C314.096 44.9599 313.796 45.0349 313.466 45.0349C312.926 45.0349 312.611 44.7799 312.611 44.1649V39.9349H314.396V38.4799H312.611V36.3349H310.916V38.4799H310.046V39.9349H310.916V44.5099C310.916 46.0549 311.801 46.5499 312.971 46.5499ZM316.022 46.4299H317.717V35.5999H316.022V46.4299ZM319.756 37.3249H321.556V35.6599H319.756V37.3249ZM319.816 46.4299H321.511V38.4799H319.816V46.4299ZM326.535 48.7249C327.795 48.7249 328.77 48.4249 329.4 47.7799C329.985 47.1949 330.3 46.3249 330.3 45.1399V38.4799H328.605V39.6649C328.095 38.9599 327.39 38.3299 326.22 38.3299C324.645 38.3299 323.19 39.6049 323.19 42.0649V42.1249C323.19 44.5699 324.63 45.8449 326.22 45.8449C327.375 45.8449 328.065 45.2299 328.62 44.4499V45.2149C328.62 46.6249 327.855 47.3149 326.46 47.3149C325.605 47.3149 324.765 47.0599 324.075 46.6399L323.52 47.9749C324.435 48.4699 325.44 48.7249 326.535 48.7249ZM326.73 44.3749C325.71 44.3749 324.9 43.5049 324.9 42.0949V42.0799C324.9 40.6699 325.695 39.8149 326.73 39.8149C327.75 39.8149 328.635 40.6849 328.635 42.0799V42.1099C328.635 43.4899 327.75 44.3749 326.73 44.3749ZM332.221 46.4299H333.916V41.6149C333.916 40.5199 334.531 39.8599 335.416 39.8599C336.316 39.8599 336.841 40.4749 336.841 41.5849V46.4299H338.536V41.1049C338.536 39.4099 337.621 38.3299 336.091 38.3299C335.011 38.3299 334.366 38.9449 333.916 39.6499V35.5999H332.221V46.4299ZM342.736 46.5499C343.306 46.5499 343.756 46.4149 344.146 46.2049V44.8099C343.861 44.9599 343.561 45.0349 343.231 45.0349C342.691 45.0349 342.376 44.7799 342.376 44.1649V39.9349H344.161V38.4799H342.376V36.3349H340.681V38.4799H339.811V39.9349H340.681V44.5099C340.681 46.0549 341.566 46.5499 342.736 46.5499Z" fill="white" fill-opacity="0.7"/>
<path d="M289.717 329.463C291.202 329.463 292.417 328.893 293.302 328.188V323.478H289.447V325.008H291.652V327.318C291.187 327.648 290.527 327.873 289.792 327.873C288.007 327.873 286.717 326.463 286.717 324.093V324.003C286.717 321.828 287.992 320.283 289.702 320.283C290.767 320.283 291.427 320.688 292.027 321.228L293.062 319.848C292.132 319.068 291.157 318.663 289.732 318.663C286.912 318.663 284.917 320.928 284.917 324.018V324.138C284.917 327.363 286.867 329.463 289.717 329.463ZM295.175 329.313H296.87V325.803C296.87 323.988 297.8 323.088 299.18 323.088H299.255V321.243C298.055 321.183 297.29 321.888 296.87 322.923V321.363H295.175V329.313ZM302.238 329.463C303.273 329.463 303.978 329.013 304.443 328.338V329.313H306.108V324.378C306.108 323.388 305.838 322.608 305.313 322.083C304.803 321.558 304.008 321.273 302.973 321.273C301.908 321.273 301.113 321.528 300.348 321.903L300.828 323.253C301.353 323.013 301.983 322.773 302.748 322.773C303.828 322.773 304.458 323.328 304.458 324.393V324.723C303.918 324.543 303.378 324.408 302.628 324.408C300.948 324.408 299.808 325.248 299.808 326.958V327.033C299.808 328.578 300.918 329.463 302.238 329.463ZM302.748 328.188C302.013 328.173 301.458 327.723 301.458 326.928V326.898C301.458 326.058 302.028 325.563 303.003 325.563C303.573 325.563 304.083 325.683 304.473 325.848V326.643C304.473 327.543 303.723 328.203 302.748 328.188ZM307.934 329.313H309.629V324.498C309.629 323.403 310.244 322.743 311.129 322.743C312.029 322.743 312.554 323.358 312.554 324.468V329.313H314.249V323.988C314.249 322.293 313.334 321.213 311.804 321.213C310.724 321.213 310.079 321.828 309.629 322.533V321.363H307.934V329.313ZM318.449 329.433C319.019 329.433 319.469 329.298 319.859 329.088V327.693C319.574 327.843 319.274 327.918 318.944 327.918C318.404 327.918 318.089 327.663 318.089 327.048V322.818H319.874V321.363H318.089V319.218H316.394V321.363H315.524V322.818H316.394V327.393C316.394 328.938 317.279 329.433 318.449 329.433ZM323.706 329.463C325.236 329.463 326.421 328.608 326.421 327.048V327.033C326.421 325.788 325.491 325.218 324.261 324.663C323.331 324.243 322.701 323.973 322.701 323.448V323.418C322.701 322.983 323.076 322.638 323.706 322.638C324.336 322.638 324.996 322.938 325.596 323.343L326.316 322.098C325.566 321.558 324.621 321.243 323.736 321.243C322.251 321.243 321.111 322.143 321.111 323.568V323.598C321.111 324.903 322.101 325.443 323.286 325.953C324.231 326.358 324.846 326.613 324.846 327.183V327.198C324.846 327.693 324.441 328.068 323.736 328.068C323.031 328.068 322.266 327.723 321.546 327.138L320.751 328.353C321.666 329.118 322.761 329.463 323.706 329.463Z" fill="white"/>
<path d="M495.314 113.207C496.799 113.207 498.014 112.637 498.899 111.932V107.222H495.044V108.752H497.249V111.062C496.784 111.392 496.124 111.617 495.389 111.617C493.604 111.617 492.314 110.207 492.314 107.837V107.747C492.314 105.572 493.589 104.027 495.299 104.027C496.364 104.027 497.024 104.432 497.624 104.972L498.659 103.592C497.729 102.812 496.754 102.407 495.329 102.407C492.509 102.407 490.514 104.672 490.514 107.762V107.882C490.514 111.107 492.464 113.207 495.314 113.207ZM503.143 113.207C504.223 113.207 504.853 112.607 505.303 111.902V113.057H507.013V105.107H505.303V109.922C505.303 111.017 504.688 111.677 503.803 111.677C502.918 111.677 502.393 111.062 502.393 109.952V105.107H500.698V110.432C500.698 112.142 501.598 113.207 503.143 113.207ZM508.962 103.952H510.762V102.287H508.962V103.952ZM509.022 113.057H510.717V105.107H509.022V113.057ZM515.486 113.207C516.626 113.207 517.316 112.547 517.811 111.782V113.057H519.506V102.227H517.811V106.307C517.331 105.617 516.641 104.957 515.486 104.957C513.881 104.957 512.396 106.307 512.396 108.992V109.187C512.396 111.872 513.896 113.207 515.486 113.207ZM515.951 111.707C514.931 111.707 514.106 110.732 514.106 109.142V109.022C514.106 107.417 514.916 106.457 515.951 106.457C516.971 106.457 517.841 107.447 517.841 109.007V109.157C517.841 110.717 516.971 111.707 515.951 111.707ZM524.697 113.222C525.882 113.222 526.767 112.757 527.487 111.992L526.602 110.942C526.077 111.452 525.522 111.782 524.772 111.782C523.737 111.782 522.912 111.062 522.762 109.727H527.742C527.757 109.487 527.757 109.247 527.757 109.142C527.757 106.757 526.617 104.957 524.457 104.957C522.507 104.957 521.067 106.667 521.067 109.052V109.172C521.067 111.662 522.657 113.222 524.697 113.222ZM522.747 108.557C522.867 107.207 523.527 106.382 524.457 106.382C525.447 106.382 526.017 107.297 526.107 108.557H522.747Z" fill="white"/>
<path d="M501.744 210.604H503.484V206.254H507.774V204.664H503.484V201.709H508.329V200.104H501.744V210.604ZM508.288 210.604H510.043L510.913 208.129H514.993L515.863 210.604H517.678L513.823 200.044H512.143L508.288 210.604ZM511.453 206.584L512.953 202.369L514.453 206.584H511.453ZM527.753 209.734L526.613 208.744C527.213 207.844 527.558 206.704 527.558 205.414V205.264C527.558 202.159 525.653 199.939 522.923 199.939C520.178 199.939 518.258 202.174 518.258 205.294V205.444C518.258 208.549 520.163 210.769 522.908 210.769C523.913 210.769 524.828 210.439 525.578 209.869L526.688 210.904L527.753 209.734ZM522.953 209.179C521.273 209.179 520.058 207.724 520.058 205.414V205.279C520.058 203.014 521.243 201.544 522.893 201.544C524.558 201.544 525.758 203.044 525.758 205.294V205.429C525.758 206.284 525.608 207.004 525.338 207.589L523.883 206.194L522.818 207.364L524.378 208.759C523.973 209.044 523.493 209.179 522.953 209.179Z" fill="white"/>
<path d="M465.035 276.495H468.245C471.245 276.495 473.225 274.365 473.225 271.29V271.17C473.225 268.095 471.245 265.995 468.245 265.995H465.035V276.495ZM468.23 267.57C470.15 267.57 471.425 268.95 471.425 271.215V271.305C471.425 273.555 470.15 274.92 468.23 274.92H466.775V267.57H468.23ZM478.203 276.66C479.388 276.66 480.273 276.195 480.993 275.43L480.108 274.38C479.583 274.89 479.028 275.22 478.278 275.22C477.243 275.22 476.418 274.5 476.268 273.165H481.248C481.263 272.925 481.263 272.685 481.263 272.58C481.263 270.195 480.123 268.395 477.963 268.395C476.013 268.395 474.573 270.105 474.573 272.49V272.61C474.573 275.1 476.163 276.66 478.203 276.66ZM476.253 271.995C476.373 270.645 477.033 269.82 477.963 269.82C478.953 269.82 479.523 270.735 479.613 271.995H476.253ZM484.779 276.645C485.814 276.645 486.519 276.195 486.984 275.52V276.495H488.649V271.56C488.649 270.57 488.379 269.79 487.854 269.265C487.344 268.74 486.549 268.455 485.514 268.455C484.449 268.455 483.654 268.71 482.889 269.085L483.369 270.435C483.894 270.195 484.524 269.955 485.289 269.955C486.369 269.955 486.999 270.51 486.999 271.575V271.905C486.459 271.725 485.919 271.59 485.169 271.59C483.489 271.59 482.349 272.43 482.349 274.14V274.215C482.349 275.76 483.459 276.645 484.779 276.645ZM485.289 275.37C484.554 275.355 483.999 274.905 483.999 274.11V274.08C483.999 273.24 484.569 272.745 485.544 272.745C486.114 272.745 486.624 272.865 487.014 273.03V273.825C487.014 274.725 486.264 275.385 485.289 275.37ZM493.235 276.645C494.375 276.645 495.065 275.985 495.56 275.22V276.495H497.255V265.665H495.56V269.745C495.08 269.055 494.39 268.395 493.235 268.395C491.63 268.395 490.145 269.745 490.145 272.43V272.625C490.145 275.31 491.645 276.645 493.235 276.645ZM493.7 275.145C492.68 275.145 491.855 274.17 491.855 272.58V272.46C491.855 270.855 492.665 269.895 493.7 269.895C494.72 269.895 495.59 270.885 495.59 272.445V272.595C495.59 274.155 494.72 275.145 493.7 275.145ZM499.266 276.495H500.961V265.665H499.266V276.495ZM503 267.39H504.8V265.725H503V267.39ZM503.06 276.495H504.755V268.545H503.06V276.495ZM506.764 276.495H508.459V271.68C508.459 270.585 509.074 269.925 509.959 269.925C510.859 269.925 511.384 270.54 511.384 271.65V276.495H513.079V271.17C513.079 269.475 512.164 268.395 510.634 268.395C509.554 268.395 508.909 269.01 508.459 269.715V268.545H506.764V276.495ZM518.193 276.66C519.378 276.66 520.263 276.195 520.983 275.43L520.098 274.38C519.573 274.89 519.018 275.22 518.268 275.22C517.233 275.22 516.408 274.5 516.258 273.165H521.238C521.253 272.925 521.253 272.685 521.253 272.58C521.253 270.195 520.113 268.395 517.953 268.395C516.003 268.395 514.563 270.105 514.563 272.49V272.61C514.563 275.1 516.153 276.66 518.193 276.66ZM516.243 271.995C516.363 270.645 517.023 269.82 517.953 269.82C518.943 269.82 519.513 270.735 519.603 271.995H516.243ZM525.084 276.645C526.614 276.645 527.799 275.79 527.799 274.23V274.215C527.799 272.97 526.869 272.4 525.639 271.845C524.709 271.425 524.079 271.155 524.079 270.63V270.6C524.079 270.165 524.454 269.82 525.084 269.82C525.714 269.82 526.374 270.12 526.974 270.525L527.694 269.28C526.944 268.74 525.999 268.425 525.114 268.425C523.629 268.425 522.489 269.325 522.489 270.75V270.78C522.489 272.085 523.479 272.625 524.664 273.135C525.609 273.54 526.224 273.795 526.224 274.365V274.38C526.224 274.875 525.819 275.25 525.114 275.25C524.409 275.25 523.644 274.905 522.924 274.32L522.129 275.535C523.044 276.3 524.139 276.645 525.084 276.645Z" fill="white"/>
<path d="M404.141 440.355H410.831V438.78H405.866V435.855H410.201V434.28H405.866V431.43H410.756V429.855H404.141V440.355ZM413.822 432.405H411.992L414.362 436.29L411.902 440.355H413.687L415.322 437.52L416.942 440.355H418.772L416.282 436.29L418.667 432.405H416.882L415.337 435.075L413.822 432.405ZM420.104 442.62H421.799V439.155C422.279 439.86 422.969 440.505 424.124 440.505C425.729 440.505 427.214 439.155 427.214 436.485V436.275C427.214 433.59 425.714 432.255 424.124 432.255C422.984 432.255 422.294 432.915 421.799 433.68V432.405H420.104V442.62ZM423.659 439.005C422.639 439.005 421.769 438.015 421.769 436.455V436.305C421.769 434.745 422.639 433.755 423.659 433.755C424.679 433.755 425.504 434.73 425.504 436.32V436.455C425.504 438.045 424.694 439.005 423.659 439.005ZM428.895 440.355H430.59V429.525H428.895V440.355ZM435.884 440.52C437.999 440.52 439.559 438.795 439.559 436.455V436.32C439.559 433.965 438.014 432.255 435.914 432.255C433.799 432.255 432.239 433.995 432.239 436.335V436.47C432.239 438.825 433.784 440.52 435.884 440.52ZM435.914 439.035C434.759 439.035 433.934 437.91 433.934 436.425V436.335C433.934 434.85 434.699 433.755 435.884 433.755C437.039 433.755 437.864 434.865 437.864 436.35V436.44C437.864 437.925 437.099 439.035 435.914 439.035ZM441.124 440.355H442.819V436.845C442.819 435.03 443.749 434.13 445.129 434.13H445.204V432.285C444.004 432.225 443.239 432.93 442.819 433.965V432.405H441.124V440.355ZM449.551 440.52C450.736 440.52 451.621 440.055 452.341 439.29L451.456 438.24C450.931 438.75 450.376 439.08 449.626 439.08C448.591 439.08 447.766 438.36 447.616 437.025H452.596C452.611 436.785 452.611 436.545 452.611 436.44C452.611 434.055 451.471 432.255 449.311 432.255C447.361 432.255 445.921 433.965 445.921 436.35V436.47C445.921 438.96 447.511 440.52 449.551 440.52ZM447.601 435.855C447.721 434.505 448.381 433.68 449.311 433.68C450.301 433.68 450.871 434.595 450.961 435.855H447.601ZM459.994 440.505C461.029 440.505 461.734 440.055 462.199 439.38V440.355H463.864V435.42C463.864 434.43 463.594 433.65 463.069 433.125C462.559 432.6 461.764 432.315 460.729 432.315C459.664 432.315 458.869 432.57 458.104 432.945L458.584 434.295C459.109 434.055 459.739 433.815 460.504 433.815C461.584 433.815 462.214 434.37 462.214 435.435V435.765C461.674 435.585 461.134 435.45 460.384 435.45C458.704 435.45 457.564 436.29 457.564 438V438.075C457.564 439.62 458.674 440.505 459.994 440.505ZM460.504 439.23C459.769 439.215 459.214 438.765 459.214 437.97V437.94C459.214 437.1 459.784 436.605 460.759 436.605C461.329 436.605 461.839 436.725 462.229 436.89V437.685C462.229 438.585 461.479 439.245 460.504 439.23ZM465.69 440.355H467.385V435.54C467.385 434.445 468 433.785 468.885 433.785C469.785 433.785 470.31 434.4 470.31 435.51V440.355H472.005V435.03C472.005 433.335 471.09 432.255 469.56 432.255C468.48 432.255 467.835 432.87 467.385 433.575V432.405H465.69V440.355ZM476.609 440.505C477.749 440.505 478.439 439.845 478.934 439.08V440.355H480.629V429.525H478.934V433.605C478.454 432.915 477.764 432.255 476.609 432.255C475.004 432.255 473.519 433.605 473.519 436.29V436.485C473.519 439.17 475.019 440.505 476.609 440.505ZM477.074 439.005C476.054 439.005 475.229 438.03 475.229 436.44V436.32C475.229 434.715 476.039 433.755 477.074 433.755C478.094 433.755 478.964 434.745 478.964 436.305V436.455C478.964 438.015 478.094 439.005 477.074 439.005ZM490.812 440.505C492.267 440.505 493.332 439.965 494.247 439.02L493.227 437.79C492.567 438.42 491.907 438.885 490.902 438.885C489.252 438.885 488.007 437.4 488.007 435.12V435.06C488.007 432.825 489.252 431.325 490.902 431.325C491.847 431.325 492.537 431.775 493.152 432.345L494.202 431.01C493.347 430.23 492.372 429.705 490.902 429.705C488.187 429.705 486.207 431.88 486.207 435.06V435.165C486.207 438.375 488.127 440.505 490.812 440.505ZM495.646 440.355H497.341V436.845C497.341 435.03 498.271 434.13 499.651 434.13H499.726V432.285C498.526 432.225 497.761 432.93 497.341 433.965V432.405H495.646V440.355ZM504.072 440.52C505.257 440.52 506.142 440.055 506.862 439.29L505.977 438.24C505.452 438.75 504.897 439.08 504.147 439.08C503.112 439.08 502.287 438.36 502.137 437.025H507.117C507.132 436.785 507.132 436.545 507.132 436.44C507.132 434.055 505.992 432.255 503.832 432.255C501.882 432.255 500.442 433.965 500.442 436.35V436.47C500.442 438.96 502.032 440.52 504.072 440.52ZM502.122 435.855C502.242 434.505 502.902 433.68 503.832 433.68C504.822 433.68 505.392 434.595 505.482 435.855H502.122ZM510.648 440.505C511.683 440.505 512.388 440.055 512.853 439.38V440.355H514.518V435.42C514.518 434.43 514.248 433.65 513.723 433.125C513.213 432.6 512.418 432.315 511.383 432.315C510.318 432.315 509.523 432.57 508.758 432.945L509.238 434.295C509.763 434.055 510.393 433.815 511.158 433.815C512.238 433.815 512.868 434.37 512.868 435.435V435.765C512.328 435.585 511.788 435.45 511.038 435.45C509.358 435.45 508.218 436.29 508.218 438V438.075C508.218 439.62 509.328 440.505 510.648 440.505ZM511.158 439.23C510.423 439.215 509.868 438.765 509.868 437.97V437.94C509.868 437.1 510.438 436.605 511.413 436.605C511.983 436.605 512.493 436.725 512.883 436.89V437.685C512.883 438.585 512.133 439.245 511.158 439.23ZM518.656 440.475C519.226 440.475 519.676 440.34 520.066 440.13V438.735C519.781 438.885 519.481 438.96 519.151 438.96C518.611 438.96 518.296 438.705 518.296 438.09V433.86H520.081V432.405H518.296V430.26H516.601V432.405H515.731V433.86H516.601V438.435C516.601 439.98 517.486 440.475 518.656 440.475ZM524.697 440.52C525.882 440.52 526.767 440.055 527.487 439.29L526.602 438.24C526.077 438.75 525.522 439.08 524.772 439.08C523.737 439.08 522.912 438.36 522.762 437.025H527.742C527.757 436.785 527.757 436.545 527.757 436.44C527.757 434.055 526.617 432.255 524.457 432.255C522.507 432.255 521.067 433.965 521.067 436.35V436.47C521.067 438.96 522.657 440.52 524.697 440.52ZM522.747 435.855C522.867 434.505 523.527 433.68 524.457 433.68C525.447 433.68 526.017 434.595 526.107 435.855H522.747Z" fill="white"/>
<path d="M648.528 349.294H650.268V345.589H651.948C651.978 345.589 652.023 345.589 652.053 345.574L654.288 349.294H656.298L653.823 345.229C655.098 344.779 655.998 343.774 655.998 342.154V342.094C655.998 341.134 655.683 340.339 655.128 339.784C654.498 339.154 653.523 338.794 652.323 338.794H648.528V349.294ZM650.268 344.029V340.384H652.173C653.478 340.384 654.243 340.999 654.243 342.184V342.214C654.243 343.309 653.493 344.029 652.143 344.029H650.268ZM660.832 349.459C662.017 349.459 662.902 348.994 663.622 348.229L662.737 347.179C662.212 347.689 661.657 348.019 660.907 348.019C659.872 348.019 659.047 347.299 658.897 345.964H663.877C663.892 345.724 663.892 345.484 663.892 345.379C663.892 342.994 662.752 341.194 660.592 341.194C658.642 341.194 657.202 342.904 657.202 345.289V345.409C657.202 347.899 658.792 349.459 660.832 349.459ZM658.882 344.794C659.002 343.444 659.662 342.619 660.592 342.619C661.582 342.619 662.152 343.534 662.242 344.794H658.882ZM667.723 349.444C669.253 349.444 670.438 348.589 670.438 347.029V347.014C670.438 345.769 669.508 345.199 668.278 344.644C667.348 344.224 666.718 343.954 666.718 343.429V343.399C666.718 342.964 667.093 342.619 667.723 342.619C668.353 342.619 669.013 342.919 669.613 343.324L670.333 342.079C669.583 341.539 668.638 341.224 667.753 341.224C666.268 341.224 665.128 342.124 665.128 343.549V343.579C665.128 344.884 666.118 345.424 667.303 345.934C668.248 346.339 668.863 346.594 668.863 347.164V347.179C668.863 347.674 668.458 348.049 667.753 348.049C667.048 348.049 666.283 347.704 665.563 347.119L664.768 348.334C665.683 349.099 666.778 349.444 667.723 349.444ZM675.202 349.459C676.387 349.459 677.272 348.994 677.992 348.229L677.107 347.179C676.582 347.689 676.027 348.019 675.277 348.019C674.242 348.019 673.417 347.299 673.267 345.964H678.247C678.262 345.724 678.262 345.484 678.262 345.379C678.262 342.994 677.122 341.194 674.962 341.194C673.012 341.194 671.572 342.904 671.572 345.289V345.409C671.572 347.899 673.162 349.459 675.202 349.459ZM673.252 344.794C673.372 343.444 674.032 342.619 674.962 342.619C675.952 342.619 676.522 343.534 676.612 344.794H673.252ZM681.778 349.444C682.813 349.444 683.518 348.994 683.983 348.319V349.294H685.648V344.359C685.648 343.369 685.378 342.589 684.853 342.064C684.343 341.539 683.548 341.254 682.513 341.254C681.448 341.254 680.653 341.509 679.888 341.884L680.368 343.234C680.893 342.994 681.523 342.754 682.288 342.754C683.368 342.754 683.998 343.309 683.998 344.374V344.704C683.458 344.524 682.918 344.389 682.168 344.389C680.488 344.389 679.348 345.229 679.348 346.939V347.014C679.348 348.559 680.458 349.444 681.778 349.444ZM682.288 348.169C681.553 348.154 680.998 347.704 680.998 346.909V346.879C680.998 346.039 681.568 345.544 682.543 345.544C683.113 345.544 683.623 345.664 684.013 345.829V346.624C684.013 347.524 683.263 348.184 682.288 348.169ZM687.474 349.294H689.169V345.784C689.169 343.969 690.099 343.069 691.479 343.069H691.554V341.224C690.354 341.164 689.589 341.869 689.169 342.904V341.344H687.474V349.294ZM695.84 349.459C697.055 349.459 697.85 348.964 698.48 348.259L697.565 347.134C697.1 347.599 696.635 347.944 695.945 347.944C694.79 347.944 693.98 346.909 693.98 345.364V345.289C693.98 343.789 694.79 342.724 695.9 342.724C696.62 342.724 697.085 343.084 697.505 343.519L698.45 342.274C697.79 341.614 697.04 341.194 695.9 341.194C693.815 341.194 692.27 342.904 692.27 345.274V345.424C692.27 347.794 693.77 349.459 695.84 349.459ZM699.852 349.294H701.547V344.479C701.547 343.384 702.162 342.724 703.047 342.724C703.947 342.724 704.472 343.339 704.472 344.449V349.294H706.167V343.969C706.167 342.274 705.252 341.194 703.722 341.194C702.642 341.194 701.997 341.809 701.547 342.514V338.464H699.852V349.294ZM713.858 349.444C714.893 349.444 715.598 348.994 716.063 348.319V349.294H717.728V344.359C717.728 343.369 717.458 342.589 716.933 342.064C716.423 341.539 715.628 341.254 714.593 341.254C713.528 341.254 712.733 341.509 711.968 341.884L712.448 343.234C712.973 342.994 713.603 342.754 714.368 342.754C715.448 342.754 716.078 343.309 716.078 344.374V344.704C715.538 344.524 714.998 344.389 714.248 344.389C712.568 344.389 711.428 345.229 711.428 346.939V347.014C711.428 348.559 712.538 349.444 713.858 349.444ZM714.368 348.169C713.633 348.154 713.078 347.704 713.078 346.909V346.879C713.078 346.039 713.648 345.544 714.623 345.544C715.193 345.544 715.703 345.664 716.093 345.829V346.624C716.093 347.524 715.343 348.184 714.368 348.169ZM719.554 349.294H721.249V344.479C721.249 343.384 721.864 342.724 722.749 342.724C723.649 342.724 724.174 343.339 724.174 344.449V349.294H725.869V343.969C725.869 342.274 724.954 341.194 723.424 341.194C722.344 341.194 721.699 341.809 721.249 342.514V341.344H719.554V349.294ZM730.473 349.444C731.613 349.444 732.303 348.784 732.798 348.019V349.294H734.493V338.464H732.798V342.544C732.318 341.854 731.628 341.194 730.473 341.194C728.868 341.194 727.383 342.544 727.383 345.229V345.424C727.383 348.109 728.883 349.444 730.473 349.444ZM730.938 347.944C729.918 347.944 729.093 346.969 729.093 345.379V345.259C729.093 343.654 729.903 342.694 730.938 342.694C731.958 342.694 732.828 343.684 732.828 345.244V345.394C732.828 346.954 731.958 347.944 730.938 347.944ZM744.676 349.444C746.131 349.444 747.196 348.904 748.111 347.959L747.091 346.729C746.431 347.359 745.771 347.824 744.766 347.824C743.116 347.824 741.871 346.339 741.871 344.059V343.999C741.871 341.764 743.116 340.264 744.766 340.264C745.711 340.264 746.401 340.714 747.016 341.284L748.066 339.949C747.211 339.169 746.236 338.644 744.766 338.644C742.051 338.644 740.071 340.819 740.071 343.999V344.104C740.071 347.314 741.991 349.444 744.676 349.444ZM749.51 349.294H751.205V345.784C751.205 343.969 752.135 343.069 753.515 343.069H753.59V341.224C752.39 341.164 751.625 341.869 751.205 342.904V341.344H749.51V349.294ZM757.936 349.459C759.121 349.459 760.006 348.994 760.726 348.229L759.841 347.179C759.316 347.689 758.761 348.019 758.011 348.019C756.976 348.019 756.151 347.299 756.001 345.964H760.981C760.996 345.724 760.996 345.484 760.996 345.379C760.996 342.994 759.856 341.194 757.696 341.194C755.746 341.194 754.306 342.904 754.306 345.289V345.409C754.306 347.899 755.896 349.459 757.936 349.459ZM755.986 344.794C756.106 343.444 756.766 342.619 757.696 342.619C758.686 342.619 759.256 343.534 759.346 344.794H755.986ZM764.512 349.444C765.547 349.444 766.252 348.994 766.717 348.319V349.294H768.382V344.359C768.382 343.369 768.112 342.589 767.587 342.064C767.077 341.539 766.282 341.254 765.247 341.254C764.182 341.254 763.387 341.509 762.622 341.884L763.102 343.234C763.627 342.994 764.257 342.754 765.022 342.754C766.102 342.754 766.732 343.309 766.732 344.374V344.704C766.192 344.524 765.652 344.389 764.902 344.389C763.222 344.389 762.082 345.229 762.082 346.939V347.014C762.082 348.559 763.192 349.444 764.512 349.444ZM765.022 348.169C764.287 348.154 763.732 347.704 763.732 346.909V346.879C763.732 346.039 764.302 345.544 765.277 345.544C765.847 345.544 766.357 345.664 766.747 345.829V346.624C766.747 347.524 765.997 348.184 765.022 348.169ZM772.52 349.414C773.09 349.414 773.54 349.279 773.93 349.069V347.674C773.645 347.824 773.345 347.899 773.015 347.899C772.475 347.899 772.16 347.644 772.16 347.029V342.799H773.945V341.344H772.16V339.199H770.465V341.344H769.595V342.799H770.465V347.374C770.465 348.919 771.35 349.414 772.52 349.414ZM775.511 340.189H777.311V338.524H775.511V340.189ZM775.571 349.294H777.266V341.344H775.571V349.294ZM782.56 349.459C784.675 349.459 786.235 347.734 786.235 345.394V345.259C786.235 342.904 784.69 341.194 782.59 341.194C780.475 341.194 778.915 342.934 778.915 345.274V345.409C778.915 347.764 780.46 349.459 782.56 349.459ZM782.59 347.974C781.435 347.974 780.61 346.849 780.61 345.364V345.274C780.61 343.789 781.375 342.694 782.56 342.694C783.715 342.694 784.54 343.804 784.54 345.289V345.379C784.54 346.864 783.775 347.974 782.59 347.974ZM787.801 349.294H789.496V344.479C789.496 343.384 790.111 342.724 790.996 342.724C791.896 342.724 792.421 343.339 792.421 344.449V349.294H794.116V343.969C794.116 342.274 793.201 341.194 791.671 341.194C790.591 341.194 789.946 341.809 789.496 342.514V341.344H787.801V349.294Z" fill="white"/>
<path d="M624.607 426.697H626.347V423.292H627.862C630.037 423.262 631.747 422.047 631.747 419.722V419.692C631.747 417.517 630.262 416.197 627.967 416.197H624.607V426.697ZM626.347 421.717V417.787H627.862C629.197 417.787 629.977 418.477 629.977 419.737V419.752C629.977 420.922 629.197 421.717 627.862 421.717H626.347ZM633.157 426.697H634.852V423.187C634.852 421.372 635.782 420.472 637.162 420.472H637.237V418.627C636.037 418.567 635.272 419.272 634.852 420.307V418.747H633.157V426.697ZM641.599 426.862C643.714 426.862 645.274 425.137 645.274 422.797V422.662C645.274 420.307 643.729 418.597 641.629 418.597C639.514 418.597 637.954 420.337 637.954 422.677V422.812C637.954 425.167 639.499 426.862 641.599 426.862ZM641.629 425.377C640.474 425.377 639.649 424.252 639.649 422.767V422.677C639.649 421.192 640.414 420.097 641.599 420.097C642.754 420.097 643.579 421.207 643.579 422.692V422.782C643.579 424.267 642.814 425.377 641.629 425.377ZM647.199 426.697H648.894V420.202H650.634V418.792H648.879V418.342C648.879 417.592 649.209 417.247 649.824 417.247C650.124 417.247 650.379 417.307 650.649 417.382V415.957C650.319 415.852 649.959 415.792 649.449 415.792C648.729 415.792 648.174 415.987 647.784 416.362C647.394 416.752 647.199 417.367 647.199 418.177V418.792H646.314V420.202H647.199V426.697ZM654.899 426.862C656.084 426.862 656.969 426.397 657.689 425.632L656.804 424.582C656.279 425.092 655.724 425.422 654.974 425.422C653.939 425.422 653.114 424.702 652.964 423.367H657.944C657.959 423.127 657.959 422.887 657.959 422.782C657.959 420.397 656.819 418.597 654.659 418.597C652.709 418.597 651.269 420.307 651.269 422.692V422.812C651.269 425.302 652.859 426.862 654.899 426.862ZM652.949 422.197C653.069 420.847 653.729 420.022 654.659 420.022C655.649 420.022 656.219 420.937 656.309 422.197H652.949ZM661.79 426.847C663.32 426.847 664.505 425.992 664.505 424.432V424.417C664.505 423.172 663.575 422.602 662.345 422.047C661.415 421.627 660.785 421.357 660.785 420.832V420.802C660.785 420.367 661.16 420.022 661.79 420.022C662.42 420.022 663.08 420.322 663.68 420.727L664.4 419.482C663.65 418.942 662.705 418.627 661.82 418.627C660.335 418.627 659.195 419.527 659.195 420.952V420.982C659.195 422.287 660.185 422.827 661.37 423.337C662.315 423.742 662.93 423.997 662.93 424.567V424.582C662.93 425.077 662.525 425.452 661.82 425.452C661.115 425.452 660.35 425.107 659.63 424.522L658.835 425.737C659.75 426.502 660.845 426.847 661.79 426.847ZM668.192 426.847C669.722 426.847 670.907 425.992 670.907 424.432V424.417C670.907 423.172 669.977 422.602 668.747 422.047C667.817 421.627 667.187 421.357 667.187 420.832V420.802C667.187 420.367 667.562 420.022 668.192 420.022C668.822 420.022 669.482 420.322 670.082 420.727L670.802 419.482C670.052 418.942 669.107 418.627 668.222 418.627C666.737 418.627 665.597 419.527 665.597 420.952V420.982C665.597 422.287 666.587 422.827 667.772 423.337C668.717 423.742 669.332 423.997 669.332 424.567V424.582C669.332 425.077 668.927 425.452 668.222 425.452C667.517 425.452 666.752 425.107 666.032 424.522L665.237 425.737C666.152 426.502 667.247 426.847 668.192 426.847ZM672.43 417.592H674.23V415.927H672.43V417.592ZM672.49 426.697H674.185V418.747H672.49V426.697ZM679.479 426.862C681.594 426.862 683.154 425.137 683.154 422.797V422.662C683.154 420.307 681.609 418.597 679.509 418.597C677.394 418.597 675.834 420.337 675.834 422.677V422.812C675.834 425.167 677.379 426.862 679.479 426.862ZM679.509 425.377C678.354 425.377 677.529 424.252 677.529 422.767V422.677C677.529 421.192 678.294 420.097 679.479 420.097C680.634 420.097 681.459 421.207 681.459 422.692V422.782C681.459 424.267 680.694 425.377 679.509 425.377ZM684.72 426.697H686.415V421.882C686.415 420.787 687.03 420.127 687.915 420.127C688.815 420.127 689.34 420.742 689.34 421.852V426.697H691.035V421.372C691.035 419.677 690.12 418.597 688.59 418.597C687.51 418.597 686.865 419.212 686.415 419.917V418.747H684.72V426.697ZM694.859 426.847C695.894 426.847 696.599 426.397 697.064 425.722V426.697H698.729V421.762C698.729 420.772 698.459 419.992 697.934 419.467C697.424 418.942 696.629 418.657 695.594 418.657C694.529 418.657 693.734 418.912 692.969 419.287L693.449 420.637C693.974 420.397 694.604 420.157 695.369 420.157C696.449 420.157 697.079 420.712 697.079 421.777V422.107C696.539 421.927 695.999 421.792 695.249 421.792C693.569 421.792 692.429 422.632 692.429 424.342V424.417C692.429 425.962 693.539 426.847 694.859 426.847ZM695.369 425.572C694.634 425.557 694.079 425.107 694.079 424.312V424.282C694.079 423.442 694.649 422.947 695.624 422.947C696.194 422.947 696.704 423.067 697.094 423.232V424.027C697.094 424.927 696.344 425.587 695.369 425.572ZM700.645 426.697H702.34V415.867H700.645V426.697ZM708.396 426.697H711.606C714.606 426.697 716.586 424.567 716.586 421.492V421.372C716.586 418.297 714.606 416.197 711.606 416.197H708.396V426.697ZM711.591 417.772C713.511 417.772 714.786 419.152 714.786 421.417V421.507C714.786 423.757 713.511 425.122 711.591 425.122H710.136V417.772H711.591ZM721.564 426.862C722.749 426.862 723.634 426.397 724.354 425.632L723.469 424.582C722.944 425.092 722.389 425.422 721.639 425.422C720.604 425.422 719.779 424.702 719.629 423.367H724.609C724.624 423.127 724.624 422.887 724.624 422.782C724.624 420.397 723.484 418.597 721.324 418.597C719.374 418.597 717.934 420.307 717.934 422.692V422.812C717.934 425.302 719.524 426.862 721.564 426.862ZM719.614 422.197C719.734 420.847 720.394 420.022 721.324 420.022C722.314 420.022 722.884 420.937 722.974 422.197H719.614ZM727.998 426.757H729.573L732.348 418.747H730.593L728.793 424.537L727.008 418.747H725.223L727.998 426.757ZM736.491 426.862C737.676 426.862 738.561 426.397 739.281 425.632L738.396 424.582C737.871 425.092 737.316 425.422 736.566 425.422C735.531 425.422 734.706 424.702 734.556 423.367H739.536C739.551 423.127 739.551 422.887 739.551 422.782C739.551 420.397 738.411 418.597 736.251 418.597C734.301 418.597 732.861 420.307 732.861 422.692V422.812C732.861 425.302 734.451 426.862 736.491 426.862ZM734.541 422.197C734.661 420.847 735.321 420.022 736.251 420.022C737.241 420.022 737.811 420.937 737.901 422.197H734.541ZM741.177 426.697H742.872V415.867H741.177V426.697ZM748.166 426.862C750.281 426.862 751.841 425.137 751.841 422.797V422.662C751.841 420.307 750.296 418.597 748.196 418.597C746.081 418.597 744.521 420.337 744.521 422.677V422.812C744.521 425.167 746.066 426.862 748.166 426.862ZM748.196 425.377C747.041 425.377 746.216 424.252 746.216 422.767V422.677C746.216 421.192 746.981 420.097 748.166 420.097C749.321 420.097 750.146 421.207 750.146 422.692V422.782C750.146 424.267 749.381 425.377 748.196 425.377ZM753.406 428.962H755.101V425.497C755.581 426.202 756.271 426.847 757.426 426.847C759.031 426.847 760.516 425.497 760.516 422.827V422.617C760.516 419.932 759.016 418.597 757.426 418.597C756.286 418.597 755.596 419.257 755.101 420.022V418.747H753.406V428.962ZM756.961 425.347C755.941 425.347 755.071 424.357 755.071 422.797V422.647C755.071 421.087 755.941 420.097 756.961 420.097C757.981 420.097 758.806 421.072 758.806 422.662V422.797C758.806 424.387 757.996 425.347 756.961 425.347ZM762.107 426.697H763.802V421.897C763.802 420.802 764.387 420.127 765.242 420.127C766.082 420.127 766.577 420.727 766.577 421.852V426.697H768.272V421.882C768.272 420.757 768.872 420.127 769.697 420.127C770.567 420.127 771.047 420.727 771.047 421.867V426.697H772.742V421.372C772.742 419.572 771.782 418.597 770.312 418.597C769.247 418.597 768.527 419.152 767.987 419.872C767.612 419.092 766.907 418.597 765.932 418.597C764.882 418.597 764.267 419.197 763.802 419.902V418.747H762.107V426.697ZM777.887 426.862C779.072 426.862 779.957 426.397 780.677 425.632L779.792 424.582C779.267 425.092 778.712 425.422 777.962 425.422C776.927 425.422 776.102 424.702 775.952 423.367H780.932C780.947 423.127 780.947 422.887 780.947 422.782C780.947 420.397 779.807 418.597 777.647 418.597C775.697 418.597 774.257 420.307 774.257 422.692V422.812C774.257 425.302 775.847 426.862 777.887 426.862ZM775.937 422.197C776.057 420.847 776.717 420.022 777.647 420.022C778.637 420.022 779.207 420.937 779.297 422.197H775.937ZM782.483 426.697H784.178V421.882C784.178 420.787 784.793 420.127 785.678 420.127C786.578 420.127 787.103 420.742 787.103 421.852V426.697H788.798V421.372C788.798 419.677 787.883 418.597 786.353 418.597C785.273 418.597 784.628 419.212 784.178 419.917V418.747H782.483V426.697ZM792.998 426.817C793.568 426.817 794.018 426.682 794.408 426.472V425.077C794.123 425.227 793.823 425.302 793.493 425.302C792.953 425.302 792.638 425.047 792.638 424.432V420.202H794.423V418.747H792.638V416.602H790.943V418.747H790.073V420.202H790.943V424.777C790.943 426.322 791.828 426.817 792.998 426.817Z" fill="white"/>
<path d="M651.336 489.86C652.791 489.86 653.856 489.32 654.771 488.375L653.751 487.145C653.091 487.775 652.431 488.24 651.426 488.24C649.776 488.24 648.531 486.755 648.531 484.475V484.415C648.531 482.18 649.776 480.68 651.426 480.68C652.371 480.68 653.061 481.13 653.676 481.7L654.726 480.365C653.871 479.585 652.896 479.06 651.426 479.06C648.711 479.06 646.731 481.235 646.731 484.415V484.52C646.731 487.73 648.651 489.86 651.336 489.86ZM659.294 489.875C661.409 489.875 662.969 488.15 662.969 485.81V485.675C662.969 483.32 661.424 481.61 659.324 481.61C657.209 481.61 655.649 483.35 655.649 485.69V485.825C655.649 488.18 657.194 489.875 659.294 489.875ZM659.324 488.39C658.169 488.39 657.344 487.265 657.344 485.78V485.69C657.344 484.205 658.109 483.11 659.294 483.11C660.449 483.11 661.274 484.22 661.274 485.705V485.795C661.274 487.28 660.509 488.39 659.324 488.39ZM664.534 489.71H666.229V484.895C666.229 483.8 666.844 483.14 667.729 483.14C668.629 483.14 669.154 483.755 669.154 484.865V489.71H670.849V484.385C670.849 482.69 669.934 481.61 668.404 481.61C667.324 481.61 666.679 482.225 666.229 482.93V481.76H664.534V489.71ZM675.903 489.875C677.118 489.875 677.913 489.38 678.543 488.675L677.628 487.55C677.163 488.015 676.698 488.36 676.008 488.36C674.853 488.36 674.043 487.325 674.043 485.78V485.705C674.043 484.205 674.853 483.14 675.963 483.14C676.683 483.14 677.148 483.5 677.568 483.935L678.513 482.69C677.853 482.03 677.103 481.61 675.963 481.61C673.878 481.61 672.333 483.32 672.333 485.69V485.84C672.333 488.21 673.833 489.875 675.903 489.875ZM682.995 489.875C684.18 489.875 685.065 489.41 685.785 488.645L684.9 487.595C684.375 488.105 683.82 488.435 683.07 488.435C682.035 488.435 681.21 487.715 681.06 486.38H686.04C686.055 486.14 686.055 485.9 686.055 485.795C686.055 483.41 684.915 481.61 682.755 481.61C680.805 481.61 679.365 483.32 679.365 485.705V485.825C679.365 488.315 680.955 489.875 682.995 489.875ZM681.045 485.21C681.165 483.86 681.825 483.035 682.755 483.035C683.745 483.035 684.315 483.95 684.405 485.21H681.045ZM687.591 491.975H689.286V488.51C689.766 489.215 690.456 489.86 691.611 489.86C693.216 489.86 694.701 488.51 694.701 485.84V485.63C694.701 482.945 693.201 481.61 691.611 481.61C690.471 481.61 689.781 482.27 689.286 483.035V481.76H687.591V491.975ZM691.146 488.36C690.126 488.36 689.256 487.37 689.256 485.81V485.66C689.256 484.1 690.126 483.11 691.146 483.11C692.166 483.11 692.991 484.085 692.991 485.675V485.81C692.991 487.4 692.181 488.36 691.146 488.36ZM698.677 489.83C699.247 489.83 699.697 489.695 700.087 489.485V488.09C699.802 488.24 699.502 488.315 699.172 488.315C698.632 488.315 698.317 488.06 698.317 487.445V483.215H700.102V481.76H698.317V479.615H696.622V481.76H695.752V483.215H696.622V487.79C696.622 489.335 697.507 489.83 698.677 489.83ZM707.891 489.83C708.461 489.83 708.911 489.695 709.301 489.485V488.09C709.016 488.24 708.716 488.315 708.386 488.315C707.846 488.315 707.531 488.06 707.531 487.445V483.215H709.316V481.76H707.531V479.615H705.836V481.76H704.966V483.215H705.836V487.79C705.836 489.335 706.721 489.83 707.891 489.83ZM713.947 489.875C716.062 489.875 717.622 488.15 717.622 485.81V485.675C717.622 483.32 716.077 481.61 713.977 481.61C711.862 481.61 710.302 483.35 710.302 485.69V485.825C710.302 488.18 711.847 489.875 713.947 489.875ZM713.977 488.39C712.822 488.39 711.997 487.265 711.997 485.78V485.69C711.997 484.205 712.762 483.11 713.947 483.11C715.102 483.11 715.927 484.22 715.927 485.705V485.795C715.927 487.28 715.162 488.39 713.977 488.39ZM723.235 489.71H724.975V486.005H726.655C726.685 486.005 726.73 486.005 726.76 485.99L728.995 489.71H731.005L728.53 485.645C729.805 485.195 730.705 484.19 730.705 482.57V482.51C730.705 481.55 730.39 480.755 729.835 480.2C729.205 479.57 728.23 479.21 727.03 479.21H723.235V489.71ZM724.975 484.445V480.8H726.88C728.185 480.8 728.95 481.415 728.95 482.6V482.63C728.95 483.725 728.2 484.445 726.85 484.445H724.975ZM735.539 489.875C736.724 489.875 737.609 489.41 738.329 488.645L737.444 487.595C736.919 488.105 736.364 488.435 735.614 488.435C734.579 488.435 733.754 487.715 733.604 486.38H738.584C738.599 486.14 738.599 485.9 738.599 485.795C738.599 483.41 737.459 481.61 735.299 481.61C733.349 481.61 731.909 483.32 731.909 485.705V485.825C731.909 488.315 733.499 489.875 735.539 489.875ZM733.589 485.21C733.709 483.86 734.369 483.035 735.299 483.035C736.289 483.035 736.859 483.95 736.949 485.21H733.589ZM742.115 489.86C743.15 489.86 743.855 489.41 744.32 488.735V489.71H745.985V484.775C745.985 483.785 745.715 483.005 745.19 482.48C744.68 481.955 743.885 481.67 742.85 481.67C741.785 481.67 740.99 481.925 740.225 482.3L740.705 483.65C741.23 483.41 741.86 483.17 742.625 483.17C743.705 483.17 744.335 483.725 744.335 484.79V485.12C743.795 484.94 743.255 484.805 742.505 484.805C740.825 484.805 739.685 485.645 739.685 487.355V487.43C739.685 488.975 740.795 489.86 742.115 489.86ZM742.625 488.585C741.89 488.57 741.335 488.12 741.335 487.325V487.295C741.335 486.455 741.905 485.96 742.88 485.96C743.45 485.96 743.96 486.08 744.35 486.245V487.04C744.35 487.94 743.6 488.6 742.625 488.585ZM747.901 489.71H749.596V478.88H747.901V489.71ZM751.635 480.605H753.435V478.94H751.635V480.605ZM751.695 489.71H753.39V481.76H751.695V489.71ZM755.053 489.71H760.978V488.3H757.123L760.993 482.93V481.76H755.188V483.17H758.923L755.053 488.54V489.71ZM764.512 489.86C765.547 489.86 766.252 489.41 766.717 488.735V489.71H768.382V484.775C768.382 483.785 768.112 483.005 767.587 482.48C767.077 481.955 766.282 481.67 765.247 481.67C764.182 481.67 763.387 481.925 762.622 482.3L763.102 483.65C763.627 483.41 764.257 483.17 765.022 483.17C766.102 483.17 766.732 483.725 766.732 484.79V485.12C766.192 484.94 765.652 484.805 764.902 484.805C763.222 484.805 762.082 485.645 762.082 487.355V487.43C762.082 488.975 763.192 489.86 764.512 489.86ZM765.022 488.585C764.287 488.57 763.732 488.12 763.732 487.325V487.295C763.732 486.455 764.302 485.96 765.277 485.96C765.847 485.96 766.357 486.08 766.747 486.245V487.04C766.747 487.94 765.997 488.6 765.022 488.585ZM772.52 489.83C773.09 489.83 773.54 489.695 773.93 489.485V488.09C773.645 488.24 773.345 488.315 773.015 488.315C772.475 488.315 772.16 488.06 772.16 487.445V483.215H773.945V481.76H772.16V479.615H770.465V481.76H769.595V483.215H770.465V487.79C770.465 489.335 771.35 489.83 772.52 489.83ZM775.511 480.605H777.311V478.94H775.511V480.605ZM775.571 489.71H777.266V481.76H775.571V489.71ZM782.56 489.875C784.675 489.875 786.235 488.15 786.235 485.81V485.675C786.235 483.32 784.69 481.61 782.59 481.61C780.475 481.61 778.915 483.35 778.915 485.69V485.825C778.915 488.18 780.46 489.875 782.56 489.875ZM782.59 488.39C781.435 488.39 780.61 487.265 780.61 485.78V485.69C780.61 484.205 781.375 483.11 782.56 483.11C783.715 483.11 784.54 484.22 784.54 485.705V485.795C784.54 487.28 783.775 488.39 782.59 488.39ZM787.801 489.71H789.496V484.895C789.496 483.8 790.111 483.14 790.996 483.14C791.896 483.14 792.421 483.755 792.421 484.865V489.71H794.116V484.385C794.116 482.69 793.201 481.61 791.671 481.61C790.591 481.61 789.946 482.225 789.496 482.93V481.76H787.801V489.71Z" fill="white"/>
</g>
<defs>
<clipPath id="clip0">
<rect width="812.5" height="600" fill="white"/>
</clipPath>
</defs>
</svg>
