<svg width="975" height="640" viewBox="0 0 975 640" fill="none" xmlns="http://www.w3.org/2000/svg">
<g clip-path="url(#clip0)">
<path d="M552 1H1V401H552V1Z" fill="#344D90" stroke="black" stroke-width="5"/>
<path d="M8.02832 20.5H5.96582V4.85938H8.02832V20.5ZM13.3779 8.87695L13.4424 10.3379C14.3304 9.2207 15.4906 8.66211 16.9229 8.66211C19.3792 8.66211 20.6182 10.0479 20.6396 12.8193V20.5H18.6523V12.8086C18.6452 11.9707 18.4518 11.3512 18.0723 10.9502C17.6999 10.5492 17.1162 10.3486 16.3213 10.3486C15.6768 10.3486 15.111 10.5205 14.624 10.8643C14.137 11.208 13.7575 11.6592 13.4854 12.2178V20.5H11.498V8.87695H13.3779ZM30.4043 17.417C30.4043 16.8799 30.2002 16.4645 29.792 16.1709C29.391 15.8701 28.6855 15.6123 27.6758 15.3975C26.6732 15.1826 25.8747 14.9248 25.2803 14.624C24.693 14.3232 24.2562 13.9652 23.9697 13.5498C23.6904 13.1344 23.5508 12.6403 23.5508 12.0674C23.5508 11.1149 23.9518 10.3092 24.7539 9.65039C25.5632 8.99154 26.5944 8.66211 27.8477 8.66211C29.1654 8.66211 30.2324 9.00228 31.0488 9.68262C31.8724 10.363 32.2842 11.2331 32.2842 12.293H30.2861C30.2861 11.7487 30.0534 11.2796 29.5879 10.8857C29.1296 10.4919 28.5495 10.2949 27.8477 10.2949C27.1243 10.2949 26.5586 10.4525 26.1504 10.7676C25.7422 11.0827 25.5381 11.4945 25.5381 12.0029C25.5381 12.4827 25.7279 12.8444 26.1074 13.0879C26.487 13.3314 27.1709 13.5641 28.1592 13.7861C29.1546 14.0081 29.9603 14.2731 30.5762 14.5811C31.1921 14.889 31.6468 15.2614 31.9404 15.6982C32.2412 16.1279 32.3916 16.6543 32.3916 17.2773C32.3916 18.3158 31.9762 19.1501 31.1455 19.7803C30.3148 20.4033 29.237 20.7148 27.9121 20.7148C26.9811 20.7148 26.1576 20.5501 25.4414 20.2207C24.7253 19.8913 24.1631 19.4329 23.7549 18.8457C23.3538 18.2513 23.1533 17.6104 23.1533 16.9229H25.1406C25.1764 17.5889 25.4414 18.1188 25.9355 18.5127C26.4368 18.8994 27.0957 19.0928 27.9121 19.0928C28.6641 19.0928 29.2656 18.9424 29.7168 18.6416C30.1751 18.3337 30.4043 17.9255 30.4043 17.417ZM42.1562 19.3506C41.3828 20.2601 40.2477 20.7148 38.751 20.7148C37.512 20.7148 36.5667 20.3568 35.915 19.6406C35.2705 18.9173 34.9447 17.8503 34.9375 16.4395V8.87695H36.9248V16.3857C36.9248 18.1475 37.641 19.0283 39.0732 19.0283C40.5915 19.0283 41.6012 18.4626 42.1025 17.3311V8.87695H44.0898V20.5H42.1992L42.1562 19.3506ZM48.0967 20.5V10.4131H46.2598V8.87695H48.0967V7.68457C48.0967 6.43848 48.4297 5.47526 49.0957 4.79492C49.7617 4.11458 50.7035 3.77441 51.9209 3.77441C52.3792 3.77441 52.834 3.83529 53.2852 3.95703L53.1777 5.56836C52.8411 5.50391 52.4831 5.47168 52.1035 5.47168C51.459 5.47168 50.9613 5.66146 50.6104 6.04102C50.2594 6.41341 50.084 6.95052 50.084 7.65234V8.87695H54.3809V7.88867C54.3809 6.59245 54.7497 5.58268 55.4873 4.85938C56.2321 4.13607 57.2812 3.77441 58.6348 3.77441C59.4368 3.77441 60.4502 3.99284 61.6748 4.42969L61.3418 6.10547C60.4466 5.7474 59.5908 5.56836 58.7744 5.56836C57.9222 5.56836 57.3063 5.75814 56.9268 6.1377C56.5544 6.51725 56.3682 7.09375 56.3682 7.86719V8.87695H58.7529V10.4131H56.3682V20.5H54.3809V10.4131H50.084V20.5H48.0967ZM62.6523 20.5H60.665V8.87695H62.6523V20.5ZM70.5586 19.0928C71.2676 19.0928 71.887 18.8779 72.417 18.4482C72.9469 18.0186 73.2406 17.4814 73.2979 16.8369H75.1777C75.1419 17.5029 74.9128 18.1367 74.4902 18.7383C74.0677 19.3398 73.502 19.8197 72.793 20.1777C72.0911 20.5358 71.3464 20.7148 70.5586 20.7148C68.9759 20.7148 67.7155 20.1885 66.7773 19.1357C65.8464 18.0758 65.3809 16.6292 65.3809 14.7959V14.4629C65.3809 13.3314 65.5885 12.3252 66.0039 11.4443C66.4193 10.5635 67.0137 9.87956 67.7871 9.39258C68.5677 8.9056 69.488 8.66211 70.5479 8.66211C71.8512 8.66211 72.9326 9.05241 73.792 9.83301C74.6585 10.6136 75.1204 11.627 75.1777 12.873H73.2979C73.2406 12.1211 72.9541 11.5052 72.4385 11.0254C71.93 10.5384 71.2998 10.2949 70.5479 10.2949C69.5381 10.2949 68.7539 10.6602 68.1953 11.3906C67.6439 12.1139 67.3682 13.1631 67.3682 14.5381V14.9141C67.3682 16.2533 67.6439 17.2845 68.1953 18.0078C68.7467 18.7311 69.5345 19.0928 70.5586 19.0928ZM79.5713 20.5H77.584V8.87695H79.5713V20.5ZM77.4229 5.79395C77.4229 5.47168 77.5195 5.19954 77.7129 4.97754C77.9134 4.75553 78.207 4.64453 78.5938 4.64453C78.9805 4.64453 79.2741 4.75553 79.4746 4.97754C79.6751 5.19954 79.7754 5.47168 79.7754 5.79395C79.7754 6.11621 79.6751 6.38477 79.4746 6.59961C79.2741 6.81445 78.9805 6.92188 78.5938 6.92188C78.207 6.92188 77.9134 6.81445 77.7129 6.59961C77.5195 6.38477 77.4229 6.11621 77.4229 5.79395ZM87.585 20.7148C86.0094 20.7148 84.7275 20.1992 83.7393 19.168C82.751 18.1296 82.2568 16.7438 82.2568 15.0107V14.6455C82.2568 13.4925 82.4753 12.4648 82.9121 11.5625C83.3561 10.653 83.972 9.94401 84.7598 9.43555C85.5547 8.91992 86.4141 8.66211 87.3379 8.66211C88.849 8.66211 90.0234 9.15983 90.8613 10.1553C91.6992 11.1507 92.1182 12.5758 92.1182 14.4307V15.2578H84.2441C84.2728 16.4036 84.6058 17.3311 85.2432 18.04C85.8877 18.7419 86.7041 19.0928 87.6924 19.0928C88.3942 19.0928 88.9886 18.9495 89.4756 18.6631C89.9626 18.3766 90.3887 17.9971 90.7539 17.5244L91.9678 18.4697C90.9938 19.9665 89.5329 20.7148 87.585 20.7148ZM87.3379 10.2949C86.5358 10.2949 85.8626 10.5885 85.3184 11.1758C84.7741 11.7559 84.4375 12.5723 84.3086 13.625H90.1309V13.4746C90.0736 12.4648 89.8014 11.6842 89.3145 11.1328C88.8275 10.5742 88.1686 10.2949 87.3379 10.2949ZM96.3076 8.87695L96.3721 10.3379C97.2601 9.2207 98.4202 8.66211 99.8525 8.66211C102.309 8.66211 103.548 10.0479 103.569 12.8193V20.5H101.582V12.8086C101.575 11.9707 101.382 11.3512 101.002 10.9502C100.63 10.5492 100.046 10.3486 99.251 10.3486C98.6064 10.3486 98.0407 10.5205 97.5537 10.8643C97.0667 11.208 96.6872 11.6592 96.415 12.2178V20.5H94.4277V8.87695H96.3076ZM109.263 6.0625V8.87695H111.433V10.4131H109.263V17.6211C109.263 18.0866 109.359 18.4375 109.553 18.6738C109.746 18.903 110.076 19.0176 110.541 19.0176C110.77 19.0176 111.085 18.9746 111.486 18.8887V20.5C110.964 20.6432 110.455 20.7148 109.961 20.7148C109.073 20.7148 108.403 20.4463 107.952 19.9092C107.501 19.3721 107.275 18.6094 107.275 17.6211V10.4131H105.159V8.87695H107.275V6.0625H109.263ZM118.587 20.7148C117.011 20.7148 115.729 20.1992 114.741 19.168C113.753 18.1296 113.259 16.7438 113.259 15.0107V14.6455C113.259 13.4925 113.477 12.4648 113.914 11.5625C114.358 10.653 114.974 9.94401 115.762 9.43555C116.557 8.91992 117.416 8.66211 118.34 8.66211C119.851 8.66211 121.025 9.15983 121.863 10.1553C122.701 11.1507 123.12 12.5758 123.12 14.4307V15.2578H115.246C115.275 16.4036 115.608 17.3311 116.245 18.04C116.89 18.7419 117.706 19.0928 118.694 19.0928C119.396 19.0928 119.991 18.9495 120.478 18.6631C120.965 18.3766 121.391 17.9971 121.756 17.5244L122.97 18.4697C121.996 19.9665 120.535 20.7148 118.587 20.7148ZM118.34 10.2949C117.538 10.2949 116.865 10.5885 116.32 11.1758C115.776 11.7559 115.439 12.5723 115.311 13.625H121.133V13.4746C121.076 12.4648 120.803 11.6842 120.316 11.1328C119.829 10.5742 119.171 10.2949 118.34 10.2949ZM129.329 13.1201L131.907 8.87695H134.228L130.425 14.624L134.346 20.5H132.047L129.361 16.1494L126.676 20.5H124.366L128.287 14.624L124.484 8.87695H126.783L129.329 13.1201ZM146.162 14.8174C146.162 16.5863 145.757 18.0114 144.948 19.0928C144.139 20.1742 143.043 20.7148 141.661 20.7148C140.25 20.7148 139.14 20.2673 138.331 19.3721V24.9688H136.344V8.87695H138.159L138.256 10.166C139.065 9.16341 140.189 8.66211 141.629 8.66211C143.025 8.66211 144.128 9.18848 144.938 10.2412C145.754 11.2939 146.162 12.7585 146.162 14.6348V14.8174ZM144.175 14.5918C144.175 13.2812 143.896 12.2464 143.337 11.4873C142.778 10.7282 142.012 10.3486 141.038 10.3486C139.835 10.3486 138.933 10.8822 138.331 11.9492V17.5029C138.925 18.5628 139.835 19.0928 141.06 19.0928C142.012 19.0928 142.768 18.7168 143.326 17.9648C143.892 17.2057 144.175 16.0814 144.175 14.5918ZM153.521 20.7148C151.945 20.7148 150.663 20.1992 149.675 19.168C148.687 18.1296 148.192 16.7438 148.192 15.0107V14.6455C148.192 13.4925 148.411 12.4648 148.848 11.5625C149.292 10.653 149.908 9.94401 150.695 9.43555C151.49 8.91992 152.35 8.66211 153.273 8.66211C154.785 8.66211 155.959 9.15983 156.797 10.1553C157.635 11.1507 158.054 12.5758 158.054 14.4307V15.2578H150.18C150.208 16.4036 150.541 17.3311 151.179 18.04C151.823 18.7419 152.64 19.0928 153.628 19.0928C154.33 19.0928 154.924 18.9495 155.411 18.6631C155.898 18.3766 156.324 17.9971 156.689 17.5244L157.903 18.4697C156.929 19.9665 155.468 20.7148 153.521 20.7148ZM153.273 10.2949C152.471 10.2949 151.798 10.5885 151.254 11.1758C150.71 11.7559 150.373 12.5723 150.244 13.625H156.066V13.4746C156.009 12.4648 155.737 11.6842 155.25 11.1328C154.763 10.5742 154.104 10.2949 153.273 10.2949ZM165.981 10.6602C165.681 10.61 165.355 10.585 165.004 10.585C163.701 10.585 162.816 11.14 162.351 12.25V20.5H160.363V8.87695H162.297L162.329 10.2197C162.981 9.18132 163.905 8.66211 165.101 8.66211C165.487 8.66211 165.781 8.71224 165.981 8.8125V10.6602ZM169.978 20.5H167.99V8.87695H169.978V20.5ZM167.829 5.79395C167.829 5.47168 167.926 5.19954 168.119 4.97754C168.32 4.75553 168.613 4.64453 169 4.64453C169.387 4.64453 169.68 4.75553 169.881 4.97754C170.081 5.19954 170.182 5.47168 170.182 5.79395C170.182 6.11621 170.081 6.38477 169.881 6.59961C169.68 6.81445 169.387 6.92188 169 6.92188C168.613 6.92188 168.32 6.81445 168.119 6.59961C167.926 6.38477 167.829 6.11621 167.829 5.79395ZM177.991 20.7148C176.416 20.7148 175.134 20.1992 174.146 19.168C173.157 18.1296 172.663 16.7438 172.663 15.0107V14.6455C172.663 13.4925 172.882 12.4648 173.318 11.5625C173.762 10.653 174.378 9.94401 175.166 9.43555C175.961 8.91992 176.82 8.66211 177.744 8.66211C179.255 8.66211 180.43 9.15983 181.268 10.1553C182.105 11.1507 182.524 12.5758 182.524 14.4307V15.2578H174.65C174.679 16.4036 175.012 17.3311 175.649 18.04C176.294 18.7419 177.11 19.0928 178.099 19.0928C178.8 19.0928 179.395 18.9495 179.882 18.6631C180.369 18.3766 180.795 17.9971 181.16 17.5244L182.374 18.4697C181.4 19.9665 179.939 20.7148 177.991 20.7148ZM177.744 10.2949C176.942 10.2949 176.269 10.5885 175.725 11.1758C175.18 11.7559 174.844 12.5723 174.715 13.625H180.537V13.4746C180.48 12.4648 180.208 11.6842 179.721 11.1328C179.234 10.5742 178.575 10.2949 177.744 10.2949ZM186.714 8.87695L186.778 10.3379C187.666 9.2207 188.826 8.66211 190.259 8.66211C192.715 8.66211 193.954 10.0479 193.976 12.8193V20.5H191.988V12.8086C191.981 11.9707 191.788 11.3512 191.408 10.9502C191.036 10.5492 190.452 10.3486 189.657 10.3486C189.013 10.3486 188.447 10.5205 187.96 10.8643C187.473 11.208 187.093 11.6592 186.821 12.2178V20.5H184.834V8.87695H186.714ZM201.635 19.0928C202.344 19.0928 202.963 18.8779 203.493 18.4482C204.023 18.0186 204.317 17.4814 204.374 16.8369H206.254C206.218 17.5029 205.989 18.1367 205.566 18.7383C205.144 19.3398 204.578 19.8197 203.869 20.1777C203.167 20.5358 202.423 20.7148 201.635 20.7148C200.052 20.7148 198.792 20.1885 197.854 19.1357C196.923 18.0758 196.457 16.6292 196.457 14.7959V14.4629C196.457 13.3314 196.665 12.3252 197.08 11.4443C197.495 10.5635 198.09 9.87956 198.863 9.39258C199.644 8.9056 200.564 8.66211 201.624 8.66211C202.927 8.66211 204.009 9.05241 204.868 9.83301C205.735 10.6136 206.197 11.627 206.254 12.873H204.374C204.317 12.1211 204.03 11.5052 203.515 11.0254C203.006 10.5384 202.376 10.2949 201.624 10.2949C200.614 10.2949 199.83 10.6602 199.271 11.3906C198.72 12.1139 198.444 13.1631 198.444 14.5381V14.9141C198.444 16.2533 198.72 17.2845 199.271 18.0078C199.823 18.7311 200.611 19.0928 201.635 19.0928ZM213.312 20.7148C211.736 20.7148 210.454 20.1992 209.466 19.168C208.478 18.1296 207.983 16.7438 207.983 15.0107V14.6455C207.983 13.4925 208.202 12.4648 208.639 11.5625C209.083 10.653 209.699 9.94401 210.486 9.43555C211.281 8.91992 212.141 8.66211 213.064 8.66211C214.576 8.66211 215.75 9.15983 216.588 10.1553C217.426 11.1507 217.845 12.5758 217.845 14.4307V15.2578H209.971C209.999 16.4036 210.332 17.3311 210.97 18.04C211.614 18.7419 212.431 19.0928 213.419 19.0928C214.121 19.0928 214.715 18.9495 215.202 18.6631C215.689 18.3766 216.115 17.9971 216.48 17.5244L217.694 18.4697C216.72 19.9665 215.259 20.7148 213.312 20.7148ZM213.064 10.2949C212.262 10.2949 211.589 10.5885 211.045 11.1758C210.501 11.7559 210.164 12.5723 210.035 13.625H215.857V13.4746C215.8 12.4648 215.528 11.6842 215.041 11.1328C214.554 10.5742 213.895 10.2949 213.064 10.2949ZM222.84 11.7129H224.333C225.271 11.6986 226.009 11.4515 226.546 10.9717C227.083 10.4919 227.352 9.84375 227.352 9.02734C227.352 7.19401 226.438 6.27734 224.612 6.27734C223.753 6.27734 223.065 6.52441 222.55 7.01855C222.041 7.50553 221.787 8.15365 221.787 8.96289H219.8C219.8 7.72396 220.251 6.69629 221.153 5.87988C222.063 5.05632 223.216 4.64453 224.612 4.64453C226.088 4.64453 227.244 5.03483 228.082 5.81543C228.92 6.59603 229.339 7.68099 229.339 9.07031C229.339 9.75065 229.117 10.4095 228.673 11.0469C228.236 11.6842 227.638 12.1605 226.879 12.4756C227.738 12.7477 228.401 13.1989 228.866 13.8291C229.339 14.4593 229.575 15.2292 229.575 16.1387C229.575 17.5423 229.117 18.6559 228.2 19.4795C227.284 20.3031 226.091 20.7148 224.623 20.7148C223.155 20.7148 221.959 20.3174 221.035 19.5225C220.118 18.7275 219.66 17.6784 219.66 16.375H221.658C221.658 17.1986 221.927 17.8574 222.464 18.3516C223.001 18.8457 223.721 19.0928 224.623 19.0928C225.583 19.0928 226.317 18.8421 226.825 18.3408C227.334 17.8395 227.588 17.1198 227.588 16.1816C227.588 15.2721 227.309 14.5739 226.75 14.0869C226.191 13.5999 225.386 13.3493 224.333 13.335H222.84V11.7129ZM242.552 20.5H232.304V19.0713L237.718 13.0557C238.52 12.1462 239.071 11.4085 239.372 10.8428C239.68 10.2699 239.834 9.67904 239.834 9.07031C239.834 8.25391 239.587 7.58431 239.093 7.06152C238.599 6.53874 237.94 6.27734 237.116 6.27734C236.128 6.27734 235.358 6.56022 234.807 7.12598C234.262 7.68457 233.99 8.46517 233.99 9.46777H232.003C232.003 8.02832 232.465 6.86458 233.389 5.97656C234.32 5.08854 235.562 4.64453 237.116 4.64453C238.57 4.64453 239.719 5.02767 240.564 5.79395C241.41 6.55306 241.832 7.56641 241.832 8.83398C241.832 10.3737 240.851 12.207 238.889 14.334L234.699 18.8779H242.552V20.5Z" fill="black"/>
<path d="M552 402H1V639H552V402Z" fill="#FAF9F4" stroke="black" stroke-width="5"/>
<path d="M7.87793 415.377V421.5H5.81543V405.859H11.584C13.2956 405.859 14.6348 406.296 15.6016 407.17C16.5755 408.044 17.0625 409.2 17.0625 410.64C17.0625 412.158 16.5863 413.329 15.6338 414.152C14.6885 414.969 13.3314 415.377 11.5625 415.377H7.87793ZM7.87793 413.69H11.584C12.6868 413.69 13.5319 413.433 14.1191 412.917C14.7064 412.394 15 411.642 15 410.661C15 409.73 14.7064 408.985 14.1191 408.427C13.5319 407.868 12.7262 407.578 11.7021 407.557H7.87793V413.69ZM25.001 411.66C24.7002 411.61 24.3743 411.585 24.0234 411.585C22.7201 411.585 21.8356 412.14 21.3701 413.25V421.5H19.3828V409.877H21.3164L21.3486 411.22C22.0003 410.181 22.9242 409.662 24.1201 409.662C24.5068 409.662 24.8005 409.712 25.001 409.812V411.66ZM26.0967 415.581C26.0967 414.442 26.3187 413.418 26.7627 412.509C27.2139 411.599 27.8369 410.897 28.6318 410.403C29.4339 409.909 30.347 409.662 31.3711 409.662C32.9538 409.662 34.2321 410.21 35.2061 411.306C36.1872 412.401 36.6777 413.859 36.6777 415.678V415.817C36.6777 416.949 36.4593 417.966 36.0225 418.868C35.5928 419.763 34.9733 420.462 34.1641 420.963C33.362 421.464 32.4382 421.715 31.3926 421.715C29.8171 421.715 28.5387 421.167 27.5576 420.071C26.5837 418.976 26.0967 417.525 26.0967 415.721V415.581ZM28.0947 415.817C28.0947 417.106 28.3919 418.141 28.9863 418.922C29.5879 419.702 30.39 420.093 31.3926 420.093C32.4023 420.093 33.2044 419.699 33.7988 418.911C34.3932 418.116 34.6904 417.006 34.6904 415.581C34.6904 414.306 34.3861 413.275 33.7773 412.487C33.1758 411.692 32.3737 411.295 31.3711 411.295C30.39 411.295 29.5986 411.685 28.9971 412.466C28.3955 413.246 28.0947 414.364 28.0947 415.817ZM40.1475 421.5V411.413H38.3105V409.877H40.1475V408.685C40.1475 407.438 40.4805 406.475 41.1465 405.795C41.8125 405.115 42.7542 404.774 43.9717 404.774C44.43 404.774 44.8848 404.835 45.3359 404.957L45.2285 406.568C44.8919 406.504 44.5339 406.472 44.1543 406.472C43.5098 406.472 43.012 406.661 42.6611 407.041C42.3102 407.413 42.1348 407.951 42.1348 408.652V409.877H44.6162V411.413H42.1348V421.5H40.1475ZM51.3838 421.715C49.8083 421.715 48.5264 421.199 47.5381 420.168C46.5498 419.13 46.0557 417.744 46.0557 416.011V415.646C46.0557 414.493 46.2741 413.465 46.7109 412.562C47.1549 411.653 47.7708 410.944 48.5586 410.436C49.3535 409.92 50.2129 409.662 51.1367 409.662C52.6478 409.662 53.8223 410.16 54.6602 411.155C55.498 412.151 55.917 413.576 55.917 415.431V416.258H48.043C48.0716 417.404 48.4046 418.331 49.042 419.04C49.6865 419.742 50.5029 420.093 51.4912 420.093C52.193 420.093 52.7874 419.95 53.2744 419.663C53.7614 419.377 54.1875 418.997 54.5527 418.524L55.7666 419.47C54.7926 420.966 53.3317 421.715 51.3838 421.715ZM51.1367 411.295C50.3346 411.295 49.6615 411.589 49.1172 412.176C48.5729 412.756 48.2363 413.572 48.1074 414.625H53.9297V414.475C53.8724 413.465 53.6003 412.684 53.1133 412.133C52.6263 411.574 51.9674 411.295 51.1367 411.295ZM64.9941 418.417C64.9941 417.88 64.79 417.465 64.3818 417.171C63.9808 416.87 63.2754 416.612 62.2656 416.397C61.263 416.183 60.4645 415.925 59.8701 415.624C59.2829 415.323 58.846 414.965 58.5596 414.55C58.2803 414.134 58.1406 413.64 58.1406 413.067C58.1406 412.115 58.5417 411.309 59.3438 410.65C60.153 409.992 61.1842 409.662 62.4375 409.662C63.7552 409.662 64.8223 410.002 65.6387 410.683C66.4622 411.363 66.874 412.233 66.874 413.293H64.876C64.876 412.749 64.6432 412.28 64.1777 411.886C63.7194 411.492 63.1393 411.295 62.4375 411.295C61.7142 411.295 61.1484 411.452 60.7402 411.768C60.332 412.083 60.1279 412.494 60.1279 413.003C60.1279 413.483 60.3177 413.844 60.6973 414.088C61.0768 414.331 61.7607 414.564 62.749 414.786C63.7445 415.008 64.5501 415.273 65.166 415.581C65.7819 415.889 66.2367 416.261 66.5303 416.698C66.8311 417.128 66.9814 417.654 66.9814 418.277C66.9814 419.316 66.5661 420.15 65.7354 420.78C64.9046 421.403 63.8268 421.715 62.502 421.715C61.571 421.715 60.7474 421.55 60.0312 421.221C59.3151 420.891 58.7529 420.433 58.3447 419.846C57.9437 419.251 57.7432 418.61 57.7432 417.923H59.7305C59.7663 418.589 60.0312 419.119 60.5254 419.513C61.0267 419.899 61.6855 420.093 62.502 420.093C63.2539 420.093 63.8555 419.942 64.3066 419.642C64.765 419.334 64.9941 418.925 64.9941 418.417ZM76.3379 418.417C76.3379 417.88 76.1338 417.465 75.7256 417.171C75.3245 416.87 74.6191 416.612 73.6094 416.397C72.6068 416.183 71.8083 415.925 71.2139 415.624C70.6266 415.323 70.1898 414.965 69.9033 414.55C69.624 414.134 69.4844 413.64 69.4844 413.067C69.4844 412.115 69.8854 411.309 70.6875 410.65C71.4967 409.992 72.528 409.662 73.7812 409.662C75.099 409.662 76.166 410.002 76.9824 410.683C77.806 411.363 78.2178 412.233 78.2178 413.293H76.2197C76.2197 412.749 75.987 412.28 75.5215 411.886C75.0632 411.492 74.4831 411.295 73.7812 411.295C73.0579 411.295 72.4922 411.452 72.084 411.768C71.6758 412.083 71.4717 412.494 71.4717 413.003C71.4717 413.483 71.6615 413.844 72.041 414.088C72.4206 414.331 73.1045 414.564 74.0928 414.786C75.0882 415.008 75.8939 415.273 76.5098 415.581C77.1257 415.889 77.5804 416.261 77.874 416.698C78.1748 417.128 78.3252 417.654 78.3252 418.277C78.3252 419.316 77.9098 420.15 77.0791 420.78C76.2484 421.403 75.1706 421.715 73.8457 421.715C72.9147 421.715 72.0911 421.55 71.375 421.221C70.6589 420.891 70.0967 420.433 69.6885 419.846C69.2874 419.251 69.0869 418.61 69.0869 417.923H71.0742C71.11 418.589 71.375 419.119 71.8691 419.513C72.3704 419.899 73.0293 420.093 73.8457 420.093C74.5977 420.093 75.1992 419.942 75.6504 419.642C76.1087 419.334 76.3379 418.925 76.3379 418.417ZM83.0732 421.5H81.0859V409.877H83.0732V421.5ZM80.9248 406.794C80.9248 406.472 81.0215 406.2 81.2148 405.978C81.4154 405.756 81.709 405.645 82.0957 405.645C82.4824 405.645 82.776 405.756 82.9766 405.978C83.1771 406.2 83.2773 406.472 83.2773 406.794C83.2773 407.116 83.1771 407.385 82.9766 407.6C82.776 407.814 82.4824 407.922 82.0957 407.922C81.709 407.922 81.4154 407.814 81.2148 407.6C81.0215 407.385 80.9248 407.116 80.9248 406.794ZM85.7373 415.581C85.7373 414.442 85.9593 413.418 86.4033 412.509C86.8545 411.599 87.4775 410.897 88.2725 410.403C89.0745 409.909 89.9876 409.662 91.0117 409.662C92.5944 409.662 93.8727 410.21 94.8467 411.306C95.8278 412.401 96.3184 413.859 96.3184 415.678V415.817C96.3184 416.949 96.0999 417.966 95.6631 418.868C95.2334 419.763 94.6139 420.462 93.8047 420.963C93.0026 421.464 92.0788 421.715 91.0332 421.715C89.4577 421.715 88.1794 421.167 87.1982 420.071C86.2243 418.976 85.7373 417.525 85.7373 415.721V415.581ZM87.7354 415.817C87.7354 417.106 88.0326 418.141 88.627 418.922C89.2285 419.702 90.0306 420.093 91.0332 420.093C92.043 420.093 92.8451 419.699 93.4395 418.911C94.0339 418.116 94.3311 417.006 94.3311 415.581C94.3311 414.306 94.0267 413.275 93.418 412.487C92.8164 411.692 92.0143 411.295 91.0117 411.295C90.0306 411.295 89.2393 411.685 88.6377 412.466C88.0361 413.246 87.7354 414.364 87.7354 415.817ZM100.69 409.877L100.755 411.338C101.643 410.221 102.803 409.662 104.235 409.662C106.692 409.662 107.931 411.048 107.952 413.819V421.5H105.965V413.809C105.958 412.971 105.764 412.351 105.385 411.95C105.012 411.549 104.429 411.349 103.634 411.349C102.989 411.349 102.424 411.521 101.937 411.864C101.45 412.208 101.07 412.659 100.798 413.218V421.5H98.8105V409.877H100.69ZM118.125 421.5C118.01 421.271 117.917 420.863 117.846 420.275C116.922 421.235 115.819 421.715 114.537 421.715C113.391 421.715 112.45 421.393 111.712 420.748C110.981 420.096 110.616 419.273 110.616 418.277C110.616 417.067 111.075 416.129 111.991 415.463C112.915 414.79 114.211 414.453 115.88 414.453H117.813V413.54C117.813 412.845 117.606 412.294 117.19 411.886C116.775 411.47 116.163 411.263 115.354 411.263C114.645 411.263 114.05 411.442 113.57 411.8C113.09 412.158 112.851 412.591 112.851 413.1H110.853C110.853 412.52 111.057 411.961 111.465 411.424C111.88 410.88 112.439 410.45 113.141 410.135C113.85 409.82 114.627 409.662 115.472 409.662C116.811 409.662 117.86 409.999 118.619 410.672C119.378 411.338 119.772 412.258 119.801 413.433V418.782C119.801 419.849 119.937 420.698 120.209 421.328V421.5H118.125ZM114.827 419.985C115.45 419.985 116.041 419.824 116.6 419.502C117.158 419.18 117.563 418.761 117.813 418.245V415.86H116.256C113.821 415.86 112.604 416.573 112.604 417.998C112.604 418.621 112.811 419.108 113.227 419.459C113.642 419.81 114.175 419.985 114.827 419.985ZM125.075 421.5H123.088V405H125.075V421.5ZM134.593 421.5H132.595V408.255L128.588 409.727V407.922L134.281 405.784H134.593V421.5ZM148.031 414.625C147.616 415.119 147.118 415.517 146.538 415.817C145.965 416.118 145.335 416.269 144.647 416.269C143.745 416.269 142.957 416.047 142.284 415.603C141.618 415.159 141.103 414.535 140.737 413.733C140.372 412.924 140.189 412.033 140.189 411.059C140.189 410.013 140.386 409.071 140.78 408.233C141.181 407.396 141.747 406.755 142.478 406.311C143.208 405.867 144.06 405.645 145.034 405.645C146.581 405.645 147.799 406.225 148.687 407.385C149.582 408.538 150.029 410.113 150.029 412.111V412.691C150.029 415.735 149.428 417.959 148.225 419.362C147.021 420.759 145.206 421.475 142.778 421.511H142.392V419.835H142.811C144.451 419.806 145.711 419.38 146.592 418.557C147.473 417.726 147.952 416.415 148.031 414.625ZM144.97 414.625C145.636 414.625 146.248 414.421 146.807 414.013C147.372 413.604 147.784 413.1 148.042 412.498V411.703C148.042 410.4 147.759 409.34 147.193 408.523C146.628 407.707 145.911 407.299 145.045 407.299C144.171 407.299 143.469 407.635 142.939 408.309C142.41 408.975 142.145 409.855 142.145 410.951C142.145 412.018 142.399 412.899 142.907 413.594C143.423 414.281 144.11 414.625 144.97 414.625Z" fill="black"/>
<path d="M974 1H553V311H974V1Z" fill="#D01619" stroke="black" stroke-width="5"/>
<path d="M566.656 13.2705H559.878V18.8135H567.752V20.5H557.815V4.85938H567.645V6.55664H559.878V11.584H566.656V13.2705ZM573.907 13.1201L576.485 8.87695H578.806L575.003 14.624L578.924 20.5H576.625L573.939 16.1494L571.254 20.5H568.944L572.865 14.624L569.062 8.87695H571.361L573.907 13.1201ZM583.081 20.5H581.094V8.87695H583.081V20.5ZM580.933 5.79395C580.933 5.47168 581.029 5.19954 581.223 4.97754C581.423 4.75553 581.717 4.64453 582.104 4.64453C582.49 4.64453 582.784 4.75553 582.984 4.97754C583.185 5.19954 583.285 5.47168 583.285 5.79395C583.285 6.11621 583.185 6.38477 582.984 6.59961C582.784 6.81445 582.49 6.92188 582.104 6.92188C581.717 6.92188 581.423 6.81445 581.223 6.59961C581.029 6.38477 580.933 6.11621 580.933 5.79395ZM593.039 17.417C593.039 16.8799 592.835 16.4645 592.427 16.1709C592.026 15.8701 591.32 15.6123 590.311 15.3975C589.308 15.1826 588.509 14.9248 587.915 14.624C587.328 14.3232 586.891 13.9652 586.604 13.5498C586.325 13.1344 586.186 12.6403 586.186 12.0674C586.186 11.1149 586.587 10.3092 587.389 9.65039C588.198 8.99154 589.229 8.66211 590.482 8.66211C591.8 8.66211 592.867 9.00228 593.684 9.68262C594.507 10.363 594.919 11.2331 594.919 12.293H592.921C592.921 11.7487 592.688 11.2796 592.223 10.8857C591.764 10.4919 591.184 10.2949 590.482 10.2949C589.759 10.2949 589.193 10.4525 588.785 10.7676C588.377 11.0827 588.173 11.4945 588.173 12.0029C588.173 12.4827 588.363 12.8444 588.742 13.0879C589.122 13.3314 589.806 13.5641 590.794 13.7861C591.789 14.0081 592.595 14.2731 593.211 14.5811C593.827 14.889 594.282 15.2614 594.575 15.6982C594.876 16.1279 595.026 16.6543 595.026 17.2773C595.026 18.3158 594.611 19.1501 593.78 19.7803C592.95 20.4033 591.872 20.7148 590.547 20.7148C589.616 20.7148 588.792 20.5501 588.076 20.2207C587.36 19.8913 586.798 19.4329 586.39 18.8457C585.989 18.2513 585.788 17.6104 585.788 16.9229H587.775C587.811 17.5889 588.076 18.1188 588.57 18.5127C589.072 18.8994 589.73 19.0928 590.547 19.0928C591.299 19.0928 591.9 18.9424 592.352 18.6416C592.81 18.3337 593.039 17.9255 593.039 17.417ZM600.312 6.0625V8.87695H602.481V10.4131H600.312V17.6211C600.312 18.0866 600.408 18.4375 600.602 18.6738C600.795 18.903 601.124 19.0176 601.59 19.0176C601.819 19.0176 602.134 18.9746 602.535 18.8887V20.5C602.012 20.6432 601.504 20.7148 601.01 20.7148C600.122 20.7148 599.452 20.4463 599.001 19.9092C598.55 19.3721 598.324 18.6094 598.324 17.6211V10.4131H596.208V8.87695H598.324V6.0625H600.312ZM606.972 20.5H604.984V8.87695H606.972V20.5ZM604.823 5.79395C604.823 5.47168 604.92 5.19954 605.113 4.97754C605.314 4.75553 605.607 4.64453 605.994 4.64453C606.381 4.64453 606.674 4.75553 606.875 4.97754C607.076 5.19954 607.176 5.47168 607.176 5.79395C607.176 6.11621 607.076 6.38477 606.875 6.59961C606.674 6.81445 606.381 6.92188 605.994 6.92188C605.607 6.92188 605.314 6.81445 605.113 6.59961C604.92 6.38477 604.823 6.11621 604.823 5.79395ZM612.042 8.87695L612.106 10.3379C612.994 9.2207 614.155 8.66211 615.587 8.66211C618.043 8.66211 619.282 10.0479 619.304 12.8193V20.5H617.316V12.8086C617.309 11.9707 617.116 11.3512 616.736 10.9502C616.364 10.5492 615.78 10.3486 614.985 10.3486C614.341 10.3486 613.775 10.5205 613.288 10.8643C612.801 11.208 612.422 11.6592 612.149 12.2178V20.5H610.162V8.87695H612.042ZM621.828 14.5918C621.828 12.7799 622.247 11.3405 623.085 10.2734C623.923 9.19922 625.033 8.66211 626.415 8.66211C627.833 8.66211 628.939 9.16341 629.734 10.166L629.831 8.87695H631.646V20.2207C631.646 21.7246 631.199 22.9098 630.304 23.7764C629.416 24.6429 628.22 25.0762 626.716 25.0762C625.878 25.0762 625.058 24.8971 624.256 24.5391C623.454 24.181 622.841 23.6904 622.419 23.0674L623.45 21.875C624.302 22.9277 625.344 23.4541 626.576 23.4541C627.543 23.4541 628.295 23.182 628.832 22.6377C629.376 22.0934 629.648 21.3271 629.648 20.3389V19.3398C628.854 20.2565 627.769 20.7148 626.394 20.7148C625.033 20.7148 623.93 20.167 623.085 19.0713C622.247 17.9756 621.828 16.4824 621.828 14.5918ZM623.826 14.8174C623.826 16.1279 624.095 17.1592 624.632 17.9111C625.169 18.6559 625.921 19.0283 626.888 19.0283C628.141 19.0283 629.061 18.459 629.648 17.3203V12.0137C629.04 10.9036 628.127 10.3486 626.909 10.3486C625.942 10.3486 625.187 10.7246 624.643 11.4766C624.098 12.2285 623.826 13.3421 623.826 14.8174ZM644.473 14.8174C644.473 16.5863 644.068 18.0114 643.259 19.0928C642.45 20.1742 641.354 20.7148 639.972 20.7148C638.561 20.7148 637.451 20.2673 636.642 19.3721V24.9688H634.654V8.87695H636.47L636.566 10.166C637.376 9.16341 638.5 8.66211 639.939 8.66211C641.336 8.66211 642.439 9.18848 643.248 10.2412C644.064 11.2939 644.473 12.7585 644.473 14.6348V14.8174ZM642.485 14.5918C642.485 13.2812 642.206 12.2464 641.647 11.4873C641.089 10.7282 640.323 10.3486 639.349 10.3486C638.146 10.3486 637.243 10.8822 636.642 11.9492V17.5029C637.236 18.5628 638.146 19.0928 639.37 19.0928C640.323 19.0928 641.078 18.7168 641.637 17.9648C642.202 17.2057 642.485 16.0814 642.485 14.5918ZM652.626 10.6602C652.325 10.61 651.999 10.585 651.648 10.585C650.345 10.585 649.461 11.14 648.995 12.25V20.5H647.008V8.87695H648.941L648.974 10.2197C649.625 9.18132 650.549 8.66211 651.745 8.66211C652.132 8.66211 652.425 8.71224 652.626 8.8125V10.6602ZM653.722 14.5811C653.722 13.4424 653.944 12.4183 654.388 11.5088C654.839 10.5993 655.462 9.89746 656.257 9.40332C657.059 8.90918 657.972 8.66211 658.996 8.66211C660.579 8.66211 661.857 9.20996 662.831 10.3057C663.812 11.4014 664.303 12.8587 664.303 14.6777V14.8174C664.303 15.9489 664.084 16.9658 663.647 17.8682C663.218 18.7633 662.598 19.4616 661.789 19.9629C660.987 20.4642 660.063 20.7148 659.018 20.7148C657.442 20.7148 656.164 20.167 655.183 19.0713C654.209 17.9756 653.722 16.5254 653.722 14.7207V14.5811ZM655.72 14.8174C655.72 16.1064 656.017 17.1413 656.611 17.9219C657.213 18.7025 658.015 19.0928 659.018 19.0928C660.027 19.0928 660.829 18.6989 661.424 17.9111C662.018 17.1162 662.315 16.0062 662.315 14.5811C662.315 13.3063 662.011 12.2751 661.402 11.4873C660.801 10.6924 659.999 10.2949 658.996 10.2949C658.015 10.2949 657.224 10.6852 656.622 11.4658C656.021 12.2464 655.72 13.3636 655.72 14.8174ZM667.461 20.5V10.4131H665.624V8.87695H667.461V7.88867C667.461 6.59245 667.83 5.58268 668.567 4.85938C669.312 4.13607 670.361 3.77441 671.715 3.77441C672.517 3.77441 673.53 3.99284 674.755 4.42969L674.422 6.10547C673.527 5.7474 672.674 5.56836 671.865 5.56836C671.013 5.56836 670.397 5.76172 670.018 6.14844C669.645 6.52799 669.459 7.10091 669.459 7.86719V8.87695H671.833V10.4131H669.459V20.5H667.461ZM675.743 20.5H673.745V8.87695H675.743V20.5ZM681.136 20.5H679.148V4H681.136V20.5ZM689.149 20.7148C687.574 20.7148 686.292 20.1992 685.304 19.168C684.315 18.1296 683.821 16.7438 683.821 15.0107V14.6455C683.821 13.4925 684.04 12.4648 684.477 11.5625C684.921 10.653 685.536 9.94401 686.324 9.43555C687.119 8.91992 687.979 8.66211 688.902 8.66211C690.413 8.66211 691.588 9.15983 692.426 10.1553C693.264 11.1507 693.683 12.5758 693.683 14.4307V15.2578H685.809C685.837 16.4036 686.17 17.3311 686.808 18.04C687.452 18.7419 688.269 19.0928 689.257 19.0928C689.959 19.0928 690.553 18.9495 691.04 18.6631C691.527 18.3766 691.953 17.9971 692.318 17.5244L693.532 18.4697C692.558 19.9665 691.097 20.7148 689.149 20.7148ZM688.902 10.2949C688.1 10.2949 687.427 10.5885 686.883 11.1758C686.339 11.7559 686.002 12.5723 685.873 13.625H691.695V13.4746C691.638 12.4648 691.366 11.6842 690.879 11.1328C690.392 10.5742 689.733 10.2949 688.902 10.2949ZM702.319 20.5H700.321V7.25488L696.314 8.72656V6.92188L702.008 4.78418H702.319V20.5ZM715.758 13.625C715.342 14.1191 714.845 14.5166 714.265 14.8174C713.692 15.1182 713.062 15.2686 712.374 15.2686C711.472 15.2686 710.684 15.0465 710.011 14.6025C709.345 14.1585 708.829 13.5355 708.464 12.7334C708.099 11.9242 707.916 11.0326 707.916 10.0586C707.916 9.01302 708.113 8.07129 708.507 7.2334C708.908 6.39551 709.474 5.75456 710.204 5.31055C710.935 4.86654 711.787 4.64453 712.761 4.64453C714.308 4.64453 715.525 5.22461 716.413 6.38477C717.308 7.53776 717.756 9.11328 717.756 11.1113V11.6914C717.756 14.735 717.154 16.9587 715.951 18.3623C714.748 19.7588 712.933 20.4749 710.505 20.5107H710.118V18.835H710.537C712.177 18.8063 713.438 18.3802 714.318 17.5566C715.199 16.7259 715.679 15.4154 715.758 13.625ZM712.696 13.625C713.362 13.625 713.975 13.4209 714.533 13.0127C715.099 12.6045 715.511 12.0996 715.769 11.498V10.7031C715.769 9.39974 715.486 8.33984 714.92 7.52344C714.354 6.70703 713.638 6.29883 712.771 6.29883C711.898 6.29883 711.196 6.63542 710.666 7.30859C710.136 7.97461 709.871 8.85547 709.871 9.95117C709.871 11.0182 710.125 11.8991 710.634 12.5938C711.149 13.2812 711.837 13.625 712.696 13.625Z" fill="black"/>
<path d="M805 312H553V639H805V312Z" fill="#FFD306" stroke="black" stroke-width="5"/>
<path d="M566.452 327.418H559.899L558.428 331.5H556.301L562.273 315.859H564.078L570.062 331.5H567.945L566.452 327.418ZM560.522 325.721H565.84L563.176 318.405L560.522 325.721ZM577.474 321.66C577.173 321.61 576.847 321.585 576.496 321.585C575.193 321.585 574.308 322.14 573.843 323.25V331.5H571.855V319.877H573.789L573.821 321.22C574.473 320.181 575.397 319.662 576.593 319.662C576.979 319.662 577.273 319.712 577.474 319.812V321.66ZM582.544 317.062V319.877H584.714V321.413H582.544V328.621C582.544 329.087 582.641 329.438 582.834 329.674C583.027 329.903 583.357 330.018 583.822 330.018C584.051 330.018 584.367 329.975 584.768 329.889V331.5C584.245 331.643 583.736 331.715 583.242 331.715C582.354 331.715 581.685 331.446 581.233 330.909C580.782 330.372 580.557 329.609 580.557 328.621V321.413H578.44V319.877H580.557V317.062H582.544ZM589.204 331.5H587.217V319.877H589.204V331.5ZM587.056 316.794C587.056 316.472 587.152 316.2 587.346 315.978C587.546 315.756 587.84 315.645 588.227 315.645C588.613 315.645 588.907 315.756 589.107 315.978C589.308 316.2 589.408 316.472 589.408 316.794C589.408 317.116 589.308 317.385 589.107 317.6C588.907 317.814 588.613 317.922 588.227 317.922C587.84 317.922 587.546 317.814 587.346 317.6C587.152 317.385 587.056 317.116 587.056 316.794ZM599.162 328.417C599.162 327.88 598.958 327.465 598.55 327.171C598.149 326.87 597.443 326.612 596.434 326.397C595.431 326.183 594.632 325.925 594.038 325.624C593.451 325.323 593.014 324.965 592.728 324.55C592.448 324.134 592.309 323.64 592.309 323.067C592.309 322.115 592.71 321.309 593.512 320.65C594.321 319.992 595.352 319.662 596.605 319.662C597.923 319.662 598.99 320.002 599.807 320.683C600.63 321.363 601.042 322.233 601.042 323.293H599.044C599.044 322.749 598.811 322.28 598.346 321.886C597.887 321.492 597.307 321.295 596.605 321.295C595.882 321.295 595.316 321.452 594.908 321.768C594.5 322.083 594.296 322.494 594.296 323.003C594.296 323.483 594.486 323.844 594.865 324.088C595.245 324.331 595.929 324.564 596.917 324.786C597.912 325.008 598.718 325.273 599.334 325.581C599.95 325.889 600.405 326.261 600.698 326.698C600.999 327.128 601.149 327.654 601.149 328.277C601.149 329.316 600.734 330.15 599.903 330.78C599.073 331.403 597.995 331.715 596.67 331.715C595.739 331.715 594.915 331.55 594.199 331.221C593.483 330.891 592.921 330.433 592.513 329.846C592.112 329.251 591.911 328.61 591.911 327.923H593.898C593.934 328.589 594.199 329.119 594.693 329.513C595.195 329.899 595.854 330.093 596.67 330.093C597.422 330.093 598.023 329.942 598.475 329.642C598.933 329.334 599.162 328.925 599.162 328.417ZM606.435 317.062V319.877H608.604V321.413H606.435V328.621C606.435 329.087 606.531 329.438 606.725 329.674C606.918 329.903 607.247 330.018 607.713 330.018C607.942 330.018 608.257 329.975 608.658 329.889V331.5C608.135 331.643 607.627 331.715 607.133 331.715C606.245 331.715 605.575 331.446 605.124 330.909C604.673 330.372 604.447 329.609 604.447 328.621V321.413H602.331V319.877H604.447V317.062H606.435ZM613.095 331.5H611.107V319.877H613.095V331.5ZM610.946 316.794C610.946 316.472 611.043 316.2 611.236 315.978C611.437 315.756 611.73 315.645 612.117 315.645C612.504 315.645 612.798 315.756 612.998 315.978C613.199 316.2 613.299 316.472 613.299 316.794C613.299 317.116 613.199 317.385 612.998 317.6C612.798 317.814 612.504 317.922 612.117 317.922C611.73 317.922 611.437 317.814 611.236 317.6C611.043 317.385 610.946 317.116 610.946 316.794ZM620.947 330.093C621.656 330.093 622.276 329.878 622.806 329.448C623.336 329.019 623.629 328.481 623.687 327.837H625.566C625.531 328.503 625.301 329.137 624.879 329.738C624.456 330.34 623.891 330.82 623.182 331.178C622.48 331.536 621.735 331.715 620.947 331.715C619.365 331.715 618.104 331.188 617.166 330.136C616.235 329.076 615.77 327.629 615.77 325.796V325.463C615.77 324.331 615.977 323.325 616.393 322.444C616.808 321.563 617.402 320.88 618.176 320.393C618.956 319.906 619.877 319.662 620.937 319.662C622.24 319.662 623.321 320.052 624.181 320.833C625.047 321.614 625.509 322.627 625.566 323.873H623.687C623.629 323.121 623.343 322.505 622.827 322.025C622.319 321.538 621.688 321.295 620.937 321.295C619.927 321.295 619.143 321.66 618.584 322.391C618.033 323.114 617.757 324.163 617.757 325.538V325.914C617.757 327.253 618.033 328.285 618.584 329.008C619.135 329.731 619.923 330.093 620.947 330.093ZM639.617 326.537C639.424 328.191 638.812 329.47 637.78 330.372C636.756 331.267 635.392 331.715 633.688 331.715C631.84 331.715 630.357 331.052 629.24 329.728C628.13 328.403 627.575 326.63 627.575 324.41V322.906C627.575 321.452 627.833 320.174 628.349 319.071C628.871 317.968 629.609 317.123 630.562 316.536C631.514 315.942 632.617 315.645 633.87 315.645C635.532 315.645 636.864 316.11 637.866 317.041C638.869 317.965 639.452 319.247 639.617 320.887H637.544C637.365 319.641 636.975 318.738 636.373 318.18C635.779 317.621 634.944 317.342 633.87 317.342C632.552 317.342 631.518 317.829 630.766 318.803C630.021 319.777 629.648 321.162 629.648 322.96V324.475C629.648 326.172 630.003 327.522 630.712 328.524C631.421 329.527 632.413 330.028 633.688 330.028C634.833 330.028 635.711 329.771 636.319 329.255C636.935 328.732 637.343 327.826 637.544 326.537H639.617ZM647.62 328.761L652.089 315.859H654.345L648.544 331.5H646.718L640.928 315.859H643.173L647.62 328.761ZM662.466 331.5H660.468V318.255L656.461 319.727V317.922L662.154 315.784H662.466V331.5ZM678.536 331.5H668.288V330.071L673.702 324.056C674.504 323.146 675.056 322.409 675.356 321.843C675.664 321.27 675.818 320.679 675.818 320.07C675.818 319.254 675.571 318.584 675.077 318.062C674.583 317.539 673.924 317.277 673.101 317.277C672.112 317.277 671.342 317.56 670.791 318.126C670.247 318.685 669.975 319.465 669.975 320.468H667.987C667.987 319.028 668.449 317.865 669.373 316.977C670.304 316.089 671.547 315.645 673.101 315.645C674.554 315.645 675.704 316.028 676.549 316.794C677.394 317.553 677.816 318.566 677.816 319.834C677.816 321.374 676.835 323.207 674.873 325.334L670.684 329.878H678.536V331.5Z" fill="black"/>
<path d="M974 312H806V516H974V312Z" fill="#344D90" stroke="black" stroke-width="5"/>
<path d="M815.424 324.528C813.655 324.02 812.366 323.397 811.557 322.659C810.755 321.914 810.354 320.998 810.354 319.909C810.354 318.677 810.844 317.66 811.825 316.858C812.813 316.049 814.095 315.645 815.671 315.645C816.745 315.645 817.701 315.852 818.539 316.268C819.384 316.683 820.036 317.256 820.494 317.986C820.96 318.717 821.192 319.515 821.192 320.382H819.119C819.119 319.437 818.818 318.695 818.217 318.158C817.615 317.614 816.767 317.342 815.671 317.342C814.654 317.342 813.859 317.567 813.286 318.019C812.72 318.463 812.438 319.082 812.438 319.877C812.438 320.514 812.706 321.055 813.243 321.499C813.787 321.936 814.708 322.337 816.004 322.702C817.307 323.067 818.324 323.472 819.055 323.916C819.792 324.353 820.337 324.865 820.688 325.452C821.046 326.039 821.225 326.73 821.225 327.525C821.225 328.793 820.73 329.81 819.742 330.576C818.754 331.335 817.433 331.715 815.778 331.715C814.704 331.715 813.701 331.511 812.771 331.103C811.84 330.687 811.12 330.121 810.611 329.405C810.11 328.689 809.859 327.876 809.859 326.967H811.933C811.933 327.912 812.28 328.66 812.975 329.212C813.676 329.756 814.611 330.028 815.778 330.028C816.867 330.028 817.701 329.806 818.281 329.362C818.861 328.918 819.151 328.313 819.151 327.547C819.151 326.781 818.883 326.19 818.346 325.774C817.809 325.352 816.835 324.937 815.424 324.528ZM826.263 317.062V319.877H828.433V321.413H826.263V328.621C826.263 329.087 826.359 329.438 826.553 329.674C826.746 329.903 827.076 330.018 827.541 330.018C827.77 330.018 828.085 329.975 828.486 329.889V331.5C827.964 331.643 827.455 331.715 826.961 331.715C826.073 331.715 825.403 331.446 824.952 330.909C824.501 330.372 824.275 329.609 824.275 328.621V321.413H822.159V319.877H824.275V317.062H826.263ZM837.939 330.351C837.166 331.26 836.031 331.715 834.534 331.715C833.295 331.715 832.35 331.357 831.698 330.641C831.054 329.917 830.728 328.85 830.721 327.439V319.877H832.708V327.386C832.708 329.147 833.424 330.028 834.856 330.028C836.375 330.028 837.384 329.463 837.886 328.331V319.877H839.873V331.5H837.982L837.939 330.351ZM842.419 325.592C842.419 323.809 842.841 322.376 843.687 321.295C844.532 320.206 845.638 319.662 847.006 319.662C848.367 319.662 849.444 320.128 850.239 321.059V315H852.227V331.5H850.4L850.304 330.254C849.509 331.228 848.402 331.715 846.984 331.715C845.638 331.715 844.539 331.163 843.687 330.061C842.841 328.958 842.419 327.518 842.419 325.742V325.592ZM844.406 325.817C844.406 327.135 844.678 328.166 845.223 328.911C845.767 329.656 846.519 330.028 847.479 330.028C848.739 330.028 849.659 329.463 850.239 328.331V322.992C849.645 321.896 848.732 321.349 847.5 321.349C846.526 321.349 845.767 321.725 845.223 322.477C844.678 323.229 844.406 324.342 844.406 325.817ZM860.144 331.715C858.568 331.715 857.286 331.199 856.298 330.168C855.31 329.13 854.815 327.744 854.815 326.011V325.646C854.815 324.493 855.034 323.465 855.471 322.562C855.915 321.653 856.531 320.944 857.318 320.436C858.113 319.92 858.973 319.662 859.896 319.662C861.408 319.662 862.582 320.16 863.42 321.155C864.258 322.151 864.677 323.576 864.677 325.431V326.258H856.803C856.831 327.404 857.164 328.331 857.802 329.04C858.446 329.742 859.263 330.093 860.251 330.093C860.953 330.093 861.547 329.95 862.034 329.663C862.521 329.377 862.947 328.997 863.312 328.524L864.526 329.47C863.552 330.966 862.091 331.715 860.144 331.715ZM859.896 321.295C859.094 321.295 858.421 321.589 857.877 322.176C857.333 322.756 856.996 323.572 856.867 324.625H862.689V324.475C862.632 323.465 862.36 322.684 861.873 322.133C861.386 321.574 860.727 321.295 859.896 321.295ZM868.866 319.877L868.931 321.338C869.819 320.221 870.979 319.662 872.411 319.662C874.868 319.662 876.106 321.048 876.128 323.819V331.5H874.141V323.809C874.133 322.971 873.94 322.351 873.561 321.95C873.188 321.549 872.604 321.349 871.81 321.349C871.165 321.349 870.599 321.521 870.112 321.864C869.625 322.208 869.246 322.659 868.974 323.218V331.5H866.986V319.877H868.866ZM881.821 317.062V319.877H883.991V321.413H881.821V328.621C881.821 329.087 881.918 329.438 882.111 329.674C882.305 329.903 882.634 330.018 883.1 330.018C883.329 330.018 883.644 329.975 884.045 329.889V331.5C883.522 331.643 883.014 331.715 882.52 331.715C881.632 331.715 880.962 331.446 880.511 330.909C880.06 330.372 879.834 329.609 879.834 328.621V321.413H877.718V319.877H879.834V317.062H881.821ZM887.031 323.658L887.826 315.859H895.84V317.696H889.513L889.04 321.961C889.806 321.51 890.676 321.284 891.65 321.284C893.076 321.284 894.207 321.757 895.045 322.702C895.883 323.64 896.302 324.911 896.302 326.516C896.302 328.127 895.865 329.398 894.991 330.329C894.125 331.253 892.911 331.715 891.35 331.715C889.967 331.715 888.84 331.332 887.966 330.565C887.092 329.799 886.594 328.739 886.473 327.386H888.353C888.474 328.281 888.793 328.958 889.309 329.416C889.824 329.867 890.505 330.093 891.35 330.093C892.273 330.093 892.997 329.778 893.52 329.147C894.049 328.517 894.314 327.647 894.314 326.537C894.314 325.492 894.028 324.654 893.455 324.023C892.889 323.386 892.134 323.067 891.188 323.067C890.322 323.067 889.642 323.257 889.147 323.637L888.621 324.066L887.031 323.658Z" fill="black"/>
<path d="M918 517H806V578H918V517Z" fill="#FAF9F4" stroke="black" stroke-width="5"/>
<path d="M822.363 534.448C821.833 535.207 821.092 535.777 820.14 536.156C819.194 536.529 818.091 536.715 816.831 536.715C815.556 536.715 814.425 536.418 813.437 535.823C812.448 535.222 811.682 534.369 811.138 533.267C810.601 532.164 810.325 530.885 810.311 529.432V528.067C810.311 525.711 810.858 523.885 811.954 522.589C813.057 521.293 814.604 520.645 816.595 520.645C818.228 520.645 819.542 521.063 820.537 521.901C821.533 522.732 822.141 523.914 822.363 525.446H820.301C819.914 523.377 818.682 522.342 816.605 522.342C815.223 522.342 814.174 522.829 813.458 523.803C812.749 524.77 812.391 526.173 812.384 528.014V529.292C812.384 531.047 812.785 532.443 813.587 533.481C814.389 534.513 815.474 535.028 816.842 535.028C817.615 535.028 818.292 534.942 818.872 534.771C819.452 534.599 819.932 534.309 820.312 533.9V530.388H816.691V528.712H822.363V534.448ZM831.118 526.66C830.817 526.61 830.492 526.585 830.141 526.585C828.837 526.585 827.953 527.14 827.487 528.25V536.5H825.5V524.877H827.434L827.466 526.22C828.118 525.181 829.041 524.662 830.237 524.662C830.624 524.662 830.918 524.712 831.118 524.812V526.66ZM832.214 530.581C832.214 529.442 832.436 528.418 832.88 527.509C833.331 526.599 833.954 525.897 834.749 525.403C835.551 524.909 836.464 524.662 837.488 524.662C839.071 524.662 840.349 525.21 841.323 526.306C842.304 527.401 842.795 528.859 842.795 530.678V530.817C842.795 531.949 842.576 532.966 842.14 533.868C841.71 534.763 841.09 535.462 840.281 535.963C839.479 536.464 838.555 536.715 837.51 536.715C835.934 536.715 834.656 536.167 833.675 535.071C832.701 533.976 832.214 532.525 832.214 530.721V530.581ZM834.212 530.817C834.212 532.106 834.509 533.141 835.104 533.922C835.705 534.702 836.507 535.093 837.51 535.093C838.52 535.093 839.322 534.699 839.916 533.911C840.51 533.116 840.808 532.006 840.808 530.581C840.808 529.306 840.503 528.275 839.895 527.487C839.293 526.692 838.491 526.295 837.488 526.295C836.507 526.295 835.716 526.685 835.114 527.466C834.513 528.246 834.212 529.364 834.212 530.817ZM852.463 535.351C851.689 536.26 850.554 536.715 849.058 536.715C847.819 536.715 846.873 536.357 846.222 535.641C845.577 534.917 845.251 533.85 845.244 532.439V524.877H847.231V532.386C847.231 534.147 847.948 535.028 849.38 535.028C850.898 535.028 851.908 534.463 852.409 533.331V524.877H854.396V536.5H852.506L852.463 535.351ZM867.244 530.817C867.244 532.586 866.84 534.011 866.03 535.093C865.221 536.174 864.125 536.715 862.743 536.715C861.332 536.715 860.222 536.267 859.413 535.372V540.969H857.426V524.877H859.241L859.338 526.166C860.147 525.163 861.271 524.662 862.711 524.662C864.107 524.662 865.21 525.188 866.02 526.241C866.836 527.294 867.244 528.758 867.244 530.635V530.817ZM865.257 530.592C865.257 529.281 864.978 528.246 864.419 527.487C863.86 526.728 863.094 526.349 862.12 526.349C860.917 526.349 860.015 526.882 859.413 527.949V533.503C860.007 534.563 860.917 535.093 862.142 535.093C863.094 535.093 863.85 534.717 864.408 533.965C864.974 533.206 865.257 532.081 865.257 530.592ZM876.106 536.5H874.108V523.255L870.102 524.727V522.922L875.795 520.784H876.106V536.5Z" fill="black"/>
<path d="M918 579H806V639H918V579Z" fill="#D01619" stroke="black" stroke-width="5"/>
<path d="M819.691 595H818.089L812.005 585.687V595H810.403V582.914H812.005L818.106 592.269V582.914H819.691V595ZM821.875 590.426C821.875 589.546 822.046 588.755 822.389 588.052C822.738 587.349 823.219 586.807 823.833 586.425C824.453 586.043 825.159 585.853 825.95 585.853C827.173 585.853 828.161 586.276 828.914 587.123C829.672 587.969 830.051 589.095 830.051 590.501V590.609C830.051 591.483 829.882 592.269 829.544 592.966C829.212 593.658 828.734 594.198 828.108 594.585C827.489 594.972 826.775 595.166 825.967 595.166C824.749 595.166 823.762 594.743 823.003 593.896C822.251 593.049 821.875 591.929 821.875 590.534V590.426ZM823.418 590.609C823.418 591.605 823.648 592.405 824.107 593.008C824.572 593.611 825.192 593.913 825.967 593.913C826.747 593.913 827.367 593.608 827.826 593C828.285 592.385 828.515 591.528 828.515 590.426C828.515 589.441 828.28 588.644 827.81 588.036C827.345 587.421 826.725 587.114 825.95 587.114C825.192 587.114 824.581 587.416 824.116 588.019C823.651 588.622 823.418 589.486 823.418 590.609ZM834.06 583.844V586.019H835.737V587.206H834.06V592.775C834.06 593.135 834.135 593.406 834.284 593.589C834.434 593.766 834.688 593.854 835.048 593.854C835.225 593.854 835.468 593.821 835.778 593.755V595C835.374 595.111 834.981 595.166 834.6 595.166C833.913 595.166 833.396 594.958 833.047 594.543C832.699 594.128 832.524 593.539 832.524 592.775V587.206H830.889V586.019H832.524V583.844H834.06ZM845.125 590.609C845.125 591.976 844.812 593.077 844.187 593.913C843.562 594.748 842.715 595.166 841.647 595.166C840.557 595.166 839.699 594.82 839.074 594.128V598.453H837.538V586.019H838.941L839.016 587.015C839.641 586.24 840.51 585.853 841.622 585.853C842.701 585.853 843.553 586.259 844.179 587.073C844.81 587.886 845.125 589.018 845.125 590.468V590.609ZM843.589 590.435C843.589 589.422 843.374 588.622 842.942 588.036C842.51 587.449 841.918 587.156 841.166 587.156C840.236 587.156 839.539 587.568 839.074 588.393V592.684C839.533 593.503 840.236 593.913 841.182 593.913C841.918 593.913 842.502 593.622 842.934 593.041C843.371 592.454 843.589 591.586 843.589 590.435ZM850.811 595.166C849.594 595.166 848.603 594.768 847.839 593.971C847.076 593.168 846.694 592.097 846.694 590.758V590.476C846.694 589.585 846.863 588.791 847.2 588.094C847.543 587.391 848.019 586.843 848.628 586.45C849.242 586.052 849.906 585.853 850.62 585.853C851.788 585.853 852.695 586.237 853.343 587.006C853.99 587.776 854.314 588.877 854.314 590.31V590.949H848.229C848.252 591.835 848.509 592.551 849.001 593.099C849.5 593.641 850.13 593.913 850.894 593.913C851.436 593.913 851.896 593.802 852.272 593.581C852.648 593.359 852.978 593.066 853.26 592.701L854.198 593.431C853.445 594.588 852.316 595.166 850.811 595.166ZM850.62 587.114C850 587.114 849.48 587.341 849.06 587.795C848.639 588.243 848.379 588.874 848.279 589.688H852.778V589.571C852.734 588.791 852.524 588.188 852.147 587.762C851.771 587.33 851.262 587.114 850.62 587.114ZM860.44 587.396C860.208 587.358 859.956 587.338 859.685 587.338C858.677 587.338 857.994 587.767 857.634 588.625V595H856.099V586.019H857.593L857.618 587.056C858.121 586.254 858.835 585.853 859.759 585.853C860.058 585.853 860.285 585.891 860.44 585.969V587.396ZM863.304 586.019L863.345 587.015C864.004 586.24 864.892 585.853 866.01 585.853C867.266 585.853 868.121 586.334 868.575 587.297C868.874 586.865 869.261 586.517 869.737 586.251C870.218 585.985 870.785 585.853 871.438 585.853C873.409 585.853 874.41 586.896 874.443 588.982V595H872.908V589.073C872.908 588.431 872.761 587.953 872.468 587.637C872.174 587.316 871.682 587.156 870.99 587.156C870.42 587.156 869.947 587.327 869.571 587.67C869.194 588.008 868.976 588.465 868.915 589.04V595H867.371V589.115C867.371 587.809 866.732 587.156 865.454 587.156C864.446 587.156 863.757 587.585 863.387 588.442V595H861.851V586.019H863.304ZM882.312 595C882.224 594.823 882.152 594.507 882.097 594.054C881.383 594.795 880.531 595.166 879.54 595.166C878.655 595.166 877.927 594.917 877.357 594.419C876.792 593.915 876.51 593.279 876.51 592.51C876.51 591.575 876.864 590.85 877.573 590.335C878.287 589.815 879.288 589.555 880.578 589.555H882.072V588.849C882.072 588.312 881.911 587.886 881.59 587.571C881.269 587.25 880.796 587.089 880.171 587.089C879.623 587.089 879.164 587.228 878.793 587.504C878.422 587.781 878.237 588.116 878.237 588.509H876.693C876.693 588.061 876.851 587.629 877.166 587.214C877.487 586.793 877.919 586.461 878.461 586.218C879.009 585.974 879.609 585.853 880.262 585.853C881.297 585.853 882.108 586.113 882.694 586.633C883.281 587.147 883.585 587.859 883.607 588.766V592.9C883.607 593.724 883.713 594.38 883.923 594.867V595H882.312ZM879.764 593.83C880.246 593.83 880.702 593.705 881.134 593.456C881.565 593.207 881.878 592.883 882.072 592.485V590.642H880.868C878.987 590.642 878.046 591.193 878.046 592.294C878.046 592.775 878.206 593.152 878.527 593.423C878.848 593.694 879.261 593.83 879.764 593.83ZM887.467 586.019L887.517 587.147C888.203 586.284 889.1 585.853 890.207 585.853C892.105 585.853 893.062 586.923 893.079 589.065V595H891.543V589.057C891.537 588.409 891.388 587.931 891.095 587.621C890.807 587.311 890.356 587.156 889.742 587.156C889.244 587.156 888.806 587.289 888.43 587.554C888.054 587.82 887.761 588.168 887.55 588.6V595H886.015V586.019H887.467ZM899.122 595.166C897.904 595.166 896.914 594.768 896.15 593.971C895.386 593.168 895.004 592.097 895.004 590.758V590.476C895.004 589.585 895.173 588.791 895.511 588.094C895.854 587.391 896.33 586.843 896.938 586.45C897.553 586.052 898.217 585.853 898.931 585.853C900.098 585.853 901.006 586.237 901.653 587.006C902.301 587.776 902.625 588.877 902.625 590.31V590.949H896.54C896.562 591.835 896.819 592.551 897.312 593.099C897.81 593.641 898.441 593.913 899.205 593.913C899.747 593.913 900.206 593.802 900.583 593.581C900.959 593.359 901.288 593.066 901.57 592.701L902.508 593.431C901.756 594.588 900.627 595.166 899.122 595.166ZM898.931 587.114C898.311 587.114 897.791 587.341 897.37 587.795C896.95 588.243 896.689 588.874 896.59 589.688H901.089V589.571C901.045 588.791 900.834 588.188 900.458 587.762C900.082 587.33 899.573 587.114 898.931 587.114ZM905.862 586.019L905.912 587.147C906.598 586.284 907.494 585.853 908.601 585.853C910.499 585.853 911.457 586.923 911.473 589.065V595H909.938V589.057C909.932 588.409 909.783 587.931 909.489 587.621C909.201 587.311 908.75 587.156 908.136 587.156C907.638 587.156 907.201 587.289 906.825 587.554C906.448 587.82 906.155 588.168 905.945 588.6V595H904.409V586.019H905.862ZM812.246 603.844V606.019H813.922V607.206H812.246V612.775C812.246 613.135 812.32 613.406 812.47 613.589C812.619 613.766 812.874 613.854 813.233 613.854C813.41 613.854 813.654 613.821 813.964 613.755V615C813.56 615.111 813.167 615.166 812.785 615.166C812.099 615.166 811.582 614.958 811.233 614.543C810.884 614.128 810.71 613.539 810.71 612.775V607.206H809.075V606.019H810.71V603.844H812.246ZM820.065 607.396C819.833 607.358 819.581 607.338 819.31 607.338C818.302 607.338 817.619 607.767 817.259 608.625V615H815.724V606.019H817.218L817.243 607.056C817.746 606.254 818.46 605.853 819.384 605.853C819.683 605.853 819.91 605.891 820.065 605.969V607.396ZM825.045 615.166C823.828 615.166 822.837 614.768 822.074 613.971C821.31 613.168 820.928 612.097 820.928 610.758V610.476C820.928 609.585 821.097 608.791 821.435 608.094C821.778 607.391 822.254 606.843 822.862 606.45C823.477 606.052 824.141 605.853 824.854 605.853C826.022 605.853 826.93 606.237 827.577 607.006C828.225 607.776 828.548 608.877 828.548 610.31V610.949H822.464C822.486 611.835 822.743 612.551 823.236 613.099C823.734 613.641 824.365 613.913 825.128 613.913C825.671 613.913 826.13 613.802 826.506 613.581C826.883 613.359 827.212 613.066 827.494 612.701L828.432 613.431C827.68 614.588 826.551 615.166 825.045 615.166ZM824.854 607.114C824.235 607.114 823.715 607.341 823.294 607.795C822.873 608.243 822.613 608.874 822.514 609.688H827.013V609.571C826.968 608.791 826.758 608.188 826.382 607.762C826.006 607.33 825.496 607.114 824.854 607.114ZM835.562 612.618C835.562 612.203 835.405 611.882 835.089 611.655C834.779 611.422 834.234 611.223 833.454 611.057C832.679 610.891 832.062 610.692 831.603 610.459C831.149 610.227 830.812 609.95 830.59 609.629C830.375 609.308 830.267 608.927 830.267 608.484C830.267 607.748 830.576 607.125 831.196 606.616C831.822 606.107 832.618 605.853 833.587 605.853C834.605 605.853 835.43 606.115 836.061 606.641C836.697 607.167 837.015 607.839 837.015 608.658H835.471C835.471 608.238 835.291 607.875 834.932 607.571C834.577 607.266 834.129 607.114 833.587 607.114C833.028 607.114 832.591 607.236 832.275 607.479C831.96 607.723 831.802 608.041 831.802 608.434C831.802 608.805 831.949 609.084 832.242 609.272C832.535 609.461 833.064 609.64 833.828 609.812C834.597 609.984 835.219 610.188 835.695 610.426C836.171 610.664 836.523 610.952 836.75 611.29C836.982 611.622 837.098 612.028 837.098 612.51C837.098 613.312 836.777 613.957 836.135 614.444C835.493 614.925 834.66 615.166 833.637 615.166C832.917 615.166 832.281 615.039 831.728 614.784C831.174 614.53 830.74 614.175 830.424 613.722C830.114 613.262 829.959 612.767 829.959 612.236H831.495C831.523 612.75 831.728 613.16 832.109 613.464C832.497 613.763 833.006 613.913 833.637 613.913C834.218 613.913 834.683 613.796 835.031 613.564C835.385 613.326 835.562 613.011 835.562 612.618ZM840.767 615H839.231V606.019H840.767V615ZM839.107 603.636C839.107 603.387 839.182 603.177 839.331 603.005C839.486 602.834 839.713 602.748 840.012 602.748C840.311 602.748 840.537 602.834 840.692 603.005C840.847 603.177 840.925 603.387 840.925 603.636C840.925 603.885 840.847 604.093 840.692 604.259C840.537 604.425 840.311 604.508 840.012 604.508C839.713 604.508 839.486 604.425 839.331 604.259C839.182 604.093 839.107 603.885 839.107 603.636ZM842.859 610.435C842.859 609.057 843.185 607.95 843.838 607.114C844.491 606.273 845.346 605.853 846.403 605.853C847.455 605.853 848.288 606.212 848.902 606.932V602.25H850.438V615H849.026L848.952 614.037C848.337 614.79 847.482 615.166 846.387 615.166C845.346 615.166 844.497 614.74 843.838 613.888C843.185 613.035 842.859 611.923 842.859 610.551V610.435ZM844.395 610.609C844.395 611.627 844.605 612.424 845.025 613C845.446 613.575 846.027 613.863 846.769 613.863C847.743 613.863 848.454 613.426 848.902 612.551V608.426C848.443 607.579 847.737 607.156 846.785 607.156C846.033 607.156 845.446 607.446 845.025 608.027C844.605 608.608 844.395 609.469 844.395 610.609ZM856.555 615.166C855.338 615.166 854.347 614.768 853.583 613.971C852.82 613.168 852.438 612.097 852.438 610.758V610.476C852.438 609.585 852.607 608.791 852.944 608.094C853.287 607.391 853.763 606.843 854.372 606.45C854.986 606.052 855.65 605.853 856.364 605.853C857.532 605.853 858.439 606.237 859.087 607.006C859.734 607.776 860.058 608.877 860.058 610.31V610.949H853.974C853.996 611.835 854.253 612.551 854.746 613.099C855.244 613.641 855.875 613.913 856.638 613.913C857.181 613.913 857.64 613.802 858.016 613.581C858.392 613.359 858.722 613.066 859.004 612.701L859.942 613.431C859.189 614.588 858.06 615.166 856.555 615.166ZM856.364 607.114C855.744 607.114 855.224 607.341 854.804 607.795C854.383 608.243 854.123 608.874 854.023 609.688H858.522V609.571C858.478 608.791 858.268 608.188 857.892 607.762C857.515 607.33 857.006 607.114 856.364 607.114ZM863.295 606.019L863.345 607.147C864.031 606.284 864.928 605.853 866.035 605.853C867.933 605.853 868.89 606.923 868.907 609.065V615H867.371V609.057C867.366 608.409 867.216 607.931 866.923 607.621C866.635 607.311 866.184 607.156 865.57 607.156C865.072 607.156 864.635 607.289 864.258 607.554C863.882 607.82 863.589 608.168 863.378 608.6V615H861.843V606.019H863.295ZM873.306 603.844V606.019H874.983V607.206H873.306V612.775C873.306 613.135 873.381 613.406 873.53 613.589C873.68 613.766 873.934 613.854 874.294 613.854C874.471 613.854 874.715 613.821 875.024 613.755V615C874.62 615.111 874.228 615.166 873.846 615.166C873.16 615.166 872.642 614.958 872.293 614.543C871.945 614.128 871.771 613.539 871.771 612.775V607.206H870.135V606.019H871.771V603.844H873.306ZM881.673 615H880.129V604.765L877.033 605.902V604.508L881.433 602.856H881.673V615Z" fill="black"/>
<path d="M974 517H919V639H974V517Z" fill="#344D90" stroke="black" stroke-width="3"/>
<path d="M924.443 518.969L927.232 525.93L930.021 518.969H931.48V527.5H930.355V524.178L930.461 520.592L927.66 527.5H926.799L924.004 520.609L924.115 524.178V527.5H922.99V518.969H924.443ZM934.475 527.5H933.391V521.16H934.475V527.5ZM933.303 519.479C933.303 519.303 933.355 519.154 933.461 519.033C933.57 518.912 933.73 518.852 933.941 518.852C934.152 518.852 934.312 518.912 934.422 519.033C934.531 519.154 934.586 519.303 934.586 519.479C934.586 519.654 934.531 519.801 934.422 519.918C934.312 520.035 934.152 520.094 933.941 520.094C933.73 520.094 933.57 520.035 933.461 519.918C933.355 519.801 933.303 519.654 933.303 519.479ZM937.24 521.16L937.275 521.957C937.76 521.348 938.393 521.043 939.174 521.043C940.514 521.043 941.189 521.799 941.201 523.311V527.5H940.117V523.305C940.113 522.848 940.008 522.51 939.801 522.291C939.598 522.072 939.279 521.963 938.846 521.963C938.494 521.963 938.186 522.057 937.92 522.244C937.654 522.432 937.447 522.678 937.299 522.982V527.5H936.215V521.16H937.24ZM942.549 524.271C942.549 523.65 942.67 523.092 942.912 522.596C943.158 522.1 943.498 521.717 943.932 521.447C944.369 521.178 944.867 521.043 945.426 521.043C946.289 521.043 946.986 521.342 947.518 521.939C948.053 522.537 948.32 523.332 948.32 524.324V524.4C948.32 525.018 948.201 525.572 947.963 526.064C947.729 526.553 947.391 526.934 946.949 527.207C946.512 527.48 946.008 527.617 945.438 527.617C944.578 527.617 943.881 527.318 943.346 526.721C942.814 526.123 942.549 525.332 942.549 524.348V524.271ZM943.639 524.4C943.639 525.104 943.801 525.668 944.125 526.094C944.453 526.52 944.891 526.732 945.438 526.732C945.988 526.732 946.426 526.518 946.75 526.088C947.074 525.654 947.236 525.049 947.236 524.271C947.236 523.576 947.07 523.014 946.738 522.584C946.41 522.15 945.973 521.934 945.426 521.934C944.891 521.934 944.459 522.146 944.131 522.572C943.803 522.998 943.639 523.607 943.639 524.4ZM952.744 522.133C952.58 522.105 952.402 522.092 952.211 522.092C951.5 522.092 951.018 522.395 950.764 523V527.5H949.68V521.16H950.734L950.752 521.893C951.107 521.326 951.611 521.043 952.264 521.043C952.475 521.043 952.635 521.07 952.744 521.125V522.133ZM957.197 527.5H956.107V520.275L953.922 521.078V520.094L957.027 518.928H957.197V527.5Z" fill="black"/>
</g>
<defs>
<clipPath id="clip0">
<rect width="975" height="640" fill="white"/>
</clipPath>
</defs>
</svg>
